solid inlet
   facet normal 0.000000e+000 -1.000000e+000 0.000000e+000
      outer loop
         vertex -1.250000e-001 0.000000e+000 0.000000e+000
         vertex 1.250000e-001 0.000000e+000 0.000000e+000
         vertex 0.000000e+000 0.000000e+000 1.100000e-001
      endloop
   endfacet
   facet normal 0.000000e+000 -1.000000e+000 0.000000e+000
      outer loop
         vertex 0.000000e+000 0.000000e+000 1.100000e-001
         vertex -5.130302e-003 0.000000e+000 1.109046e-001
         vertex -1.250000e-001 0.000000e+000 0.000000e+000
      endloop
   endfacet
   facet normal 0.000000e+000 -1.000000e+000 0.000000e+000
      outer loop
         vertex -1.250000e-001 0.000000e+000 0.000000e+000
         vertex -5.130302e-003 0.000000e+000 1.109046e-001
         vertex -9.641814e-003 0.000000e+000 1.135093e-001
      endloop
   endfacet
   facet normal 0.000000e+000 -1.000000e+000 0.000000e+000
      outer loop
         vertex -1.250000e-001 0.000000e+000 0.000000e+000
         vertex -9.641814e-003 0.000000e+000 1.135093e-001
         vertex -1.299038e-002 0.000000e+000 1.175000e-001
      endloop
   endfacet
   facet normal 0.000000e+000 -1.000000e+000 0.000000e+000
      outer loop
         vertex 9.641814e-003 0.000000e+000 3.864907e-001
         vertex 1.299038e-002 0.000000e+000 3.825000e-001
         vertex 1.250000e-001 0.000000e+000 5.000000e-001
      endloop
   endfacet
   facet normal 0.000000e+000 -1.000000e+000 0.000000e+000
      outer loop
         vertex -1.477212e-002 0.000000e+000 3.776047e-001
         vertex -1.299038e-002 0.000000e+000 3.825000e-001
         vertex -1.250000e-001 0.000000e+000 5.000000e-001
      endloop
   endfacet
   facet normal 0.000000e+000 -1.000000e+000 0.000000e+000
      outer loop
         vertex -1.250000e-001 0.000000e+000 5.000000e-001
         vertex -1.299038e-002 0.000000e+000 3.825000e-001
         vertex -9.641814e-003 0.000000e+000 3.864907e-001
      endloop
   endfacet
   facet normal 0.000000e+000 -1.000000e+000 0.000000e+000
      outer loop
         vertex -9.641814e-003 0.000000e+000 3.864907e-001
         vertex -5.130302e-003 0.000000e+000 3.890954e-001
         vertex -1.250000e-001 0.000000e+000 5.000000e-001
      endloop
   endfacet
   facet normal 0.000000e+000 -1.000000e+000 0.000000e+000
      outer loop
         vertex -1.250000e-001 0.000000e+000 5.000000e-001
         vertex -5.130302e-003 0.000000e+000 3.890954e-001
         vertex 5.828671e-018 0.000000e+000 3.900000e-001
      endloop
   endfacet
   facet normal 0.000000e+000 -1.000000e+000 0.000000e+000
      outer loop
         vertex -1.250000e-001 0.000000e+000 5.000000e-001
         vertex 5.828671e-018 0.000000e+000 3.900000e-001
         vertex 1.250000e-001 0.000000e+000 5.000000e-001
      endloop
   endfacet
   facet normal 0.000000e+000 -1.000000e+000 0.000000e+000
      outer loop
         vertex 1.250000e-001 0.000000e+000 5.000000e-001
         vertex 5.828671e-018 0.000000e+000 3.900000e-001
         vertex 5.130302e-003 0.000000e+000 3.890954e-001
      endloop
   endfacet
   facet normal 0.000000e+000 -1.000000e+000 0.000000e+000
      outer loop
         vertex 1.250000e-001 0.000000e+000 5.000000e-001
         vertex 5.130302e-003 0.000000e+000 3.890954e-001
         vertex 9.641814e-003 0.000000e+000 3.864907e-001
      endloop
   endfacet
   facet normal 0.000000e+000 -1.000000e+000 0.000000e+000
      outer loop
         vertex 1.477212e-002 0.000000e+000 1.223953e-001
         vertex 1.299038e-002 0.000000e+000 1.175000e-001
         vertex 1.250000e-001 0.000000e+000 0.000000e+000
      endloop
   endfacet
   facet normal 0.000000e+000 -1.000000e+000 0.000000e+000
      outer loop
         vertex -1.299038e-002 0.000000e+000 1.175000e-001
         vertex -1.477212e-002 0.000000e+000 1.223953e-001
         vertex -1.250000e-001 0.000000e+000 0.000000e+000
      endloop
   endfacet
   facet normal 0.000000e+000 -1.000000e+000 0.000000e+000
      outer loop
         vertex -1.250000e-001 0.000000e+000 0.000000e+000
         vertex -1.477212e-002 0.000000e+000 1.223953e-001
         vertex -1.477212e-002 0.000000e+000 1.276047e-001
      endloop
   endfacet
   facet normal 0.000000e+000 -1.000000e+000 0.000000e+000
      outer loop
         vertex -1.250000e-001 0.000000e+000 0.000000e+000
         vertex -1.477212e-002 0.000000e+000 1.276047e-001
         vertex -5.130302e-003 0.000000e+000 3.609046e-001
      endloop
   endfacet
   facet normal 0.000000e+000 -1.000000e+000 0.000000e+000
      outer loop
         vertex -5.130302e-003 0.000000e+000 3.609046e-001
         vertex -1.477212e-002 0.000000e+000 1.276047e-001
         vertex -1.299038e-002 0.000000e+000 1.325000e-001
      endloop
   endfacet
   facet normal 0.000000e+000 -1.000000e+000 0.000000e+000
      outer loop
         vertex -1.299038e-002 0.000000e+000 1.325000e-001
         vertex -9.641814e-003 0.000000e+000 1.364907e-001
         vertex -5.130302e-003 0.000000e+000 3.609046e-001
      endloop
   endfacet
   facet normal 0.000000e+000 -1.000000e+000 0.000000e+000
      outer loop
         vertex -5.130302e-003 0.000000e+000 3.609046e-001
         vertex -9.641814e-003 0.000000e+000 1.364907e-001
         vertex -5.130302e-003 0.000000e+000 1.390954e-001
      endloop
   endfacet
   facet normal 0.000000e+000 -1.000000e+000 0.000000e+000
      outer loop
         vertex -5.130302e-003 0.000000e+000 3.609046e-001
         vertex -5.130302e-003 0.000000e+000 1.390954e-001
         vertex 0.000000e+000 0.000000e+000 3.600000e-001
      endloop
   endfacet
   facet normal 0.000000e+000 -1.000000e+000 0.000000e+000
      outer loop
         vertex 0.000000e+000 0.000000e+000 3.600000e-001
         vertex -5.130302e-003 0.000000e+000 1.390954e-001
         vertex 5.828671e-018 0.000000e+000 1.400000e-001
      endloop
   endfacet
   facet normal 0.000000e+000 -1.000000e+000 0.000000e+000
      outer loop
         vertex 0.000000e+000 0.000000e+000 3.600000e-001
         vertex 5.828671e-018 0.000000e+000 1.400000e-001
         vertex 5.130302e-003 0.000000e+000 3.609046e-001
      endloop
   endfacet
   facet normal 0.000000e+000 -1.000000e+000 0.000000e+000
      outer loop
         vertex 5.130302e-003 0.000000e+000 3.609046e-001
         vertex 5.828671e-018 0.000000e+000 1.400000e-001
         vertex 5.130302e-003 0.000000e+000 1.390954e-001
      endloop
   endfacet
   facet normal 0.000000e+000 -1.000000e+000 0.000000e+000
      outer loop
         vertex 5.130302e-003 0.000000e+000 3.609046e-001
         vertex 5.130302e-003 0.000000e+000 1.390954e-001
         vertex 9.641814e-003 0.000000e+000 3.635093e-001
      endloop
   endfacet
   facet normal 0.000000e+000 -1.000000e+000 0.000000e+000
      outer loop
         vertex -5.130302e-003 0.000000e+000 3.609046e-001
         vertex -9.641814e-003 0.000000e+000 3.635093e-001
         vertex -1.250000e-001 0.000000e+000 0.000000e+000
      endloop
   endfacet
   facet normal 0.000000e+000 -1.000000e+000 0.000000e+000
      outer loop
         vertex -1.250000e-001 0.000000e+000 0.000000e+000
         vertex -9.641814e-003 0.000000e+000 3.635093e-001
         vertex -1.299038e-002 0.000000e+000 3.675000e-001
      endloop
   endfacet
   facet normal 0.000000e+000 -1.000000e+000 0.000000e+000
      outer loop
         vertex -1.250000e-001 0.000000e+000 0.000000e+000
         vertex -1.299038e-002 0.000000e+000 3.675000e-001
         vertex -1.250000e-001 0.000000e+000 5.000000e-001
      endloop
   endfacet
   facet normal 0.000000e+000 -1.000000e+000 0.000000e+000
      outer loop
         vertex -1.250000e-001 0.000000e+000 5.000000e-001
         vertex -1.299038e-002 0.000000e+000 3.675000e-001
         vertex -1.477212e-002 0.000000e+000 3.723953e-001
      endloop
   endfacet
   facet normal 0.000000e+000 -1.000000e+000 0.000000e+000
      outer loop
         vertex -1.250000e-001 0.000000e+000 5.000000e-001
         vertex -1.477212e-002 0.000000e+000 3.723953e-001
         vertex -1.477212e-002 0.000000e+000 3.776047e-001
      endloop
   endfacet
   facet normal 0.000000e+000 -1.000000e+000 0.000000e+000
      outer loop
         vertex 1.299038e-002 0.000000e+000 1.175000e-001
         vertex 9.641814e-003 0.000000e+000 1.135093e-001
         vertex 1.250000e-001 0.000000e+000 0.000000e+000
      endloop
   endfacet
   facet normal 0.000000e+000 -1.000000e+000 0.000000e+000
      outer loop
         vertex 1.250000e-001 0.000000e+000 0.000000e+000
         vertex 9.641814e-003 0.000000e+000 1.135093e-001
         vertex 5.130302e-003 0.000000e+000 1.109046e-001
      endloop
   endfacet
   facet normal 0.000000e+000 -1.000000e+000 0.000000e+000
      outer loop
         vertex 1.250000e-001 0.000000e+000 0.000000e+000
         vertex 5.130302e-003 0.000000e+000 1.109046e-001
         vertex 0.000000e+000 0.000000e+000 1.100000e-001
      endloop
   endfacet
   facet normal 0.000000e+000 -1.000000e+000 0.000000e+000
      outer loop
         vertex 5.130302e-003 0.000000e+000 1.390954e-001
         vertex 9.641814e-003 0.000000e+000 1.364907e-001
         vertex 1.250000e-001 0.000000e+000 5.000000e-001
      endloop
   endfacet
   facet normal 0.000000e+000 -1.000000e+000 0.000000e+000
      outer loop
         vertex 1.250000e-001 0.000000e+000 5.000000e-001
         vertex 9.641814e-003 0.000000e+000 1.364907e-001
         vertex 1.299038e-002 0.000000e+000 1.325000e-001
      endloop
   endfacet
   facet normal 0.000000e+000 -1.000000e+000 0.000000e+000
      outer loop
         vertex 1.250000e-001 0.000000e+000 5.000000e-001
         vertex 1.299038e-002 0.000000e+000 1.325000e-001
         vertex 1.250000e-001 0.000000e+000 0.000000e+000
      endloop
   endfacet
   facet normal 0.000000e+000 -1.000000e+000 0.000000e+000
      outer loop
         vertex 1.250000e-001 0.000000e+000 0.000000e+000
         vertex 1.299038e-002 0.000000e+000 1.325000e-001
         vertex 1.477212e-002 0.000000e+000 1.276047e-001
      endloop
   endfacet
   facet normal 0.000000e+000 -1.000000e+000 0.000000e+000
      outer loop
         vertex 1.250000e-001 0.000000e+000 0.000000e+000
         vertex 1.477212e-002 0.000000e+000 1.276047e-001
         vertex 1.477212e-002 0.000000e+000 1.223953e-001
      endloop
   endfacet
   facet normal 0.000000e+000 -1.000000e+000 0.000000e+000
      outer loop
         vertex 1.299038e-002 0.000000e+000 3.825000e-001
         vertex 1.477212e-002 0.000000e+000 3.776047e-001
         vertex 1.250000e-001 0.000000e+000 5.000000e-001
      endloop
   endfacet
   facet normal 0.000000e+000 -1.000000e+000 0.000000e+000
      outer loop
         vertex 1.250000e-001 0.000000e+000 5.000000e-001
         vertex 1.477212e-002 0.000000e+000 3.776047e-001
         vertex 1.477212e-002 0.000000e+000 3.723953e-001
      endloop
   endfacet
   facet normal 0.000000e+000 -1.000000e+000 0.000000e+000
      outer loop
         vertex 1.250000e-001 0.000000e+000 5.000000e-001
         vertex 1.477212e-002 0.000000e+000 3.723953e-001
         vertex 5.130302e-003 0.000000e+000 1.390954e-001
      endloop
   endfacet
   facet normal 0.000000e+000 -1.000000e+000 0.000000e+000
      outer loop
         vertex 5.130302e-003 0.000000e+000 1.390954e-001
         vertex 1.477212e-002 0.000000e+000 3.723953e-001
         vertex 1.299038e-002 0.000000e+000 3.675000e-001
      endloop
   endfacet
   facet normal 0.000000e+000 -1.000000e+000 0.000000e+000
      outer loop
         vertex 5.130302e-003 0.000000e+000 1.390954e-001
         vertex 1.299038e-002 0.000000e+000 3.675000e-001
         vertex 9.641814e-003 0.000000e+000 3.635093e-001
      endloop
   endfacet
endsolid inlet
