solid casing
   facet normal 0.000000e+000 0.000000e+000 1.000000e+000
      outer loop
         vertex 1.000000e-002 2.300000e-002 2.000000e-001
         vertex 2.375000e-002 4.800000e-002 2.000000e-001
         vertex 0.000000e+000 3.800000e-002 2.000000e-001
      endloop
   endfacet
   facet normal 0.000000e+000 0.000000e+000 1.000000e+000
      outer loop
         vertex 0.000000e+000 3.800000e-002 2.000000e-001
         vertex 2.375000e-002 4.800000e-002 2.000000e-001
         vertex 2.125000e-002 4.800000e-002 2.000000e-001
      endloop
   endfacet
   facet normal 0.000000e+000 0.000000e+000 1.000000e+000
      outer loop
         vertex 1.250000e-001 1.839859e-001 2.000000e-001
         vertex -2.125000e-002 1.080000e-001 2.000000e-001
         vertex 2.125000e-002 1.080000e-001 2.000000e-001
      endloop
   endfacet
   facet normal 0.000000e+000 0.000000e+000 1.000000e+000
      outer loop
         vertex 2.125000e-002 1.080000e-001 2.000000e-001
         vertex 2.375000e-002 1.080000e-001 2.000000e-001
         vertex 1.250000e-001 1.839859e-001 2.000000e-001
      endloop
   endfacet
   facet normal 0.000000e+000 0.000000e+000 1.000000e+000
      outer loop
         vertex 1.250000e-001 1.839859e-001 2.000000e-001
         vertex 2.375000e-002 1.080000e-001 2.000000e-001
         vertex 2.375000e-002 4.800000e-002 2.000000e-001
      endloop
   endfacet
   facet normal 0.000000e+000 0.000000e+000 1.000000e+000
      outer loop
         vertex 1.250000e-001 1.839859e-001 2.000000e-001
         vertex 2.375000e-002 4.800000e-002 2.000000e-001
         vertex 2.510000e-002 1.095399e-002 2.000000e-001
      endloop
   endfacet
   facet normal 0.000000e+000 0.000000e+000 1.000000e+000
      outer loop
         vertex 2.510000e-002 1.095399e-002 2.000000e-001
         vertex 2.375000e-002 4.800000e-002 2.000000e-001
         vertex 2.219466e-002 9.114644e-003 2.000000e-001
      endloop
   endfacet
   facet normal 0.000000e+000 0.000000e+000 1.000000e+000
      outer loop
         vertex 2.219466e-002 9.114644e-003 2.000000e-001
         vertex 2.375000e-002 4.800000e-002 2.000000e-001
         vertex 1.000000e-002 2.300000e-002 2.000000e-001
      endloop
   endfacet
   facet normal 0.000000e+000 0.000000e+000 1.000000e+000
      outer loop
         vertex 2.219466e-002 9.114644e-003 2.000000e-001
         vertex 1.000000e-002 2.300000e-002 2.000000e-001
         vertex 1.993024e-002 6.526867e-003 2.000000e-001
      endloop
   endfacet
   facet normal 0.000000e+000 0.000000e+000 1.000000e+000
      outer loop
         vertex -2.375000e-002 4.800000e-002 2.000000e-001
         vertex -1.000000e-002 2.300000e-002 2.000000e-001
         vertex -2.125000e-002 4.800000e-002 2.000000e-001
      endloop
   endfacet
   facet normal 0.000000e+000 0.000000e+000 1.000000e+000
      outer loop
         vertex -2.125000e-002 4.800000e-002 2.000000e-001
         vertex -1.000000e-002 2.300000e-002 2.000000e-001
         vertex 0.000000e+000 3.800000e-002 2.000000e-001
      endloop
   endfacet
   facet normal 0.000000e+000 0.000000e+000 1.000000e+000
      outer loop
         vertex -2.125000e-002 4.800000e-002 2.000000e-001
         vertex 0.000000e+000 3.800000e-002 2.000000e-001
         vertex -2.125000e-002 1.080000e-001 2.000000e-001
      endloop
   endfacet
   facet normal 0.000000e+000 0.000000e+000 1.000000e+000
      outer loop
         vertex -2.125000e-002 1.080000e-001 2.000000e-001
         vertex 0.000000e+000 3.800000e-002 2.000000e-001
         vertex 2.125000e-002 4.800000e-002 2.000000e-001
      endloop
   endfacet
   facet normal 0.000000e+000 0.000000e+000 1.000000e+000
      outer loop
         vertex -2.125000e-002 1.080000e-001 2.000000e-001
         vertex 2.125000e-002 4.800000e-002 2.000000e-001
         vertex 2.125000e-002 1.080000e-001 2.000000e-001
      endloop
   endfacet
   facet normal 0.000000e+000 0.000000e+000 1.000000e+000
      outer loop
         vertex -1.250000e-001 5.970184e-001 2.000000e-001
         vertex -1.250000e-001 1.839859e-001 2.000000e-001
         vertex -3.600000e-002 5.970184e-001 2.000000e-001
      endloop
   endfacet
   facet normal 0.000000e+000 0.000000e+000 1.000000e+000
      outer loop
         vertex -3.600000e-002 5.970184e-001 2.000000e-001
         vertex -1.250000e-001 1.839859e-001 2.000000e-001
         vertex 3.600000e-002 5.970184e-001 2.000000e-001
      endloop
   endfacet
   facet normal 0.000000e+000 0.000000e+000 1.000000e+000
      outer loop
         vertex -3.600000e-002 5.970184e-001 2.000000e-001
         vertex 3.600000e-002 5.970184e-001 2.000000e-001
         vertex -3.600000e-002 6.070184e-001 2.000000e-001
      endloop
   endfacet
   facet normal 0.000000e+000 0.000000e+000 1.000000e+000
      outer loop
         vertex -3.600000e-002 6.070184e-001 2.000000e-001
         vertex 3.600000e-002 5.970184e-001 2.000000e-001
         vertex 3.600000e-002 6.070184e-001 2.000000e-001
      endloop
   endfacet
   facet normal 0.000000e+000 0.000000e+000 1.000000e+000
      outer loop
         vertex 1.250000e-001 1.839859e-001 2.000000e-001
         vertex 1.250000e-001 5.970184e-001 2.000000e-001
         vertex -2.125000e-002 1.080000e-001 2.000000e-001
      endloop
   endfacet
   facet normal 0.000000e+000 0.000000e+000 1.000000e+000
      outer loop
         vertex -2.125000e-002 1.080000e-001 2.000000e-001
         vertex 1.250000e-001 5.970184e-001 2.000000e-001
         vertex 3.600000e-002 5.970184e-001 2.000000e-001
      endloop
   endfacet
   facet normal 0.000000e+000 0.000000e+000 1.000000e+000
      outer loop
         vertex -2.125000e-002 1.080000e-001 2.000000e-001
         vertex 3.600000e-002 5.970184e-001 2.000000e-001
         vertex -2.375000e-002 1.080000e-001 2.000000e-001
      endloop
   endfacet
   facet normal 0.000000e+000 0.000000e+000 1.000000e+000
      outer loop
         vertex -2.375000e-002 1.080000e-001 2.000000e-001
         vertex 3.600000e-002 5.970184e-001 2.000000e-001
         vertex -1.250000e-001 1.839859e-001 2.000000e-001
      endloop
   endfacet
   facet normal 0.000000e+000 0.000000e+000 1.000000e+000
      outer loop
         vertex -2.375000e-002 1.080000e-001 2.000000e-001
         vertex -1.250000e-001 1.839859e-001 2.000000e-001
         vertex -2.375000e-002 4.800000e-002 2.000000e-001
      endloop
   endfacet
   facet normal 0.000000e+000 0.000000e+000 1.000000e+000
      outer loop
         vertex -2.375000e-002 4.800000e-002 2.000000e-001
         vertex -1.250000e-001 1.839859e-001 2.000000e-001
         vertex -2.510000e-002 1.095399e-002 2.000000e-001
      endloop
   endfacet
   facet normal 0.000000e+000 0.000000e+000 1.000000e+000
      outer loop
         vertex -2.375000e-002 4.800000e-002 2.000000e-001
         vertex -2.510000e-002 1.095399e-002 2.000000e-001
         vertex -1.000000e-002 2.300000e-002 2.000000e-001
      endloop
   endfacet
   facet normal 0.000000e+000 0.000000e+000 1.000000e+000
      outer loop
         vertex -1.000000e-002 2.300000e-002 2.000000e-001
         vertex -2.510000e-002 1.095399e-002 2.000000e-001
         vertex -2.219466e-002 9.114644e-003 2.000000e-001
      endloop
   endfacet
   facet normal 0.000000e+000 0.000000e+000 1.000000e+000
      outer loop
         vertex -1.000000e-002 2.300000e-002 2.000000e-001
         vertex -2.219466e-002 9.114644e-003 2.000000e-001
         vertex -1.993024e-002 6.526867e-003 2.000000e-001
      endloop
   endfacet
   facet normal 0.000000e+000 0.000000e+000 1.000000e+000
      outer loop
         vertex -1.993024e-002 6.526867e-003 2.000000e-001
         vertex -1.849267e-002 3.403154e-003 2.000000e-001
         vertex -1.000000e-002 2.300000e-002 2.000000e-001
      endloop
   endfacet
   facet normal 0.000000e+000 0.000000e+000 1.000000e+000
      outer loop
         vertex -1.000000e-002 2.300000e-002 2.000000e-001
         vertex -1.849267e-002 3.403154e-003 2.000000e-001
         vertex -1.800000e-002 -3.469447e-018 2.000000e-001
      endloop
   endfacet
   facet normal 0.000000e+000 0.000000e+000 1.000000e+000
      outer loop
         vertex -1.000000e-002 2.300000e-002 2.000000e-001
         vertex -1.800000e-002 -3.469447e-018 2.000000e-001
         vertex -1.000000e-002 -2.300000e-002 2.000000e-001
      endloop
   endfacet
   facet normal 0.000000e+000 0.000000e+000 1.000000e+000
      outer loop
         vertex -1.000000e-002 -2.300000e-002 2.000000e-001
         vertex -1.800000e-002 -3.469447e-018 2.000000e-001
         vertex -1.800000e-002 -7.500000e-002 2.000000e-001
      endloop
   endfacet
   facet normal 0.000000e+000 0.000000e+000 1.000000e+000
      outer loop
         vertex -1.000000e-002 -2.300000e-002 2.000000e-001
         vertex -1.800000e-002 -7.500000e-002 2.000000e-001
         vertex 0.000000e+000 -3.800000e-002 2.000000e-001
      endloop
   endfacet
   facet normal 0.000000e+000 0.000000e+000 1.000000e+000
      outer loop
         vertex 0.000000e+000 -3.800000e-002 2.000000e-001
         vertex -1.800000e-002 -7.500000e-002 2.000000e-001
         vertex 1.800000e-002 -7.500000e-002 2.000000e-001
      endloop
   endfacet
   facet normal 0.000000e+000 0.000000e+000 1.000000e+000
      outer loop
         vertex 0.000000e+000 -3.800000e-002 2.000000e-001
         vertex 1.800000e-002 -7.500000e-002 2.000000e-001
         vertex 1.000000e-002 -2.300000e-002 2.000000e-001
      endloop
   endfacet
   facet normal 0.000000e+000 0.000000e+000 1.000000e+000
      outer loop
         vertex 1.000000e-002 -2.300000e-002 2.000000e-001
         vertex 1.800000e-002 -7.500000e-002 2.000000e-001
         vertex 1.800000e-002 -3.469447e-018 2.000000e-001
      endloop
   endfacet
   facet normal 0.000000e+000 0.000000e+000 1.000000e+000
      outer loop
         vertex 1.000000e-002 -2.300000e-002 2.000000e-001
         vertex 1.800000e-002 -3.469447e-018 2.000000e-001
         vertex 1.000000e-002 2.300000e-002 2.000000e-001
      endloop
   endfacet
   facet normal 0.000000e+000 0.000000e+000 1.000000e+000
      outer loop
         vertex 1.000000e-002 2.300000e-002 2.000000e-001
         vertex 1.800000e-002 -3.469447e-018 2.000000e-001
         vertex 1.849267e-002 3.403154e-003 2.000000e-001
      endloop
   endfacet
   facet normal 0.000000e+000 0.000000e+000 1.000000e+000
      outer loop
         vertex 1.000000e-002 2.300000e-002 2.000000e-001
         vertex 1.849267e-002 3.403154e-003 2.000000e-001
         vertex 1.993024e-002 6.526867e-003 2.000000e-001
      endloop
   endfacet
   facet normal 0.000000e+000 0.000000e+000 -1.000000e+000
      outer loop
         vertex -2.375000e-002 4.800000e-002 0.000000e+000
         vertex -2.510000e-002 1.095399e-002 0.000000e+000
         vertex -1.250000e-001 1.839859e-001 0.000000e+000
      endloop
   endfacet
   facet normal 0.000000e+000 0.000000e+000 -1.000000e+000
      outer loop
         vertex -1.000000e-002 2.300000e-002 0.000000e+000
         vertex -2.375000e-002 4.800000e-002 0.000000e+000
         vertex 0.000000e+000 3.800000e-002 0.000000e+000
      endloop
   endfacet
   facet normal 0.000000e+000 0.000000e+000 -1.000000e+000
      outer loop
         vertex 0.000000e+000 3.800000e-002 0.000000e+000
         vertex -2.375000e-002 4.800000e-002 0.000000e+000
         vertex -2.125000e-002 4.800000e-002 0.000000e+000
      endloop
   endfacet
   facet normal 0.000000e+000 0.000000e+000 -1.000000e+000
      outer loop
         vertex 2.125000e-002 1.080000e-001 0.000000e+000
         vertex -2.125000e-002 1.080000e-001 0.000000e+000
         vertex -1.250000e-001 1.839859e-001 0.000000e+000
      endloop
   endfacet
   facet normal 0.000000e+000 0.000000e+000 -1.000000e+000
      outer loop
         vertex -1.250000e-001 1.839859e-001 0.000000e+000
         vertex -2.125000e-002 1.080000e-001 0.000000e+000
         vertex -2.375000e-002 1.080000e-001 0.000000e+000
      endloop
   endfacet
   facet normal 0.000000e+000 0.000000e+000 -1.000000e+000
      outer loop
         vertex -1.250000e-001 1.839859e-001 0.000000e+000
         vertex -2.375000e-002 1.080000e-001 0.000000e+000
         vertex -2.375000e-002 4.800000e-002 0.000000e+000
      endloop
   endfacet
   facet normal 0.000000e+000 0.000000e+000 -1.000000e+000
      outer loop
         vertex -2.510000e-002 1.095399e-002 0.000000e+000
         vertex -2.375000e-002 4.800000e-002 0.000000e+000
         vertex -2.219466e-002 9.114644e-003 0.000000e+000
      endloop
   endfacet
   facet normal 0.000000e+000 0.000000e+000 -1.000000e+000
      outer loop
         vertex -2.219466e-002 9.114644e-003 0.000000e+000
         vertex -2.375000e-002 4.800000e-002 0.000000e+000
         vertex -1.000000e-002 2.300000e-002 0.000000e+000
      endloop
   endfacet
   facet normal 0.000000e+000 0.000000e+000 -1.000000e+000
      outer loop
         vertex -2.219466e-002 9.114644e-003 0.000000e+000
         vertex -1.000000e-002 2.300000e-002 0.000000e+000
         vertex -1.993024e-002 6.526867e-003 0.000000e+000
      endloop
   endfacet
   facet normal 0.000000e+000 0.000000e+000 -1.000000e+000
      outer loop
         vertex 2.375000e-002 4.800000e-002 0.000000e+000
         vertex 1.000000e-002 2.300000e-002 0.000000e+000
         vertex 2.125000e-002 4.800000e-002 0.000000e+000
      endloop
   endfacet
   facet normal 0.000000e+000 0.000000e+000 -1.000000e+000
      outer loop
         vertex 2.125000e-002 4.800000e-002 0.000000e+000
         vertex 1.000000e-002 2.300000e-002 0.000000e+000
         vertex 0.000000e+000 3.800000e-002 0.000000e+000
      endloop
   endfacet
   facet normal 0.000000e+000 0.000000e+000 -1.000000e+000
      outer loop
         vertex 2.125000e-002 4.800000e-002 0.000000e+000
         vertex 0.000000e+000 3.800000e-002 0.000000e+000
         vertex 2.125000e-002 1.080000e-001 0.000000e+000
      endloop
   endfacet
   facet normal 0.000000e+000 0.000000e+000 -1.000000e+000
      outer loop
         vertex 2.125000e-002 1.080000e-001 0.000000e+000
         vertex 0.000000e+000 3.800000e-002 0.000000e+000
         vertex -2.125000e-002 4.800000e-002 0.000000e+000
      endloop
   endfacet
   facet normal 0.000000e+000 0.000000e+000 -1.000000e+000
      outer loop
         vertex 2.125000e-002 1.080000e-001 0.000000e+000
         vertex -2.125000e-002 4.800000e-002 0.000000e+000
         vertex -2.125000e-002 1.080000e-001 0.000000e+000
      endloop
   endfacet
   facet normal 0.000000e+000 0.000000e+000 -1.000000e+000
      outer loop
         vertex 1.250000e-001 5.970184e-001 0.000000e+000
         vertex 1.250000e-001 1.839859e-001 0.000000e+000
         vertex 3.600000e-002 5.970184e-001 0.000000e+000
      endloop
   endfacet
   facet normal 0.000000e+000 0.000000e+000 -1.000000e+000
      outer loop
         vertex 3.600000e-002 5.970184e-001 0.000000e+000
         vertex 1.250000e-001 1.839859e-001 0.000000e+000
         vertex -3.600000e-002 5.970184e-001 0.000000e+000
      endloop
   endfacet
   facet normal 0.000000e+000 0.000000e+000 -1.000000e+000
      outer loop
         vertex 3.600000e-002 5.970184e-001 0.000000e+000
         vertex -3.600000e-002 5.970184e-001 0.000000e+000
         vertex 3.600000e-002 6.070184e-001 0.000000e+000
      endloop
   endfacet
   facet normal 0.000000e+000 0.000000e+000 -1.000000e+000
      outer loop
         vertex 3.600000e-002 6.070184e-001 0.000000e+000
         vertex -3.600000e-002 5.970184e-001 0.000000e+000
         vertex -3.600000e-002 6.070184e-001 0.000000e+000
      endloop
   endfacet
   facet normal 0.000000e+000 0.000000e+000 -1.000000e+000
      outer loop
         vertex 1.993024e-002 6.526867e-003 0.000000e+000
         vertex 1.849267e-002 3.403154e-003 0.000000e+000
         vertex 1.000000e-002 2.300000e-002 0.000000e+000
      endloop
   endfacet
   facet normal 0.000000e+000 0.000000e+000 -1.000000e+000
      outer loop
         vertex 1.000000e-002 2.300000e-002 0.000000e+000
         vertex 1.849267e-002 3.403154e-003 0.000000e+000
         vertex 1.800000e-002 -3.469447e-018 0.000000e+000
      endloop
   endfacet
   facet normal 0.000000e+000 0.000000e+000 -1.000000e+000
      outer loop
         vertex 1.000000e-002 2.300000e-002 0.000000e+000
         vertex 1.800000e-002 -3.469447e-018 0.000000e+000
         vertex 1.000000e-002 -2.300000e-002 0.000000e+000
      endloop
   endfacet
   facet normal 0.000000e+000 0.000000e+000 -1.000000e+000
      outer loop
         vertex 1.000000e-002 -2.300000e-002 0.000000e+000
         vertex 1.800000e-002 -3.469447e-018 0.000000e+000
         vertex 1.800000e-002 -7.500000e-002 0.000000e+000
      endloop
   endfacet
   facet normal 0.000000e+000 0.000000e+000 -1.000000e+000
      outer loop
         vertex 1.000000e-002 -2.300000e-002 0.000000e+000
         vertex 1.800000e-002 -7.500000e-002 0.000000e+000
         vertex 0.000000e+000 -3.800000e-002 0.000000e+000
      endloop
   endfacet
   facet normal 0.000000e+000 0.000000e+000 -1.000000e+000
      outer loop
         vertex 0.000000e+000 -3.800000e-002 0.000000e+000
         vertex 1.800000e-002 -7.500000e-002 0.000000e+000
         vertex -1.800000e-002 -7.500000e-002 0.000000e+000
      endloop
   endfacet
   facet normal 0.000000e+000 0.000000e+000 -1.000000e+000
      outer loop
         vertex 0.000000e+000 -3.800000e-002 0.000000e+000
         vertex -1.800000e-002 -7.500000e-002 0.000000e+000
         vertex -1.000000e-002 -2.300000e-002 0.000000e+000
      endloop
   endfacet
   facet normal 0.000000e+000 0.000000e+000 -1.000000e+000
      outer loop
         vertex -1.000000e-002 -2.300000e-002 0.000000e+000
         vertex -1.800000e-002 -7.500000e-002 0.000000e+000
         vertex -1.800000e-002 -3.469447e-018 0.000000e+000
      endloop
   endfacet
   facet normal 0.000000e+000 0.000000e+000 -1.000000e+000
      outer loop
         vertex -1.000000e-002 -2.300000e-002 0.000000e+000
         vertex -1.800000e-002 -3.469447e-018 0.000000e+000
         vertex -1.000000e-002 2.300000e-002 0.000000e+000
      endloop
   endfacet
   facet normal 0.000000e+000 0.000000e+000 -1.000000e+000
      outer loop
         vertex -1.000000e-002 2.300000e-002 0.000000e+000
         vertex -1.800000e-002 -3.469447e-018 0.000000e+000
         vertex -1.849267e-002 3.403154e-003 0.000000e+000
      endloop
   endfacet
   facet normal 0.000000e+000 0.000000e+000 -1.000000e+000
      outer loop
         vertex -1.000000e-002 2.300000e-002 0.000000e+000
         vertex -1.849267e-002 3.403154e-003 0.000000e+000
         vertex -1.993024e-002 6.526867e-003 0.000000e+000
      endloop
   endfacet
   facet normal 0.000000e+000 0.000000e+000 -1.000000e+000
      outer loop
         vertex -1.250000e-001 1.839859e-001 0.000000e+000
         vertex -1.250000e-001 5.970184e-001 0.000000e+000
         vertex 2.125000e-002 1.080000e-001 0.000000e+000
      endloop
   endfacet
   facet normal 0.000000e+000 0.000000e+000 -1.000000e+000
      outer loop
         vertex 2.125000e-002 1.080000e-001 0.000000e+000
         vertex -1.250000e-001 5.970184e-001 0.000000e+000
         vertex -3.600000e-002 5.970184e-001 0.000000e+000
      endloop
   endfacet
   facet normal 0.000000e+000 0.000000e+000 -1.000000e+000
      outer loop
         vertex 2.125000e-002 1.080000e-001 0.000000e+000
         vertex -3.600000e-002 5.970184e-001 0.000000e+000
         vertex 2.375000e-002 1.080000e-001 0.000000e+000
      endloop
   endfacet
   facet normal 0.000000e+000 0.000000e+000 -1.000000e+000
      outer loop
         vertex 2.375000e-002 1.080000e-001 0.000000e+000
         vertex -3.600000e-002 5.970184e-001 0.000000e+000
         vertex 1.250000e-001 1.839859e-001 0.000000e+000
      endloop
   endfacet
   facet normal 0.000000e+000 0.000000e+000 -1.000000e+000
      outer loop
         vertex 2.375000e-002 1.080000e-001 0.000000e+000
         vertex 1.250000e-001 1.839859e-001 0.000000e+000
         vertex 2.375000e-002 4.800000e-002 0.000000e+000
      endloop
   endfacet
   facet normal 0.000000e+000 0.000000e+000 -1.000000e+000
      outer loop
         vertex 2.375000e-002 4.800000e-002 0.000000e+000
         vertex 1.250000e-001 1.839859e-001 0.000000e+000
         vertex 2.510000e-002 1.095399e-002 0.000000e+000
      endloop
   endfacet
   facet normal 0.000000e+000 0.000000e+000 -1.000000e+000
      outer loop
         vertex 2.375000e-002 4.800000e-002 0.000000e+000
         vertex 2.510000e-002 1.095399e-002 0.000000e+000
         vertex 1.000000e-002 2.300000e-002 0.000000e+000
      endloop
   endfacet
   facet normal 0.000000e+000 0.000000e+000 -1.000000e+000
      outer loop
         vertex 1.000000e-002 2.300000e-002 0.000000e+000
         vertex 2.510000e-002 1.095399e-002 0.000000e+000
         vertex 2.219466e-002 9.114644e-003 0.000000e+000
      endloop
   endfacet
   facet normal 0.000000e+000 0.000000e+000 -1.000000e+000
      outer loop
         vertex 1.000000e-002 2.300000e-002 0.000000e+000
         vertex 2.219466e-002 9.114644e-003 0.000000e+000
         vertex 1.993024e-002 6.526867e-003 0.000000e+000
      endloop
   endfacet
   facet normal 0.000000e+000 1.000000e+000 0.000000e+000
      outer loop
         vertex 1.250000e-001 5.970184e-001 2.000000e-001
         vertex 1.250000e-001 5.970184e-001 0.000000e+000
         vertex 3.600000e-002 5.970184e-001 2.000000e-001
      endloop
   endfacet
   facet normal 0.000000e+000 1.000000e+000 0.000000e+000
      outer loop
         vertex 3.600000e-002 5.970184e-001 2.000000e-001
         vertex 1.250000e-001 5.970184e-001 0.000000e+000
         vertex 3.600000e-002 5.970184e-001 0.000000e+000
      endloop
   endfacet
   facet normal -8.320503e-001 -5.547002e-001 0.000000e+000
      outer loop
         vertex 4.820907e-003 3.076864e-002 1.057453e-001
         vertex 6.495190e-003 2.825721e-002 1.037500e-001
         vertex 1.000000e-002 2.300000e-002 2.000000e-001
      endloop
   endfacet
   facet normal -8.320503e-001 -5.547002e-001 0.000000e+000
      outer loop
         vertex 1.000000e-002 2.300000e-002 2.000000e-001
         vertex 6.495190e-003 2.825721e-002 1.037500e-001
         vertex 7.047695e-003 2.742846e-002 1.025652e-001
      endloop
   endfacet
   facet normal -8.320503e-001 -5.547002e-001 0.000000e+000
      outer loop
         vertex 7.047695e-003 2.742846e-002 1.025652e-001
         vertex 7.386058e-003 2.692091e-002 1.013024e-001
         vertex 1.000000e-002 2.300000e-002 2.000000e-001
      endloop
   endfacet
   facet normal -8.320503e-001 -5.547002e-001 0.000000e+000
      outer loop
         vertex 1.000000e-002 2.300000e-002 2.000000e-001
         vertex 7.386058e-003 2.692091e-002 1.013024e-001
         vertex 7.500000e-003 2.675000e-002 1.000000e-001
      endloop
   endfacet
   facet normal -8.320503e-001 -5.547002e-001 0.000000e+000
      outer loop
         vertex 1.000000e-002 2.300000e-002 2.000000e-001
         vertex 7.500000e-003 2.675000e-002 1.000000e-001
         vertex 1.000000e-002 2.300000e-002 0.000000e+000
      endloop
   endfacet
   facet normal -8.320503e-001 -5.547002e-001 0.000000e+000
      outer loop
         vertex 1.000000e-002 2.300000e-002 0.000000e+000
         vertex 7.500000e-003 2.675000e-002 1.000000e-001
         vertex 7.386058e-003 2.692091e-002 9.869764e-002
      endloop
   endfacet
   facet normal -8.320503e-001 -5.547002e-001 0.000000e+000
      outer loop
         vertex 1.000000e-002 2.300000e-002 0.000000e+000
         vertex 7.386058e-003 2.692091e-002 9.869764e-002
         vertex 0.000000e+000 3.800000e-002 0.000000e+000
      endloop
   endfacet
   facet normal -8.320503e-001 -5.547002e-001 0.000000e+000
      outer loop
         vertex 0.000000e+000 3.800000e-002 0.000000e+000
         vertex 7.386058e-003 2.692091e-002 9.869764e-002
         vertex 7.047695e-003 2.742846e-002 9.743485e-002
      endloop
   endfacet
   facet normal -8.320503e-001 -5.547002e-001 0.000000e+000
      outer loop
         vertex 0.000000e+000 3.800000e-002 0.000000e+000
         vertex 7.047695e-003 2.742846e-002 9.743485e-002
         vertex 6.495190e-003 2.825721e-002 9.625000e-002
      endloop
   endfacet
   facet normal -8.320503e-001 -5.547002e-001 0.000000e+000
      outer loop
         vertex 6.495190e-003 2.825721e-002 9.625000e-002
         vertex 4.820907e-003 3.076864e-002 9.425467e-002
         vertex 0.000000e+000 3.800000e-002 0.000000e+000
      endloop
   endfacet
   facet normal -8.320503e-001 -5.547002e-001 0.000000e+000
      outer loop
         vertex 0.000000e+000 3.800000e-002 0.000000e+000
         vertex 4.820907e-003 3.076864e-002 9.425467e-002
         vertex 2.565151e-003 3.415227e-002 9.295230e-002
      endloop
   endfacet
   facet normal -8.320503e-001 -5.547002e-001 0.000000e+000
      outer loop
         vertex 0.000000e+000 3.800000e-002 0.000000e+000
         vertex 2.565151e-003 3.415227e-002 9.295230e-002
         vertex -9.668117e-018 3.800000e-002 9.250000e-002
      endloop
   endfacet
   facet normal -8.320503e-001 -5.547002e-001 0.000000e+000
      outer loop
         vertex 0.000000e+000 3.800000e-002 2.000000e-001
         vertex 1.377728e-018 3.800000e-002 1.075000e-001
         vertex 1.000000e-002 2.300000e-002 2.000000e-001
      endloop
   endfacet
   facet normal -8.320503e-001 -5.547002e-001 0.000000e+000
      outer loop
         vertex 1.000000e-002 2.300000e-002 2.000000e-001
         vertex 1.377728e-018 3.800000e-002 1.075000e-001
         vertex 2.565151e-003 3.415227e-002 1.070477e-001
      endloop
   endfacet
   facet normal -8.320503e-001 -5.547002e-001 0.000000e+000
      outer loop
         vertex 1.000000e-002 2.300000e-002 2.000000e-001
         vertex 2.565151e-003 3.415227e-002 1.070477e-001
         vertex 4.820907e-003 3.076864e-002 1.057453e-001
      endloop
   endfacet
   facet normal -1.000000e+000 2.262683e-016 0.000000e+000
      outer loop
         vertex 1.000000e-002 -2.300000e-002 2.000000e-001
         vertex 1.000000e-002 2.300000e-002 2.000000e-001
         vertex 1.000000e-002 -2.300000e-002 0.000000e+000
      endloop
   endfacet
   facet normal -1.000000e+000 2.262683e-016 0.000000e+000
      outer loop
         vertex 1.000000e-002 -2.300000e-002 0.000000e+000
         vertex 1.000000e-002 2.300000e-002 2.000000e-001
         vertex 1.000000e-002 2.300000e-002 0.000000e+000
      endloop
   endfacet
   facet normal -8.320503e-001 5.547002e-001 0.000000e+000
      outer loop
         vertex 0.000000e+000 -3.800000e-002 2.000000e-001
         vertex 1.000000e-002 -2.300000e-002 2.000000e-001
         vertex 0.000000e+000 -3.800000e-002 0.000000e+000
      endloop
   endfacet
   facet normal -8.320503e-001 5.547002e-001 0.000000e+000
      outer loop
         vertex 0.000000e+000 -3.800000e-002 0.000000e+000
         vertex 1.000000e-002 -2.300000e-002 2.000000e-001
         vertex 1.000000e-002 -2.300000e-002 0.000000e+000
      endloop
   endfacet
   facet normal 1.000000e+000 0.000000e+000 0.000000e+000
      outer loop
         vertex 1.800000e-002 -3.469447e-018 2.000000e-001
         vertex 1.800000e-002 -7.500000e-002 2.000000e-001
         vertex 1.800000e-002 -3.469447e-018 0.000000e+000
      endloop
   endfacet
   facet normal 1.000000e+000 0.000000e+000 0.000000e+000
      outer loop
         vertex 1.800000e-002 -3.469447e-018 0.000000e+000
         vertex 1.800000e-002 -7.500000e-002 2.000000e-001
         vertex 1.800000e-002 -7.500000e-002 0.000000e+000
      endloop
   endfacet
   facet normal 9.954385e-001 -9.540652e-002 0.000000e+000
      outer loop
         vertex 1.800000e-002 -3.469447e-018 2.000000e-001
         vertex 1.800000e-002 -3.469447e-018 0.000000e+000
         vertex 1.849267e-002 3.403154e-003 2.000000e-001
      endloop
   endfacet
   facet normal 9.816264e-001 -1.908130e-001 0.000000e+000
      outer loop
         vertex 1.849267e-002 3.403154e-003 2.000000e-001
         vertex 1.800000e-002 -3.469447e-018 0.000000e+000
         vertex 1.849267e-002 3.403154e-003 0.000000e+000
      endloop
   endfacet
   facet normal 9.275125e-001 -3.737921e-001 0.000000e+000
      outer loop
         vertex 1.849267e-002 3.403154e-003 2.000000e-001
         vertex 1.849267e-002 3.403154e-003 0.000000e+000
         vertex 1.993024e-002 6.526867e-003 2.000000e-001
      endloop
   endfacet
   facet normal 8.872107e-001 -4.613645e-001 0.000000e+000
      outer loop
         vertex 1.993024e-002 6.526867e-003 2.000000e-001
         vertex 1.849267e-002 3.403154e-003 0.000000e+000
         vertex 1.993024e-002 6.526867e-003 0.000000e+000
      endloop
   endfacet
   facet normal 7.834264e-001 -6.214846e-001 0.000000e+000
      outer loop
         vertex 1.993024e-002 6.526867e-003 2.000000e-001
         vertex 1.993024e-002 6.526867e-003 0.000000e+000
         vertex 2.219466e-002 9.114644e-003 2.000000e-001
      endloop
   endfacet
   facet normal 7.199439e-001 -6.940322e-001 0.000000e+000
      outer loop
         vertex 2.219466e-002 9.114644e-003 2.000000e-001
         vertex 1.993024e-002 6.526867e-003 0.000000e+000
         vertex 2.219466e-002 9.114644e-003 0.000000e+000
      endloop
   endfacet
   facet normal 5.750112e-001 -8.181456e-001 0.000000e+000
      outer loop
         vertex 2.219466e-002 9.114644e-003 2.000000e-001
         vertex 2.219466e-002 9.114644e-003 0.000000e+000
         vertex 2.510000e-002 1.095399e-002 2.000000e-001
      endloop
   endfacet
   facet normal 4.935609e-001 -8.697113e-001 0.000000e+000
      outer loop
         vertex 2.510000e-002 1.095399e-002 2.000000e-001
         vertex 2.219466e-002 9.114644e-003 0.000000e+000
         vertex 2.510000e-002 1.095399e-002 0.000000e+000
      endloop
   endfacet
   facet normal 8.660254e-001 -5.000000e-001 0.000000e+000
      outer loop
         vertex 1.250000e-001 1.839859e-001 2.000000e-001
         vertex 2.510000e-002 1.095399e-002 2.000000e-001
         vertex 1.250000e-001 1.839859e-001 0.000000e+000
      endloop
   endfacet
   facet normal 8.660254e-001 -5.000000e-001 0.000000e+000
      outer loop
         vertex 1.250000e-001 1.839859e-001 0.000000e+000
         vertex 2.510000e-002 1.095399e-002 2.000000e-001
         vertex 2.510000e-002 1.095399e-002 0.000000e+000
      endloop
   endfacet
   facet normal 1.000000e+000 0.000000e+000 0.000000e+000
      outer loop
         vertex 1.250000e-001 5.970184e-001 2.000000e-001
         vertex 1.250000e-001 1.839859e-001 2.000000e-001
         vertex 1.250000e-001 5.970184e-001 0.000000e+000
      endloop
   endfacet
   facet normal 1.000000e+000 0.000000e+000 0.000000e+000
      outer loop
         vertex 1.250000e-001 5.970184e-001 0.000000e+000
         vertex 1.250000e-001 1.839859e-001 2.000000e-001
         vertex 1.250000e-001 1.839859e-001 0.000000e+000
      endloop
   endfacet
   facet normal 1.000000e+000 0.000000e+000 3.469447e-017
      outer loop
         vertex 3.600000e-002 6.070184e-001 0.000000e+000
         vertex 3.600000e-002 6.070184e-001 2.000000e-001
         vertex 3.600000e-002 5.970184e-001 0.000000e+000
      endloop
   endfacet
   facet normal 1.000000e+000 0.000000e+000 3.469447e-017
      outer loop
         vertex 3.600000e-002 5.970184e-001 0.000000e+000
         vertex 3.600000e-002 6.070184e-001 2.000000e-001
         vertex 3.600000e-002 5.970184e-001 2.000000e-001
      endloop
   endfacet
   facet normal -3.148532e-001 -7.118931e-001 6.277544e-001
      outer loop
         vertex 1.710101e-003 7.200000e-002 9.530154e-002
         vertex 2.565151e-003 6.950000e-002 9.295230e-002
         vertex 3.213938e-003 7.200000e-002 9.616978e-002
      endloop
   endfacet
   facet normal -3.862247e-001 -7.118931e-001 5.865481e-001
      outer loop
         vertex 3.213938e-003 7.200000e-002 9.616978e-002
         vertex 2.565151e-003 6.950000e-002 9.295230e-002
         vertex 4.820907e-003 6.950000e-002 9.425467e-002
      endloop
   endfacet
   facet normal -5.105699e-001 -7.118931e-001 4.822101e-001
      outer loop
         vertex 3.213938e-003 7.200000e-002 9.616978e-002
         vertex 4.820907e-003 6.950000e-002 9.425467e-002
         vertex 4.330127e-003 7.200000e-002 9.750000e-002
      endloop
   endfacet
   facet normal -5.635437e-001 -7.118931e-001 4.190783e-001
      outer loop
         vertex 4.330127e-003 7.200000e-002 9.750000e-002
         vertex 4.820907e-003 6.950000e-002 9.425467e-002
         vertex 6.495190e-003 6.950000e-002 9.625000e-002
      endloop
   endfacet
   facet normal -6.447043e-001 -7.118931e-001 2.785040e-001
      outer loop
         vertex 4.330127e-003 7.200000e-002 9.750000e-002
         vertex 6.495190e-003 6.950000e-002 9.625000e-002
         vertex 4.924039e-003 7.200000e-002 9.913176e-002
      endloop
   endfacet
   facet normal -6.728911e-001 -7.118931e-001 2.010615e-001
      outer loop
         vertex 4.924039e-003 7.200000e-002 9.913176e-002
         vertex 6.495190e-003 6.950000e-002 9.625000e-002
         vertex 7.386058e-003 6.950000e-002 9.869764e-002
      endloop
   endfacet
   facet normal -7.010779e-001 -7.118931e-001 4.120632e-002
      outer loop
         vertex 4.924039e-003 7.200000e-002 9.913176e-002
         vertex 7.386058e-003 6.950000e-002 9.869764e-002
         vertex 4.924039e-003 7.200000e-002 1.008682e-001
      endloop
   endfacet
   facet normal -7.010779e-001 -7.118931e-001 -4.120632e-002
      outer loop
         vertex 4.924039e-003 7.200000e-002 1.008682e-001
         vertex 7.386058e-003 6.950000e-002 9.869764e-002
         vertex 7.386058e-003 6.950000e-002 1.013024e-001
      endloop
   endfacet
   facet normal -6.728911e-001 -7.118931e-001 -2.010615e-001
      outer loop
         vertex 4.924039e-003 7.200000e-002 1.008682e-001
         vertex 7.386058e-003 6.950000e-002 1.013024e-001
         vertex 4.330127e-003 7.200000e-002 1.025000e-001
      endloop
   endfacet
   facet normal -6.447043e-001 -7.118931e-001 -2.785040e-001
      outer loop
         vertex 4.330127e-003 7.200000e-002 1.025000e-001
         vertex 7.386058e-003 6.950000e-002 1.013024e-001
         vertex 6.495190e-003 6.950000e-002 1.037500e-001
      endloop
   endfacet
   facet normal -5.635437e-001 -7.118931e-001 -4.190783e-001
      outer loop
         vertex 4.330127e-003 7.200000e-002 1.025000e-001
         vertex 6.495190e-003 6.950000e-002 1.037500e-001
         vertex 3.213938e-003 7.200000e-002 1.038302e-001
      endloop
   endfacet
   facet normal -5.105699e-001 -7.118931e-001 -4.822101e-001
      outer loop
         vertex 3.213938e-003 7.200000e-002 1.038302e-001
         vertex 6.495190e-003 6.950000e-002 1.037500e-001
         vertex 4.820907e-003 6.950000e-002 1.057453e-001
      endloop
   endfacet
   facet normal -3.862247e-001 -7.118931e-001 -5.865481e-001
      outer loop
         vertex 3.213938e-003 7.200000e-002 1.038302e-001
         vertex 4.820907e-003 6.950000e-002 1.057453e-001
         vertex 1.710101e-003 7.200000e-002 1.046985e-001
      endloop
   endfacet
   facet normal -3.148532e-001 -7.118931e-001 -6.277544e-001
      outer loop
         vertex 1.710101e-003 7.200000e-002 1.046985e-001
         vertex 4.820907e-003 6.950000e-002 1.057453e-001
         vertex 2.565151e-003 6.950000e-002 1.070477e-001
      endloop
   endfacet
   facet normal -1.623212e-001 -7.118931e-001 -6.832716e-001
      outer loop
         vertex 1.710101e-003 7.200000e-002 1.046985e-001
         vertex 2.565151e-003 6.950000e-002 1.070477e-001
         vertex 1.942890e-018 7.200000e-002 1.050000e-001
      endloop
   endfacet
   facet normal -8.116059e-002 -7.118931e-001 -6.975824e-001
      outer loop
         vertex 1.942890e-018 7.200000e-002 1.050000e-001
         vertex 2.565151e-003 6.950000e-002 1.070477e-001
         vertex 2.914335e-018 6.950000e-002 1.075000e-001
      endloop
   endfacet
   facet normal 8.116059e-002 -7.118931e-001 -6.975824e-001
      outer loop
         vertex 1.942890e-018 7.200000e-002 1.050000e-001
         vertex 2.914335e-018 6.950000e-002 1.075000e-001
         vertex -1.710101e-003 7.200000e-002 1.046985e-001
      endloop
   endfacet
   facet normal 1.623212e-001 -7.118931e-001 -6.832716e-001
      outer loop
         vertex -1.710101e-003 7.200000e-002 1.046985e-001
         vertex 2.914335e-018 6.950000e-002 1.075000e-001
         vertex -2.565151e-003 6.950000e-002 1.070477e-001
      endloop
   endfacet
   facet normal 3.148532e-001 -7.118931e-001 -6.277544e-001
      outer loop
         vertex -1.710101e-003 7.200000e-002 1.046985e-001
         vertex -2.565151e-003 6.950000e-002 1.070477e-001
         vertex -3.213938e-003 7.200000e-002 1.038302e-001
      endloop
   endfacet
   facet normal 3.862247e-001 -7.118931e-001 -5.865481e-001
      outer loop
         vertex -3.213938e-003 7.200000e-002 1.038302e-001
         vertex -2.565151e-003 6.950000e-002 1.070477e-001
         vertex -4.820907e-003 6.950000e-002 1.057453e-001
      endloop
   endfacet
   facet normal 5.105699e-001 -7.118931e-001 -4.822101e-001
      outer loop
         vertex -3.213938e-003 7.200000e-002 1.038302e-001
         vertex -4.820907e-003 6.950000e-002 1.057453e-001
         vertex -4.330127e-003 7.200000e-002 1.025000e-001
      endloop
   endfacet
   facet normal 5.635437e-001 -7.118931e-001 -4.190783e-001
      outer loop
         vertex -4.330127e-003 7.200000e-002 1.025000e-001
         vertex -4.820907e-003 6.950000e-002 1.057453e-001
         vertex -6.495190e-003 6.950000e-002 1.037500e-001
      endloop
   endfacet
   facet normal 6.447043e-001 -7.118931e-001 -2.785040e-001
      outer loop
         vertex -4.330127e-003 7.200000e-002 1.025000e-001
         vertex -6.495190e-003 6.950000e-002 1.037500e-001
         vertex -4.924039e-003 7.200000e-002 1.008682e-001
      endloop
   endfacet
   facet normal 6.728911e-001 -7.118931e-001 -2.010615e-001
      outer loop
         vertex -4.924039e-003 7.200000e-002 1.008682e-001
         vertex -6.495190e-003 6.950000e-002 1.037500e-001
         vertex -7.386058e-003 6.950000e-002 1.013024e-001
      endloop
   endfacet
   facet normal 7.010779e-001 -7.118931e-001 -4.120632e-002
      outer loop
         vertex -4.924039e-003 7.200000e-002 1.008682e-001
         vertex -7.386058e-003 6.950000e-002 1.013024e-001
         vertex -4.924039e-003 7.200000e-002 9.913176e-002
      endloop
   endfacet
   facet normal 7.010779e-001 -7.118931e-001 4.120632e-002
      outer loop
         vertex -4.924039e-003 7.200000e-002 9.913176e-002
         vertex -7.386058e-003 6.950000e-002 1.013024e-001
         vertex -7.386058e-003 6.950000e-002 9.869764e-002
      endloop
   endfacet
   facet normal 6.728911e-001 -7.118931e-001 2.010615e-001
      outer loop
         vertex -4.924039e-003 7.200000e-002 9.913176e-002
         vertex -7.386058e-003 6.950000e-002 9.869764e-002
         vertex -4.330127e-003 7.200000e-002 9.750000e-002
      endloop
   endfacet
   facet normal 6.447043e-001 -7.118931e-001 2.785040e-001
      outer loop
         vertex -4.330127e-003 7.200000e-002 9.750000e-002
         vertex -7.386058e-003 6.950000e-002 9.869764e-002
         vertex -6.495190e-003 6.950000e-002 9.625000e-002
      endloop
   endfacet
   facet normal 5.635437e-001 -7.118931e-001 4.190783e-001
      outer loop
         vertex -4.330127e-003 7.200000e-002 9.750000e-002
         vertex -6.495190e-003 6.950000e-002 9.625000e-002
         vertex -3.213938e-003 7.200000e-002 9.616978e-002
      endloop
   endfacet
   facet normal 5.105699e-001 -7.118931e-001 4.822101e-001
      outer loop
         vertex -3.213938e-003 7.200000e-002 9.616978e-002
         vertex -6.495190e-003 6.950000e-002 9.625000e-002
         vertex -4.820907e-003 6.950000e-002 9.425467e-002
      endloop
   endfacet
   facet normal 3.862247e-001 -7.118931e-001 5.865481e-001
      outer loop
         vertex -3.213938e-003 7.200000e-002 9.616978e-002
         vertex -4.820907e-003 6.950000e-002 9.425467e-002
         vertex -1.710101e-003 7.200000e-002 9.530154e-002
      endloop
   endfacet
   facet normal 3.148532e-001 -7.118931e-001 6.277544e-001
      outer loop
         vertex -1.710101e-003 7.200000e-002 9.530154e-002
         vertex -4.820907e-003 6.950000e-002 9.425467e-002
         vertex -2.565151e-003 6.950000e-002 9.295230e-002
      endloop
   endfacet
   facet normal 1.623212e-001 -7.118931e-001 6.832716e-001
      outer loop
         vertex -1.710101e-003 7.200000e-002 9.530154e-002
         vertex -2.565151e-003 6.950000e-002 9.295230e-002
         vertex 0.000000e+000 7.200000e-002 9.500000e-002
      endloop
   endfacet
   facet normal 8.116059e-002 -7.118931e-001 6.975824e-001
      outer loop
         vertex 0.000000e+000 7.200000e-002 9.500000e-002
         vertex -2.565151e-003 6.950000e-002 9.295230e-002
         vertex -1.836970e-018 6.950000e-002 9.250000e-002
      endloop
   endfacet
   facet normal -8.116059e-002 -7.118931e-001 6.975824e-001
      outer loop
         vertex 0.000000e+000 7.200000e-002 9.500000e-002
         vertex -1.836970e-018 6.950000e-002 9.250000e-002
         vertex 1.710101e-003 7.200000e-002 9.530154e-002
      endloop
   endfacet
   facet normal -1.623212e-001 -7.118931e-001 6.832716e-001
      outer loop
         vertex 1.710101e-003 7.200000e-002 9.530154e-002
         vertex -1.836970e-018 6.950000e-002 9.250000e-002
         vertex 2.565151e-003 6.950000e-002 9.295230e-002
      endloop
   endfacet
   facet normal 9.396926e-001 0.000000e+000 3.420202e-001
      outer loop
         vertex -6.495190e-003 6.950000e-002 9.625000e-002
         vertex -7.386058e-003 6.950000e-002 9.869764e-002
         vertex -7.047695e-003 2.742846e-002 9.743485e-002
      endloop
   endfacet
   facet normal 1.000000e+000 0.000000e+000 0.000000e+000
      outer loop
         vertex -7.386058e-003 6.950000e-002 1.013024e-001
         vertex -7.500000e-003 2.675000e-002 1.000000e-001
         vertex -7.386058e-003 6.950000e-002 9.869764e-002
      endloop
   endfacet
   facet normal 9.932307e-001 0.000000e+000 1.161583e-001
      outer loop
         vertex -7.386058e-003 6.950000e-002 9.869764e-002
         vertex -7.500000e-003 2.675000e-002 1.000000e-001
         vertex -7.386058e-003 2.692091e-002 9.869764e-002
      endloop
   endfacet
   facet normal 9.730600e-001 0.000000e+000 2.305519e-001
      outer loop
         vertex -7.386058e-003 6.950000e-002 9.869764e-002
         vertex -7.386058e-003 2.692091e-002 9.869764e-002
         vertex -7.047695e-003 2.742846e-002 9.743485e-002
      endloop
   endfacet
   facet normal 9.396926e-001 0.000000e+000 -3.420202e-001
      outer loop
         vertex -6.495190e-003 2.825721e-002 1.037500e-001
         vertex -7.047695e-003 2.742846e-002 1.025652e-001
         vertex -7.386058e-003 6.950000e-002 1.013024e-001
      endloop
   endfacet
   facet normal 9.730600e-001 0.000000e+000 -2.305519e-001
      outer loop
         vertex -7.386058e-003 6.950000e-002 1.013024e-001
         vertex -7.047695e-003 2.742846e-002 1.025652e-001
         vertex -7.386058e-003 2.692091e-002 1.013024e-001
      endloop
   endfacet
   facet normal 9.932307e-001 0.000000e+000 -1.161583e-001
      outer loop
         vertex -7.386058e-003 6.950000e-002 1.013024e-001
         vertex -7.386058e-003 2.692091e-002 1.013024e-001
         vertex -7.500000e-003 2.675000e-002 1.000000e-001
      endloop
   endfacet
   facet normal -7.270095e-001 0.000000e+000 -6.866274e-001
      outer loop
         vertex 6.495190e-003 6.950000e-002 1.037500e-001
         vertex 4.820907e-003 3.076864e-002 1.057453e-001
         vertex 4.820907e-003 6.950000e-002 1.057453e-001
      endloop
   endfacet
   facet normal -5.499521e-001 0.000000e+000 -8.351962e-001
      outer loop
         vertex 4.820907e-003 6.950000e-002 1.057453e-001
         vertex 4.820907e-003 3.076864e-002 1.057453e-001
         vertex 2.565151e-003 3.415227e-002 1.070477e-001
      endloop
   endfacet
   facet normal -4.483251e-001 0.000000e+000 -8.938706e-001
      outer loop
         vertex 4.820907e-003 6.950000e-002 1.057453e-001
         vertex 2.565151e-003 3.415227e-002 1.070477e-001
         vertex 2.565151e-003 6.950000e-002 1.070477e-001
      endloop
   endfacet
   facet normal -2.311320e-001 0.000000e+000 -9.729224e-001
      outer loop
         vertex 2.565151e-003 6.950000e-002 1.070477e-001
         vertex 2.565151e-003 3.415227e-002 1.070477e-001
         vertex 1.377728e-018 3.800000e-002 1.075000e-001
      endloop
   endfacet
   facet normal -1.155660e-001 0.000000e+000 -9.932998e-001
      outer loop
         vertex 2.565151e-003 6.950000e-002 1.070477e-001
         vertex 1.377728e-018 3.800000e-002 1.075000e-001
         vertex 4.249154e-018 6.950000e-002 1.075000e-001
      endloop
   endfacet
   facet normal 1.155660e-001 0.000000e+000 -9.932998e-001
      outer loop
         vertex 4.249154e-018 6.950000e-002 1.075000e-001
         vertex 1.377728e-018 3.800000e-002 1.075000e-001
         vertex -2.565151e-003 3.415227e-002 1.070477e-001
      endloop
   endfacet
   facet normal 2.311320e-001 0.000000e+000 -9.729224e-001
      outer loop
         vertex 4.249154e-018 6.950000e-002 1.075000e-001
         vertex -2.565151e-003 3.415227e-002 1.070477e-001
         vertex -2.565151e-003 6.950000e-002 1.070477e-001
      endloop
   endfacet
   facet normal 4.483251e-001 0.000000e+000 -8.938706e-001
      outer loop
         vertex -2.565151e-003 6.950000e-002 1.070477e-001
         vertex -2.565151e-003 3.415227e-002 1.070477e-001
         vertex -4.820907e-003 3.076864e-002 1.057453e-001
      endloop
   endfacet
   facet normal 5.499521e-001 0.000000e+000 -8.351962e-001
      outer loop
         vertex -2.565151e-003 6.950000e-002 1.070477e-001
         vertex -4.820907e-003 3.076864e-002 1.057453e-001
         vertex -4.820907e-003 6.950000e-002 1.057453e-001
      endloop
   endfacet
   facet normal 7.270095e-001 0.000000e+000 -6.866274e-001
      outer loop
         vertex -4.820907e-003 6.950000e-002 1.057453e-001
         vertex -4.820907e-003 3.076864e-002 1.057453e-001
         vertex -6.495190e-003 2.825721e-002 1.037500e-001
      endloop
   endfacet
   facet normal 8.024399e-001 0.000000e+000 -5.967330e-001
      outer loop
         vertex -4.820907e-003 6.950000e-002 1.057453e-001
         vertex -6.495190e-003 2.825721e-002 1.037500e-001
         vertex -6.495190e-003 6.950000e-002 1.037500e-001
      endloop
   endfacet
   facet normal 9.180059e-001 0.000000e+000 -3.965668e-001
      outer loop
         vertex -6.495190e-003 6.950000e-002 1.037500e-001
         vertex -6.495190e-003 2.825721e-002 1.037500e-001
         vertex -7.386058e-003 6.950000e-002 1.013024e-001
      endloop
   endfacet
   facet normal -9.396926e-001 0.000000e+000 -3.420202e-001
      outer loop
         vertex 7.386058e-003 6.950000e-002 1.013024e-001
         vertex 7.047695e-003 2.742846e-002 1.025652e-001
         vertex 6.495190e-003 6.950000e-002 1.037500e-001
      endloop
   endfacet
   facet normal -8.936031e-001 0.000000e+000 -4.488580e-001
      outer loop
         vertex 6.495190e-003 6.950000e-002 1.037500e-001
         vertex 7.047695e-003 2.742846e-002 1.025652e-001
         vertex 6.495190e-003 2.825721e-002 1.037500e-001
      endloop
   endfacet
   facet normal -8.024399e-001 0.000000e+000 -5.967330e-001
      outer loop
         vertex 6.495190e-003 6.950000e-002 1.037500e-001
         vertex 6.495190e-003 2.825721e-002 1.037500e-001
         vertex 4.820907e-003 3.076864e-002 1.057453e-001
      endloop
   endfacet
   facet normal -1.000000e+000 0.000000e+000 0.000000e+000
      outer loop
         vertex 7.386058e-003 6.950000e-002 9.869764e-002
         vertex 7.500000e-003 2.675000e-002 1.000000e-001
         vertex 7.386058e-003 6.950000e-002 1.013024e-001
      endloop
   endfacet
   facet normal -9.932307e-001 0.000000e+000 -1.161583e-001
      outer loop
         vertex 7.386058e-003 6.950000e-002 1.013024e-001
         vertex 7.500000e-003 2.675000e-002 1.000000e-001
         vertex 7.386058e-003 2.692091e-002 1.013024e-001
      endloop
   endfacet
   facet normal -9.730600e-001 0.000000e+000 -2.305519e-001
      outer loop
         vertex 7.386058e-003 6.950000e-002 1.013024e-001
         vertex 7.386058e-003 2.692091e-002 1.013024e-001
         vertex 7.047695e-003 2.742846e-002 1.025652e-001
      endloop
   endfacet
   facet normal -9.396926e-001 0.000000e+000 3.420202e-001
      outer loop
         vertex 6.495190e-003 2.825721e-002 9.625000e-002
         vertex 7.047695e-003 2.742846e-002 9.743485e-002
         vertex 7.386058e-003 6.950000e-002 9.869764e-002
      endloop
   endfacet
   facet normal -9.730600e-001 0.000000e+000 2.305519e-001
      outer loop
         vertex 7.386058e-003 6.950000e-002 9.869764e-002
         vertex 7.047695e-003 2.742846e-002 9.743485e-002
         vertex 7.386058e-003 2.692091e-002 9.869764e-002
      endloop
   endfacet
   facet normal -9.932307e-001 0.000000e+000 1.161583e-001
      outer loop
         vertex 7.386058e-003 6.950000e-002 9.869764e-002
         vertex 7.386058e-003 2.692091e-002 9.869764e-002
         vertex 7.500000e-003 2.675000e-002 1.000000e-001
      endloop
   endfacet
   facet normal 8.936031e-001 0.000000e+000 4.488580e-001
      outer loop
         vertex -7.047695e-003 2.742846e-002 9.743485e-002
         vertex -6.495190e-003 2.825721e-002 9.625000e-002
         vertex -6.495190e-003 6.950000e-002 9.625000e-002
      endloop
   endfacet
   facet normal 8.024399e-001 0.000000e+000 5.967330e-001
      outer loop
         vertex -6.495190e-003 6.950000e-002 9.625000e-002
         vertex -6.495190e-003 2.825721e-002 9.625000e-002
         vertex -4.820907e-003 3.076864e-002 9.425467e-002
      endloop
   endfacet
   facet normal 7.270095e-001 0.000000e+000 6.866274e-001
      outer loop
         vertex -6.495190e-003 6.950000e-002 9.625000e-002
         vertex -4.820907e-003 3.076864e-002 9.425467e-002
         vertex -4.820907e-003 6.950000e-002 9.425467e-002
      endloop
   endfacet
   facet normal 5.499521e-001 0.000000e+000 8.351962e-001
      outer loop
         vertex -4.820907e-003 6.950000e-002 9.425467e-002
         vertex -4.820907e-003 3.076864e-002 9.425467e-002
         vertex -2.565151e-003 3.415227e-002 9.295230e-002
      endloop
   endfacet
   facet normal 4.483251e-001 0.000000e+000 8.938706e-001
      outer loop
         vertex -4.820907e-003 6.950000e-002 9.425467e-002
         vertex -2.565151e-003 3.415227e-002 9.295230e-002
         vertex -2.565151e-003 6.950000e-002 9.295230e-002
      endloop
   endfacet
   facet normal 2.311320e-001 0.000000e+000 9.729224e-001
      outer loop
         vertex -2.565151e-003 6.950000e-002 9.295230e-002
         vertex -2.565151e-003 3.415227e-002 9.295230e-002
         vertex -9.668117e-018 3.800000e-002 9.250000e-002
      endloop
   endfacet
   facet normal 1.155660e-001 0.000000e+000 9.932998e-001
      outer loop
         vertex -2.565151e-003 6.950000e-002 9.295230e-002
         vertex -9.668117e-018 3.800000e-002 9.250000e-002
         vertex -1.836970e-018 6.950000e-002 9.250000e-002
      endloop
   endfacet
   facet normal -1.155660e-001 0.000000e+000 9.932998e-001
      outer loop
         vertex -1.836970e-018 6.950000e-002 9.250000e-002
         vertex -9.668117e-018 3.800000e-002 9.250000e-002
         vertex 2.565151e-003 3.415227e-002 9.295230e-002
      endloop
   endfacet
   facet normal -2.311320e-001 0.000000e+000 9.729224e-001
      outer loop
         vertex -1.836970e-018 6.950000e-002 9.250000e-002
         vertex 2.565151e-003 3.415227e-002 9.295230e-002
         vertex 2.565151e-003 6.950000e-002 9.295230e-002
      endloop
   endfacet
   facet normal -4.483251e-001 0.000000e+000 8.938706e-001
      outer loop
         vertex 2.565151e-003 6.950000e-002 9.295230e-002
         vertex 2.565151e-003 3.415227e-002 9.295230e-002
         vertex 4.820907e-003 3.076864e-002 9.425467e-002
      endloop
   endfacet
   facet normal -5.499521e-001 0.000000e+000 8.351962e-001
      outer loop
         vertex 2.565151e-003 6.950000e-002 9.295230e-002
         vertex 4.820907e-003 3.076864e-002 9.425467e-002
         vertex 4.820907e-003 6.950000e-002 9.425467e-002
      endloop
   endfacet
   facet normal -7.270095e-001 0.000000e+000 6.866274e-001
      outer loop
         vertex 4.820907e-003 6.950000e-002 9.425467e-002
         vertex 4.820907e-003 3.076864e-002 9.425467e-002
         vertex 6.495190e-003 2.825721e-002 9.625000e-002
      endloop
   endfacet
   facet normal -8.024399e-001 0.000000e+000 5.967330e-001
      outer loop
         vertex 4.820907e-003 6.950000e-002 9.425467e-002
         vertex 6.495190e-003 2.825721e-002 9.625000e-002
         vertex 6.495190e-003 6.950000e-002 9.625000e-002
      endloop
   endfacet
   facet normal -9.180059e-001 0.000000e+000 3.965668e-001
      outer loop
         vertex 6.495190e-003 6.950000e-002 9.625000e-002
         vertex 6.495190e-003 2.825721e-002 9.625000e-002
         vertex 7.386058e-003 6.950000e-002 9.869764e-002
      endloop
   endfacet
   facet normal 0.000000e+000 1.000000e+000 0.000000e+000
      outer loop
         vertex -1.250000e-001 5.970184e-001 0.000000e+000
         vertex -1.250000e-001 5.970184e-001 2.000000e-001
         vertex -3.600000e-002 5.970184e-001 0.000000e+000
      endloop
   endfacet
   facet normal 0.000000e+000 1.000000e+000 0.000000e+000
      outer loop
         vertex -3.600000e-002 5.970184e-001 0.000000e+000
         vertex -1.250000e-001 5.970184e-001 2.000000e-001
         vertex -3.600000e-002 5.970184e-001 2.000000e-001
      endloop
   endfacet
   facet normal -1.000000e+000 0.000000e+000 0.000000e+000
      outer loop
         vertex -1.250000e-001 1.839859e-001 2.000000e-001
         vertex -1.250000e-001 5.970184e-001 2.000000e-001
         vertex -1.250000e-001 1.839859e-001 0.000000e+000
      endloop
   endfacet
   facet normal -1.000000e+000 0.000000e+000 0.000000e+000
      outer loop
         vertex -1.250000e-001 1.839859e-001 0.000000e+000
         vertex -1.250000e-001 5.970184e-001 2.000000e-001
         vertex -1.250000e-001 5.970184e-001 0.000000e+000
      endloop
   endfacet
   facet normal -8.660254e-001 -5.000000e-001 0.000000e+000
      outer loop
         vertex -2.510000e-002 1.095399e-002 2.000000e-001
         vertex -1.250000e-001 1.839859e-001 2.000000e-001
         vertex -2.510000e-002 1.095399e-002 0.000000e+000
      endloop
   endfacet
   facet normal -8.660254e-001 -5.000000e-001 0.000000e+000
      outer loop
         vertex -2.510000e-002 1.095399e-002 0.000000e+000
         vertex -1.250000e-001 1.839859e-001 2.000000e-001
         vertex -1.250000e-001 1.839859e-001 0.000000e+000
      endloop
   endfacet
   facet normal -4.935609e-001 -8.697112e-001 0.000000e+000
      outer loop
         vertex -2.510000e-002 1.095399e-002 2.000000e-001
         vertex -2.510000e-002 1.095399e-002 0.000000e+000
         vertex -2.219466e-002 9.114644e-003 2.000000e-001
      endloop
   endfacet
   facet normal -5.750112e-001 -8.181456e-001 0.000000e+000
      outer loop
         vertex -2.219466e-002 9.114644e-003 2.000000e-001
         vertex -2.510000e-002 1.095399e-002 0.000000e+000
         vertex -2.219466e-002 9.114644e-003 0.000000e+000
      endloop
   endfacet
   facet normal -7.199439e-001 -6.940322e-001 0.000000e+000
      outer loop
         vertex -2.219466e-002 9.114644e-003 2.000000e-001
         vertex -2.219466e-002 9.114644e-003 0.000000e+000
         vertex -1.993024e-002 6.526867e-003 2.000000e-001
      endloop
   endfacet
   facet normal -7.834264e-001 -6.214846e-001 0.000000e+000
      outer loop
         vertex -1.993024e-002 6.526867e-003 2.000000e-001
         vertex -2.219466e-002 9.114644e-003 0.000000e+000
         vertex -1.993024e-002 6.526867e-003 0.000000e+000
      endloop
   endfacet
   facet normal -8.872107e-001 -4.613645e-001 0.000000e+000
      outer loop
         vertex -1.993024e-002 6.526867e-003 2.000000e-001
         vertex -1.993024e-002 6.526867e-003 0.000000e+000
         vertex -1.849267e-002 3.403154e-003 2.000000e-001
      endloop
   endfacet
   facet normal -9.275125e-001 -3.737920e-001 0.000000e+000
      outer loop
         vertex -1.849267e-002 3.403154e-003 2.000000e-001
         vertex -1.993024e-002 6.526867e-003 0.000000e+000
         vertex -1.849267e-002 3.403154e-003 0.000000e+000
      endloop
   endfacet
   facet normal -9.816264e-001 -1.908130e-001 0.000000e+000
      outer loop
         vertex -1.849267e-002 3.403154e-003 2.000000e-001
         vertex -1.849267e-002 3.403154e-003 0.000000e+000
         vertex -1.800000e-002 -3.469447e-018 2.000000e-001
      endloop
   endfacet
   facet normal -9.954385e-001 -9.540652e-002 0.000000e+000
      outer loop
         vertex -1.800000e-002 -3.469447e-018 2.000000e-001
         vertex -1.849267e-002 3.403154e-003 0.000000e+000
         vertex -1.800000e-002 -3.469447e-018 0.000000e+000
      endloop
   endfacet
   facet normal -1.000000e+000 0.000000e+000 0.000000e+000
      outer loop
         vertex -1.800000e-002 -7.500000e-002 2.000000e-001
         vertex -1.800000e-002 -3.469447e-018 2.000000e-001
         vertex -1.800000e-002 -7.500000e-002 0.000000e+000
      endloop
   endfacet
   facet normal -1.000000e+000 0.000000e+000 0.000000e+000
      outer loop
         vertex -1.800000e-002 -7.500000e-002 0.000000e+000
         vertex -1.800000e-002 -3.469447e-018 2.000000e-001
         vertex -1.800000e-002 -3.469447e-018 0.000000e+000
      endloop
   endfacet
   facet normal 8.320503e-001 5.547002e-001 0.000000e+000
      outer loop
         vertex -1.000000e-002 -2.300000e-002 2.000000e-001
         vertex 0.000000e+000 -3.800000e-002 2.000000e-001
         vertex -1.000000e-002 -2.300000e-002 0.000000e+000
      endloop
   endfacet
   facet normal 8.320503e-001 5.547002e-001 0.000000e+000
      outer loop
         vertex -1.000000e-002 -2.300000e-002 0.000000e+000
         vertex 0.000000e+000 -3.800000e-002 2.000000e-001
         vertex 0.000000e+000 -3.800000e-002 0.000000e+000
      endloop
   endfacet
   facet normal 1.000000e+000 -2.262683e-016 0.000000e+000
      outer loop
         vertex -1.000000e-002 2.300000e-002 2.000000e-001
         vertex -1.000000e-002 -2.300000e-002 2.000000e-001
         vertex -1.000000e-002 2.300000e-002 0.000000e+000
      endloop
   endfacet
   facet normal 1.000000e+000 -2.262683e-016 0.000000e+000
      outer loop
         vertex -1.000000e-002 2.300000e-002 0.000000e+000
         vertex -1.000000e-002 -2.300000e-002 2.000000e-001
         vertex -1.000000e-002 -2.300000e-002 0.000000e+000
      endloop
   endfacet
   facet normal 8.320503e-001 -5.547002e-001 0.000000e+000
      outer loop
         vertex -4.820907e-003 3.076864e-002 9.425467e-002
         vertex -6.495190e-003 2.825721e-002 9.625000e-002
         vertex -1.000000e-002 2.300000e-002 0.000000e+000
      endloop
   endfacet
   facet normal 8.320503e-001 -5.547002e-001 0.000000e+000
      outer loop
         vertex -1.000000e-002 2.300000e-002 0.000000e+000
         vertex -6.495190e-003 2.825721e-002 9.625000e-002
         vertex -7.047695e-003 2.742846e-002 9.743485e-002
      endloop
   endfacet
   facet normal 8.320503e-001 -5.547002e-001 0.000000e+000
      outer loop
         vertex -7.047695e-003 2.742846e-002 9.743485e-002
         vertex -7.386058e-003 2.692091e-002 9.869764e-002
         vertex -1.000000e-002 2.300000e-002 0.000000e+000
      endloop
   endfacet
   facet normal 8.320503e-001 -5.547002e-001 0.000000e+000
      outer loop
         vertex -1.000000e-002 2.300000e-002 0.000000e+000
         vertex -7.386058e-003 2.692091e-002 9.869764e-002
         vertex -7.500000e-003 2.675000e-002 1.000000e-001
      endloop
   endfacet
   facet normal 8.320503e-001 -5.547002e-001 0.000000e+000
      outer loop
         vertex -1.000000e-002 2.300000e-002 0.000000e+000
         vertex -7.500000e-003 2.675000e-002 1.000000e-001
         vertex -1.000000e-002 2.300000e-002 2.000000e-001
      endloop
   endfacet
   facet normal 8.320503e-001 -5.547002e-001 0.000000e+000
      outer loop
         vertex -1.000000e-002 2.300000e-002 2.000000e-001
         vertex -7.500000e-003 2.675000e-002 1.000000e-001
         vertex -7.386058e-003 2.692091e-002 1.013024e-001
      endloop
   endfacet
   facet normal 8.320503e-001 -5.547002e-001 0.000000e+000
      outer loop
         vertex -1.000000e-002 2.300000e-002 2.000000e-001
         vertex -7.386058e-003 2.692091e-002 1.013024e-001
         vertex 0.000000e+000 3.800000e-002 2.000000e-001
      endloop
   endfacet
   facet normal 8.320503e-001 -5.547002e-001 0.000000e+000
      outer loop
         vertex 0.000000e+000 3.800000e-002 2.000000e-001
         vertex -7.386058e-003 2.692091e-002 1.013024e-001
         vertex -7.047695e-003 2.742846e-002 1.025652e-001
      endloop
   endfacet
   facet normal 8.320503e-001 -5.547002e-001 0.000000e+000
      outer loop
         vertex 0.000000e+000 3.800000e-002 2.000000e-001
         vertex -7.047695e-003 2.742846e-002 1.025652e-001
         vertex -6.495190e-003 2.825721e-002 1.037500e-001
      endloop
   endfacet
   facet normal 8.320503e-001 -5.547002e-001 0.000000e+000
      outer loop
         vertex -6.495190e-003 2.825721e-002 1.037500e-001
         vertex -4.820907e-003 3.076864e-002 1.057453e-001
         vertex 0.000000e+000 3.800000e-002 2.000000e-001
      endloop
   endfacet
   facet normal 8.320503e-001 -5.547002e-001 0.000000e+000
      outer loop
         vertex 0.000000e+000 3.800000e-002 2.000000e-001
         vertex -4.820907e-003 3.076864e-002 1.057453e-001
         vertex -2.565151e-003 3.415227e-002 1.070477e-001
      endloop
   endfacet
   facet normal 8.320503e-001 -5.547002e-001 0.000000e+000
      outer loop
         vertex 0.000000e+000 3.800000e-002 2.000000e-001
         vertex -2.565151e-003 3.415227e-002 1.070477e-001
         vertex 1.377728e-018 3.800000e-002 1.075000e-001
      endloop
   endfacet
   facet normal 8.320503e-001 -5.547002e-001 0.000000e+000
      outer loop
         vertex 0.000000e+000 3.800000e-002 0.000000e+000
         vertex -9.668117e-018 3.800000e-002 9.250000e-002
         vertex -1.000000e-002 2.300000e-002 0.000000e+000
      endloop
   endfacet
   facet normal 8.320503e-001 -5.547002e-001 0.000000e+000
      outer loop
         vertex -1.000000e-002 2.300000e-002 0.000000e+000
         vertex -9.668117e-018 3.800000e-002 9.250000e-002
         vertex -2.565151e-003 3.415227e-002 9.295230e-002
      endloop
   endfacet
   facet normal 8.320503e-001 -5.547002e-001 0.000000e+000
      outer loop
         vertex -1.000000e-002 2.300000e-002 0.000000e+000
         vertex -2.565151e-003 3.415227e-002 9.295230e-002
         vertex -4.820907e-003 3.076864e-002 9.425467e-002
      endloop
   endfacet
   facet normal -1.000000e+000 0.000000e+000 3.469447e-017
      outer loop
         vertex -3.600000e-002 6.070184e-001 2.000000e-001
         vertex -3.600000e-002 6.070184e-001 0.000000e+000
         vertex -3.600000e-002 5.970184e-001 2.000000e-001
      endloop
   endfacet
   facet normal -1.000000e+000 0.000000e+000 3.469447e-017
      outer loop
         vertex -3.600000e-002 5.970184e-001 2.000000e-001
         vertex -3.600000e-002 6.070184e-001 0.000000e+000
         vertex -3.600000e-002 5.970184e-001 0.000000e+000
      endloop
   endfacet
   facet normal -1.000000e+000 0.000000e+000 0.000000e+000
      outer loop
         vertex 2.375000e-002 1.080000e-001 0.000000e+000
         vertex 2.375000e-002 4.800000e-002 0.000000e+000
         vertex 2.375000e-002 1.080000e-001 2.000000e-001
      endloop
   endfacet
   facet normal -1.000000e+000 0.000000e+000 0.000000e+000
      outer loop
         vertex 2.375000e-002 1.080000e-001 2.000000e-001
         vertex 2.375000e-002 4.800000e-002 0.000000e+000
         vertex 2.375000e-002 4.800000e-002 2.000000e-001
      endloop
   endfacet
   facet normal 0.000000e+000 -1.000000e+000 0.000000e+000
      outer loop
         vertex 2.375000e-002 1.080000e-001 0.000000e+000
         vertex 2.375000e-002 1.080000e-001 2.000000e-001
         vertex 2.125000e-002 1.080000e-001 0.000000e+000
      endloop
   endfacet
   facet normal 0.000000e+000 -1.000000e+000 0.000000e+000
      outer loop
         vertex 2.125000e-002 1.080000e-001 0.000000e+000
         vertex 2.375000e-002 1.080000e-001 2.000000e-001
         vertex 2.125000e-002 1.080000e-001 2.000000e-001
      endloop
   endfacet
   facet normal 1.000000e+000 0.000000e+000 0.000000e+000
      outer loop
         vertex 2.125000e-002 1.080000e-001 0.000000e+000
         vertex 2.125000e-002 1.080000e-001 2.000000e-001
         vertex 2.125000e-002 4.800000e-002 0.000000e+000
      endloop
   endfacet
   facet normal 1.000000e+000 0.000000e+000 0.000000e+000
      outer loop
         vertex 2.125000e-002 4.800000e-002 0.000000e+000
         vertex 2.125000e-002 1.080000e-001 2.000000e-001
         vertex 2.125000e-002 4.800000e-002 2.000000e-001
      endloop
   endfacet
   facet normal 0.000000e+000 1.000000e+000 0.000000e+000
      outer loop
         vertex 2.125000e-002 4.800000e-002 0.000000e+000
         vertex 2.125000e-002 4.800000e-002 2.000000e-001
         vertex 2.375000e-002 4.800000e-002 0.000000e+000
      endloop
   endfacet
   facet normal 0.000000e+000 1.000000e+000 0.000000e+000
      outer loop
         vertex 2.375000e-002 4.800000e-002 0.000000e+000
         vertex 2.125000e-002 4.800000e-002 2.000000e-001
         vertex 2.375000e-002 4.800000e-002 2.000000e-001
      endloop
   endfacet
   facet normal 1.000000e+000 0.000000e+000 0.000000e+000
      outer loop
         vertex -2.375000e-002 1.080000e-001 0.000000e+000
         vertex -2.375000e-002 1.080000e-001 2.000000e-001
         vertex -2.375000e-002 4.800000e-002 0.000000e+000
      endloop
   endfacet
   facet normal 1.000000e+000 0.000000e+000 0.000000e+000
      outer loop
         vertex -2.375000e-002 4.800000e-002 0.000000e+000
         vertex -2.375000e-002 1.080000e-001 2.000000e-001
         vertex -2.375000e-002 4.800000e-002 2.000000e-001
      endloop
   endfacet
   facet normal 0.000000e+000 1.000000e+000 0.000000e+000
      outer loop
         vertex -2.125000e-002 4.800000e-002 0.000000e+000
         vertex -2.375000e-002 4.800000e-002 0.000000e+000
         vertex -2.125000e-002 4.800000e-002 2.000000e-001
      endloop
   endfacet
   facet normal 0.000000e+000 1.000000e+000 0.000000e+000
      outer loop
         vertex -2.125000e-002 4.800000e-002 2.000000e-001
         vertex -2.375000e-002 4.800000e-002 0.000000e+000
         vertex -2.375000e-002 4.800000e-002 2.000000e-001
      endloop
   endfacet
   facet normal -1.000000e+000 0.000000e+000 0.000000e+000
      outer loop
         vertex -2.125000e-002 1.080000e-001 0.000000e+000
         vertex -2.125000e-002 4.800000e-002 0.000000e+000
         vertex -2.125000e-002 1.080000e-001 2.000000e-001
      endloop
   endfacet
   facet normal -1.000000e+000 0.000000e+000 0.000000e+000
      outer loop
         vertex -2.125000e-002 1.080000e-001 2.000000e-001
         vertex -2.125000e-002 4.800000e-002 0.000000e+000
         vertex -2.125000e-002 4.800000e-002 2.000000e-001
      endloop
   endfacet
   facet normal 0.000000e+000 -1.000000e+000 0.000000e+000
      outer loop
         vertex -2.375000e-002 1.080000e-001 0.000000e+000
         vertex -2.125000e-002 1.080000e-001 0.000000e+000
         vertex -2.375000e-002 1.080000e-001 2.000000e-001
      endloop
   endfacet
   facet normal 0.000000e+000 -1.000000e+000 0.000000e+000
      outer loop
         vertex -2.375000e-002 1.080000e-001 2.000000e-001
         vertex -2.125000e-002 1.080000e-001 0.000000e+000
         vertex -2.125000e-002 1.080000e-001 2.000000e-001
      endloop
   endfacet
endsolid casing
solid inlet
   facet normal 0.000000e+000 -1.000000e+000 0.000000e+000
      outer loop
         vertex 1.800000e-002 -7.500000e-002 2.000000e-001
         vertex -1.800000e-002 -7.500000e-002 2.000000e-001
         vertex 1.800000e-002 -7.500000e-002 0.000000e+000
      endloop
   endfacet
   facet normal 0.000000e+000 -1.000000e+000 0.000000e+000
      outer loop
         vertex 1.800000e-002 -7.500000e-002 0.000000e+000
         vertex -1.800000e-002 -7.500000e-002 2.000000e-001
         vertex -1.800000e-002 -7.500000e-002 0.000000e+000
      endloop
   endfacet
endsolid inlet
solid nozzle
   facet normal -1.080788e-001 -8.664373e-001 4.874478e-001
      outer loop
         vertex 0.000000e+000 7.488675e-002 1.000000e-001
         vertex 6.526310e-004 7.200000e-002 9.504277e-002
         vertex 1.294095e-003 7.200000e-002 9.517037e-002
      endloop
   endfacet
   facet normal -4.352942e-002 -8.664373e-001 4.973847e-001
      outer loop
         vertex 0.000000e+000 7.200000e-002 9.500000e-002
         vertex 6.526310e-004 7.200000e-002 9.504277e-002
         vertex 0.000000e+000 7.488675e-002 1.000000e-001
      endloop
   endfacet
   facet normal -2.863899e-001 -8.664373e-001 4.089831e-001
      outer loop
         vertex 0.000000e+000 7.488675e-002 1.000000e-001
         vertex 2.500000e-003 7.200000e-002 9.566987e-002
         vertex 3.043807e-003 7.200000e-002 9.603323e-002
      endloop
   endfacet
   facet normal -2.305568e-001 -8.664373e-001 4.428656e-001
      outer loop
         vertex 1.913417e-003 7.200000e-002 9.538060e-002
         vertex 2.500000e-003 7.200000e-002 9.566987e-002
         vertex 0.000000e+000 7.488675e-002 1.000000e-001
      endloop
   endfacet
   facet normal -1.707788e-001 -8.664373e-001 4.691705e-001
      outer loop
         vertex 1.294095e-003 7.200000e-002 9.517037e-002
         vertex 1.913417e-003 7.200000e-002 9.538060e-002
         vertex 0.000000e+000 7.488675e-002 1.000000e-001
      endloop
   endfacet
   facet normal -4.211009e-001 -8.664373e-001 2.682544e-001
      outer loop
         vertex 0.000000e+000 7.488675e-002 1.000000e-001
         vertex 3.966767e-003 7.200000e-002 9.695619e-002
         vertex 4.330127e-003 7.200000e-002 9.750000e-002
      endloop
   endfacet
   facet normal -3.824841e-001 -8.664373e-001 3.209242e-001
      outer loop
         vertex 3.535534e-003 7.200000e-002 9.646446e-002
         vertex 3.966767e-003 7.200000e-002 9.695619e-002
         vertex 0.000000e+000 7.488675e-002 1.000000e-001
      endloop
   endfacet
   facet normal -3.373229e-001 -8.664373e-001 3.681028e-001
      outer loop
         vertex 3.043807e-003 7.200000e-002 9.603323e-002
         vertex 3.535534e-003 7.200000e-002 9.646446e-002
         vertex 0.000000e+000 7.488675e-002 1.000000e-001
      endloop
   endfacet
   facet normal -4.917030e-001 -8.664373e-001 8.668645e-002
      outer loop
         vertex 0.000000e+000 7.488675e-002 1.000000e-001
         vertex 4.829629e-003 7.200000e-002 9.870590e-002
         vertex 4.957224e-003 7.200000e-002 9.934737e-002
      endloop
   endfacet
   facet normal -4.761815e-001 -8.664373e-001 1.501250e-001
      outer loop
         vertex 4.619398e-003 7.200000e-002 9.808658e-002
         vertex 4.829629e-003 7.200000e-002 9.870590e-002
         vertex 0.000000e+000 7.488675e-002 1.000000e-001
      endloop
   endfacet
   facet normal -4.525125e-001 -8.664373e-001 2.109948e-001
      outer loop
         vertex 4.330127e-003 7.200000e-002 9.750000e-002
         vertex 4.619398e-003 7.200000e-002 9.808658e-002
         vertex 0.000000e+000 7.488675e-002 1.000000e-001
      endloop
   endfacet
   facet normal -4.874478e-001 -8.664373e-001 -1.080788e-001
      outer loop
         vertex 0.000000e+000 7.488675e-002 1.000000e-001
         vertex 4.957224e-003 7.200000e-002 1.006526e-001
         vertex 4.829629e-003 7.200000e-002 1.012941e-001
      endloop
   endfacet
   facet normal -4.973847e-001 -8.664373e-001 -4.352942e-002
      outer loop
         vertex 5.000000e-003 7.200000e-002 1.000000e-001
         vertex 4.957224e-003 7.200000e-002 1.006526e-001
         vertex 0.000000e+000 7.488675e-002 1.000000e-001
      endloop
   endfacet
   facet normal -4.988113e-001 -8.664373e-001 2.176471e-002
      outer loop
         vertex 4.957224e-003 7.200000e-002 9.934737e-002
         vertex 5.000000e-003 7.200000e-002 1.000000e-001
         vertex 0.000000e+000 7.488675e-002 1.000000e-001
      endloop
   endfacet
   facet normal -4.089831e-001 -8.664373e-001 -2.863899e-001
      outer loop
         vertex 0.000000e+000 7.488675e-002 1.000000e-001
         vertex 4.330127e-003 7.200000e-002 1.025000e-001
         vertex 3.966767e-003 7.200000e-002 1.030438e-001
      endloop
   endfacet
   facet normal -4.428656e-001 -8.664373e-001 -2.305568e-001
      outer loop
         vertex 4.619398e-003 7.200000e-002 1.019134e-001
         vertex 4.330127e-003 7.200000e-002 1.025000e-001
         vertex 0.000000e+000 7.488675e-002 1.000000e-001
      endloop
   endfacet
   facet normal -4.691705e-001 -8.664373e-001 -1.707788e-001
      outer loop
         vertex 4.829629e-003 7.200000e-002 1.012941e-001
         vertex 4.619398e-003 7.200000e-002 1.019134e-001
         vertex 0.000000e+000 7.488675e-002 1.000000e-001
      endloop
   endfacet
   facet normal -2.682544e-001 -8.664373e-001 -4.211009e-001
      outer loop
         vertex 0.000000e+000 7.488675e-002 1.000000e-001
         vertex 3.043807e-003 7.200000e-002 1.039668e-001
         vertex 2.500000e-003 7.200000e-002 1.043301e-001
      endloop
   endfacet
   facet normal -3.209242e-001 -8.664373e-001 -3.824841e-001
      outer loop
         vertex 3.535534e-003 7.200000e-002 1.035355e-001
         vertex 3.043807e-003 7.200000e-002 1.039668e-001
         vertex 0.000000e+000 7.488675e-002 1.000000e-001
      endloop
   endfacet
   facet normal -3.681028e-001 -8.664373e-001 -3.373229e-001
      outer loop
         vertex 3.966767e-003 7.200000e-002 1.030438e-001
         vertex 3.535534e-003 7.200000e-002 1.035355e-001
         vertex 0.000000e+000 7.488675e-002 1.000000e-001
      endloop
   endfacet
   facet normal -8.668645e-002 -8.664373e-001 -4.917030e-001
      outer loop
         vertex 0.000000e+000 7.488675e-002 1.000000e-001
         vertex 1.294095e-003 7.200000e-002 1.048296e-001
         vertex 6.526310e-004 7.200000e-002 1.049572e-001
      endloop
   endfacet
   facet normal -1.501250e-001 -8.664373e-001 -4.761815e-001
      outer loop
         vertex 1.913417e-003 7.200000e-002 1.046194e-001
         vertex 1.294095e-003 7.200000e-002 1.048296e-001
         vertex 0.000000e+000 7.488675e-002 1.000000e-001
      endloop
   endfacet
   facet normal -2.109948e-001 -8.664373e-001 -4.525125e-001
      outer loop
         vertex 2.500000e-003 7.200000e-002 1.043301e-001
         vertex 1.913417e-003 7.200000e-002 1.046194e-001
         vertex 0.000000e+000 7.488675e-002 1.000000e-001
      endloop
   endfacet
   facet normal 1.080788e-001 -8.664373e-001 -4.874478e-001
      outer loop
         vertex 0.000000e+000 7.488675e-002 1.000000e-001
         vertex -6.526310e-004 7.200000e-002 1.049572e-001
         vertex -1.294095e-003 7.200000e-002 1.048296e-001
      endloop
   endfacet
   facet normal 4.352942e-002 -8.664373e-001 -4.973847e-001
      outer loop
         vertex 1.110223e-018 7.200000e-002 1.050000e-001
         vertex -6.526310e-004 7.200000e-002 1.049572e-001
         vertex 0.000000e+000 7.488675e-002 1.000000e-001
      endloop
   endfacet
   facet normal -2.176471e-002 -8.664373e-001 -4.988113e-001
      outer loop
         vertex 6.526310e-004 7.200000e-002 1.049572e-001
         vertex 1.110223e-018 7.200000e-002 1.050000e-001
         vertex 0.000000e+000 7.488675e-002 1.000000e-001
      endloop
   endfacet
   facet normal 2.863899e-001 -8.664373e-001 -4.089831e-001
      outer loop
         vertex 0.000000e+000 7.488675e-002 1.000000e-001
         vertex -2.500000e-003 7.200000e-002 1.043301e-001
         vertex -3.043807e-003 7.200000e-002 1.039668e-001
      endloop
   endfacet
   facet normal 2.305568e-001 -8.664373e-001 -4.428656e-001
      outer loop
         vertex -1.913417e-003 7.200000e-002 1.046194e-001
         vertex -2.500000e-003 7.200000e-002 1.043301e-001
         vertex 0.000000e+000 7.488675e-002 1.000000e-001
      endloop
   endfacet
   facet normal 1.707788e-001 -8.664373e-001 -4.691705e-001
      outer loop
         vertex -1.294095e-003 7.200000e-002 1.048296e-001
         vertex -1.913417e-003 7.200000e-002 1.046194e-001
         vertex 0.000000e+000 7.488675e-002 1.000000e-001
      endloop
   endfacet
   facet normal 4.211009e-001 -8.664373e-001 -2.682544e-001
      outer loop
         vertex 0.000000e+000 7.488675e-002 1.000000e-001
         vertex -3.966767e-003 7.200000e-002 1.030438e-001
         vertex -4.330127e-003 7.200000e-002 1.025000e-001
      endloop
   endfacet
   facet normal 3.824841e-001 -8.664373e-001 -3.209242e-001
      outer loop
         vertex -3.535534e-003 7.200000e-002 1.035355e-001
         vertex -3.966767e-003 7.200000e-002 1.030438e-001
         vertex 0.000000e+000 7.488675e-002 1.000000e-001
      endloop
   endfacet
   facet normal 3.373229e-001 -8.664373e-001 -3.681028e-001
      outer loop
         vertex -3.043807e-003 7.200000e-002 1.039668e-001
         vertex -3.535534e-003 7.200000e-002 1.035355e-001
         vertex 0.000000e+000 7.488675e-002 1.000000e-001
      endloop
   endfacet
   facet normal 4.917030e-001 -8.664373e-001 -8.668645e-002
      outer loop
         vertex 0.000000e+000 7.488675e-002 1.000000e-001
         vertex -4.829629e-003 7.200000e-002 1.012941e-001
         vertex -4.957224e-003 7.200000e-002 1.006526e-001
      endloop
   endfacet
   facet normal 4.761815e-001 -8.664373e-001 -1.501250e-001
      outer loop
         vertex -4.619398e-003 7.200000e-002 1.019134e-001
         vertex -4.829629e-003 7.200000e-002 1.012941e-001
         vertex 0.000000e+000 7.488675e-002 1.000000e-001
      endloop
   endfacet
   facet normal 4.525125e-001 -8.664373e-001 -2.109948e-001
      outer loop
         vertex -4.330127e-003 7.200000e-002 1.025000e-001
         vertex -4.619398e-003 7.200000e-002 1.019134e-001
         vertex 0.000000e+000 7.488675e-002 1.000000e-001
      endloop
   endfacet
   facet normal 4.874478e-001 -8.664373e-001 1.080788e-001
      outer loop
         vertex 0.000000e+000 7.488675e-002 1.000000e-001
         vertex -4.957224e-003 7.200000e-002 9.934737e-002
         vertex -4.829629e-003 7.200000e-002 9.870590e-002
      endloop
   endfacet
   facet normal 4.973847e-001 -8.664373e-001 4.352942e-002
      outer loop
         vertex -5.000000e-003 7.200000e-002 1.000000e-001
         vertex -4.957224e-003 7.200000e-002 9.934737e-002
         vertex 0.000000e+000 7.488675e-002 1.000000e-001
      endloop
   endfacet
   facet normal 4.988113e-001 -8.664373e-001 -2.176471e-002
      outer loop
         vertex -4.957224e-003 7.200000e-002 1.006526e-001
         vertex -5.000000e-003 7.200000e-002 1.000000e-001
         vertex 0.000000e+000 7.488675e-002 1.000000e-001
      endloop
   endfacet
   facet normal 4.089831e-001 -8.664373e-001 2.863899e-001
      outer loop
         vertex 0.000000e+000 7.488675e-002 1.000000e-001
         vertex -4.330127e-003 7.200000e-002 9.750000e-002
         vertex -3.966767e-003 7.200000e-002 9.695619e-002
      endloop
   endfacet
   facet normal 4.428656e-001 -8.664373e-001 2.305568e-001
      outer loop
         vertex -4.619398e-003 7.200000e-002 9.808658e-002
         vertex -4.330127e-003 7.200000e-002 9.750000e-002
         vertex 0.000000e+000 7.488675e-002 1.000000e-001
      endloop
   endfacet
   facet normal 4.691705e-001 -8.664373e-001 1.707788e-001
      outer loop
         vertex -4.829629e-003 7.200000e-002 9.870590e-002
         vertex -4.619398e-003 7.200000e-002 9.808658e-002
         vertex 0.000000e+000 7.488675e-002 1.000000e-001
      endloop
   endfacet
   facet normal 2.682544e-001 -8.664373e-001 4.211009e-001
      outer loop
         vertex 0.000000e+000 7.488675e-002 1.000000e-001
         vertex -3.043807e-003 7.200000e-002 9.603323e-002
         vertex -2.500000e-003 7.200000e-002 9.566987e-002
      endloop
   endfacet
   facet normal 3.209242e-001 -8.664373e-001 3.824841e-001
      outer loop
         vertex -3.535534e-003 7.200000e-002 9.646446e-002
         vertex -3.043807e-003 7.200000e-002 9.603323e-002
         vertex 0.000000e+000 7.488675e-002 1.000000e-001
      endloop
   endfacet
   facet normal 3.681028e-001 -8.664373e-001 3.373229e-001
      outer loop
         vertex -3.966767e-003 7.200000e-002 9.695619e-002
         vertex -3.535534e-003 7.200000e-002 9.646446e-002
         vertex 0.000000e+000 7.488675e-002 1.000000e-001
      endloop
   endfacet
   facet normal 8.668645e-002 -8.664373e-001 4.917030e-001
      outer loop
         vertex 0.000000e+000 7.488675e-002 1.000000e-001
         vertex -1.294095e-003 7.200000e-002 9.517037e-002
         vertex -6.526310e-004 7.200000e-002 9.504277e-002
      endloop
   endfacet
   facet normal 1.501250e-001 -8.664373e-001 4.761815e-001
      outer loop
         vertex -1.913417e-003 7.200000e-002 9.538060e-002
         vertex -1.294095e-003 7.200000e-002 9.517037e-002
         vertex 0.000000e+000 7.488675e-002 1.000000e-001
      endloop
   endfacet
   facet normal 2.109948e-001 -8.664373e-001 4.525125e-001
      outer loop
         vertex -2.500000e-003 7.200000e-002 9.566987e-002
         vertex -1.913417e-003 7.200000e-002 9.538060e-002
         vertex 0.000000e+000 7.488675e-002 1.000000e-001
      endloop
   endfacet
   facet normal 2.176471e-002 -8.664373e-001 4.988113e-001
      outer loop
         vertex -6.526310e-004 7.200000e-002 9.504277e-002
         vertex 0.000000e+000 7.200000e-002 9.500000e-002
         vertex 0.000000e+000 7.488675e-002 1.000000e-001
      endloop
   endfacet
endsolid nozzle
solid outlet
   facet normal 0.000000e+000 1.000000e+000 0.000000e+000
      outer loop
         vertex -3.600000e-002 6.070184e-001 2.000000e-001
         vertex 3.600000e-002 6.070184e-001 2.000000e-001
         vertex -3.600000e-002 6.070184e-001 0.000000e+000
      endloop
   endfacet
   facet normal 0.000000e+000 1.000000e+000 0.000000e+000
      outer loop
         vertex -3.600000e-002 6.070184e-001 0.000000e+000
         vertex 3.600000e-002 6.070184e-001 2.000000e-001
         vertex 3.600000e-002 6.070184e-001 0.000000e+000
      endloop
   endfacet
endsolid outlet
