solid nozzle
   facet normal -1.080788e-001 -8.664373e-001 4.874478e-001
      outer loop
         vertex 0.000000e+000 7.488675e-002 1.000000e-001
         vertex 6.526310e-004 7.200000e-002 9.504277e-002
         vertex 1.294095e-003 7.200000e-002 9.517037e-002
      endloop
   endfacet
   facet normal -4.352942e-002 -8.664373e-001 4.973847e-001
      outer loop
         vertex 0.000000e+000 7.200000e-002 9.500000e-002
         vertex 6.526310e-004 7.200000e-002 9.504277e-002
         vertex 0.000000e+000 7.488675e-002 1.000000e-001
      endloop
   endfacet
   facet normal -2.863899e-001 -8.664373e-001 4.089831e-001
      outer loop
         vertex 0.000000e+000 7.488675e-002 1.000000e-001
         vertex 2.500000e-003 7.200000e-002 9.566987e-002
         vertex 3.043807e-003 7.200000e-002 9.603323e-002
      endloop
   endfacet
   facet normal -2.305568e-001 -8.664373e-001 4.428656e-001
      outer loop
         vertex 1.913417e-003 7.200000e-002 9.538060e-002
         vertex 2.500000e-003 7.200000e-002 9.566987e-002
         vertex 0.000000e+000 7.488675e-002 1.000000e-001
      endloop
   endfacet
   facet normal -1.707788e-001 -8.664373e-001 4.691705e-001
      outer loop
         vertex 1.294095e-003 7.200000e-002 9.517037e-002
         vertex 1.913417e-003 7.200000e-002 9.538060e-002
         vertex 0.000000e+000 7.488675e-002 1.000000e-001
      endloop
   endfacet
   facet normal -4.211009e-001 -8.664373e-001 2.682544e-001
      outer loop
         vertex 0.000000e+000 7.488675e-002 1.000000e-001
         vertex 3.966767e-003 7.200000e-002 9.695619e-002
         vertex 4.330127e-003 7.200000e-002 9.750000e-002
      endloop
   endfacet
   facet normal -3.824841e-001 -8.664373e-001 3.209242e-001
      outer loop
         vertex 3.535534e-003 7.200000e-002 9.646446e-002
         vertex 3.966767e-003 7.200000e-002 9.695619e-002
         vertex 0.000000e+000 7.488675e-002 1.000000e-001
      endloop
   endfacet
   facet normal -3.373229e-001 -8.664373e-001 3.681028e-001
      outer loop
         vertex 3.043807e-003 7.200000e-002 9.603323e-002
         vertex 3.535534e-003 7.200000e-002 9.646446e-002
         vertex 0.000000e+000 7.488675e-002 1.000000e-001
      endloop
   endfacet
   facet normal -4.917030e-001 -8.664373e-001 8.668645e-002
      outer loop
         vertex 0.000000e+000 7.488675e-002 1.000000e-001
         vertex 4.829629e-003 7.200000e-002 9.870590e-002
         vertex 4.957224e-003 7.200000e-002 9.934737e-002
      endloop
   endfacet
   facet normal -4.761815e-001 -8.664373e-001 1.501250e-001
      outer loop
         vertex 4.619398e-003 7.200000e-002 9.808658e-002
         vertex 4.829629e-003 7.200000e-002 9.870590e-002
         vertex 0.000000e+000 7.488675e-002 1.000000e-001
      endloop
   endfacet
   facet normal -4.525125e-001 -8.664373e-001 2.109948e-001
      outer loop
         vertex 4.330127e-003 7.200000e-002 9.750000e-002
         vertex 4.619398e-003 7.200000e-002 9.808658e-002
         vertex 0.000000e+000 7.488675e-002 1.000000e-001
      endloop
   endfacet
   facet normal -4.874478e-001 -8.664373e-001 -1.080788e-001
      outer loop
         vertex 0.000000e+000 7.488675e-002 1.000000e-001
         vertex 4.957224e-003 7.200000e-002 1.006526e-001
         vertex 4.829629e-003 7.200000e-002 1.012941e-001
      endloop
   endfacet
   facet normal -4.973847e-001 -8.664373e-001 -4.352942e-002
      outer loop
         vertex 5.000000e-003 7.200000e-002 1.000000e-001
         vertex 4.957224e-003 7.200000e-002 1.006526e-001
         vertex 0.000000e+000 7.488675e-002 1.000000e-001
      endloop
   endfacet
   facet normal -4.988113e-001 -8.664373e-001 2.176471e-002
      outer loop
         vertex 4.957224e-003 7.200000e-002 9.934737e-002
         vertex 5.000000e-003 7.200000e-002 1.000000e-001
         vertex 0.000000e+000 7.488675e-002 1.000000e-001
      endloop
   endfacet
   facet normal -4.089831e-001 -8.664373e-001 -2.863899e-001
      outer loop
         vertex 0.000000e+000 7.488675e-002 1.000000e-001
         vertex 4.330127e-003 7.200000e-002 1.025000e-001
         vertex 3.966767e-003 7.200000e-002 1.030438e-001
      endloop
   endfacet
   facet normal -4.428656e-001 -8.664373e-001 -2.305568e-001
      outer loop
         vertex 4.619398e-003 7.200000e-002 1.019134e-001
         vertex 4.330127e-003 7.200000e-002 1.025000e-001
         vertex 0.000000e+000 7.488675e-002 1.000000e-001
      endloop
   endfacet
   facet normal -4.691705e-001 -8.664373e-001 -1.707788e-001
      outer loop
         vertex 4.829629e-003 7.200000e-002 1.012941e-001
         vertex 4.619398e-003 7.200000e-002 1.019134e-001
         vertex 0.000000e+000 7.488675e-002 1.000000e-001
      endloop
   endfacet
   facet normal -2.682544e-001 -8.664373e-001 -4.211009e-001
      outer loop
         vertex 0.000000e+000 7.488675e-002 1.000000e-001
         vertex 3.043807e-003 7.200000e-002 1.039668e-001
         vertex 2.500000e-003 7.200000e-002 1.043301e-001
      endloop
   endfacet
   facet normal -3.209242e-001 -8.664373e-001 -3.824841e-001
      outer loop
         vertex 3.535534e-003 7.200000e-002 1.035355e-001
         vertex 3.043807e-003 7.200000e-002 1.039668e-001
         vertex 0.000000e+000 7.488675e-002 1.000000e-001
      endloop
   endfacet
   facet normal -3.681028e-001 -8.664373e-001 -3.373229e-001
      outer loop
         vertex 3.966767e-003 7.200000e-002 1.030438e-001
         vertex 3.535534e-003 7.200000e-002 1.035355e-001
         vertex 0.000000e+000 7.488675e-002 1.000000e-001
      endloop
   endfacet
   facet normal -8.668645e-002 -8.664373e-001 -4.917030e-001
      outer loop
         vertex 0.000000e+000 7.488675e-002 1.000000e-001
         vertex 1.294095e-003 7.200000e-002 1.048296e-001
         vertex 6.526310e-004 7.200000e-002 1.049572e-001
      endloop
   endfacet
   facet normal -1.501250e-001 -8.664373e-001 -4.761815e-001
      outer loop
         vertex 1.913417e-003 7.200000e-002 1.046194e-001
         vertex 1.294095e-003 7.200000e-002 1.048296e-001
         vertex 0.000000e+000 7.488675e-002 1.000000e-001
      endloop
   endfacet
   facet normal -2.109948e-001 -8.664373e-001 -4.525125e-001
      outer loop
         vertex 2.500000e-003 7.200000e-002 1.043301e-001
         vertex 1.913417e-003 7.200000e-002 1.046194e-001
         vertex 0.000000e+000 7.488675e-002 1.000000e-001
      endloop
   endfacet
   facet normal 1.080788e-001 -8.664373e-001 -4.874478e-001
      outer loop
         vertex 0.000000e+000 7.488675e-002 1.000000e-001
         vertex -6.526310e-004 7.200000e-002 1.049572e-001
         vertex -1.294095e-003 7.200000e-002 1.048296e-001
      endloop
   endfacet
   facet normal 4.352942e-002 -8.664373e-001 -4.973847e-001
      outer loop
         vertex 1.110223e-018 7.200000e-002 1.050000e-001
         vertex -6.526310e-004 7.200000e-002 1.049572e-001
         vertex 0.000000e+000 7.488675e-002 1.000000e-001
      endloop
   endfacet
   facet normal -2.176471e-002 -8.664373e-001 -4.988113e-001
      outer loop
         vertex 6.526310e-004 7.200000e-002 1.049572e-001
         vertex 1.110223e-018 7.200000e-002 1.050000e-001
         vertex 0.000000e+000 7.488675e-002 1.000000e-001
      endloop
   endfacet
   facet normal 2.863899e-001 -8.664373e-001 -4.089831e-001
      outer loop
         vertex 0.000000e+000 7.488675e-002 1.000000e-001
         vertex -2.500000e-003 7.200000e-002 1.043301e-001
         vertex -3.043807e-003 7.200000e-002 1.039668e-001
      endloop
   endfacet
   facet normal 2.305568e-001 -8.664373e-001 -4.428656e-001
      outer loop
         vertex -1.913417e-003 7.200000e-002 1.046194e-001
         vertex -2.500000e-003 7.200000e-002 1.043301e-001
         vertex 0.000000e+000 7.488675e-002 1.000000e-001
      endloop
   endfacet
   facet normal 1.707788e-001 -8.664373e-001 -4.691705e-001
      outer loop
         vertex -1.294095e-003 7.200000e-002 1.048296e-001
         vertex -1.913417e-003 7.200000e-002 1.046194e-001
         vertex 0.000000e+000 7.488675e-002 1.000000e-001
      endloop
   endfacet
   facet normal 4.211009e-001 -8.664373e-001 -2.682544e-001
      outer loop
         vertex 0.000000e+000 7.488675e-002 1.000000e-001
         vertex -3.966767e-003 7.200000e-002 1.030438e-001
         vertex -4.330127e-003 7.200000e-002 1.025000e-001
      endloop
   endfacet
   facet normal 3.824841e-001 -8.664373e-001 -3.209242e-001
      outer loop
         vertex -3.535534e-003 7.200000e-002 1.035355e-001
         vertex -3.966767e-003 7.200000e-002 1.030438e-001
         vertex 0.000000e+000 7.488675e-002 1.000000e-001
      endloop
   endfacet
   facet normal 3.373229e-001 -8.664373e-001 -3.681028e-001
      outer loop
         vertex -3.043807e-003 7.200000e-002 1.039668e-001
         vertex -3.535534e-003 7.200000e-002 1.035355e-001
         vertex 0.000000e+000 7.488675e-002 1.000000e-001
      endloop
   endfacet
   facet normal 4.917030e-001 -8.664373e-001 -8.668645e-002
      outer loop
         vertex 0.000000e+000 7.488675e-002 1.000000e-001
         vertex -4.829629e-003 7.200000e-002 1.012941e-001
         vertex -4.957224e-003 7.200000e-002 1.006526e-001
      endloop
   endfacet
   facet normal 4.761815e-001 -8.664373e-001 -1.501250e-001
      outer loop
         vertex -4.619398e-003 7.200000e-002 1.019134e-001
         vertex -4.829629e-003 7.200000e-002 1.012941e-001
         vertex 0.000000e+000 7.488675e-002 1.000000e-001
      endloop
   endfacet
   facet normal 4.525125e-001 -8.664373e-001 -2.109948e-001
      outer loop
         vertex -4.330127e-003 7.200000e-002 1.025000e-001
         vertex -4.619398e-003 7.200000e-002 1.019134e-001
         vertex 0.000000e+000 7.488675e-002 1.000000e-001
      endloop
   endfacet
   facet normal 4.874478e-001 -8.664373e-001 1.080788e-001
      outer loop
         vertex 0.000000e+000 7.488675e-002 1.000000e-001
         vertex -4.957224e-003 7.200000e-002 9.934737e-002
         vertex -4.829629e-003 7.200000e-002 9.870590e-002
      endloop
   endfacet
   facet normal 4.973847e-001 -8.664373e-001 4.352942e-002
      outer loop
         vertex -5.000000e-003 7.200000e-002 1.000000e-001
         vertex -4.957224e-003 7.200000e-002 9.934737e-002
         vertex 0.000000e+000 7.488675e-002 1.000000e-001
      endloop
   endfacet
   facet normal 4.988113e-001 -8.664373e-001 -2.176471e-002
      outer loop
         vertex -4.957224e-003 7.200000e-002 1.006526e-001
         vertex -5.000000e-003 7.200000e-002 1.000000e-001
         vertex 0.000000e+000 7.488675e-002 1.000000e-001
      endloop
   endfacet
   facet normal 4.089831e-001 -8.664373e-001 2.863899e-001
      outer loop
         vertex 0.000000e+000 7.488675e-002 1.000000e-001
         vertex -4.330127e-003 7.200000e-002 9.750000e-002
         vertex -3.966767e-003 7.200000e-002 9.695619e-002
      endloop
   endfacet
   facet normal 4.428656e-001 -8.664373e-001 2.305568e-001
      outer loop
         vertex -4.619398e-003 7.200000e-002 9.808658e-002
         vertex -4.330127e-003 7.200000e-002 9.750000e-002
         vertex 0.000000e+000 7.488675e-002 1.000000e-001
      endloop
   endfacet
   facet normal 4.691705e-001 -8.664373e-001 1.707788e-001
      outer loop
         vertex -4.829629e-003 7.200000e-002 9.870590e-002
         vertex -4.619398e-003 7.200000e-002 9.808658e-002
         vertex 0.000000e+000 7.488675e-002 1.000000e-001
      endloop
   endfacet
   facet normal 2.682544e-001 -8.664373e-001 4.211009e-001
      outer loop
         vertex 0.000000e+000 7.488675e-002 1.000000e-001
         vertex -3.043807e-003 7.200000e-002 9.603323e-002
         vertex -2.500000e-003 7.200000e-002 9.566987e-002
      endloop
   endfacet
   facet normal 3.209242e-001 -8.664373e-001 3.824841e-001
      outer loop
         vertex -3.535534e-003 7.200000e-002 9.646446e-002
         vertex -3.043807e-003 7.200000e-002 9.603323e-002
         vertex 0.000000e+000 7.488675e-002 1.000000e-001
      endloop
   endfacet
   facet normal 3.681028e-001 -8.664373e-001 3.373229e-001
      outer loop
         vertex -3.966767e-003 7.200000e-002 9.695619e-002
         vertex -3.535534e-003 7.200000e-002 9.646446e-002
         vertex 0.000000e+000 7.488675e-002 1.000000e-001
      endloop
   endfacet
   facet normal 8.668645e-002 -8.664373e-001 4.917030e-001
      outer loop
         vertex 0.000000e+000 7.488675e-002 1.000000e-001
         vertex -1.294095e-003 7.200000e-002 9.517037e-002
         vertex -6.526310e-004 7.200000e-002 9.504277e-002
      endloop
   endfacet
   facet normal 1.501250e-001 -8.664373e-001 4.761815e-001
      outer loop
         vertex -1.913417e-003 7.200000e-002 9.538060e-002
         vertex -1.294095e-003 7.200000e-002 9.517037e-002
         vertex 0.000000e+000 7.488675e-002 1.000000e-001
      endloop
   endfacet
   facet normal 2.109948e-001 -8.664373e-001 4.525125e-001
      outer loop
         vertex -2.500000e-003 7.200000e-002 9.566987e-002
         vertex -1.913417e-003 7.200000e-002 9.538060e-002
         vertex 0.000000e+000 7.488675e-002 1.000000e-001
      endloop
   endfacet
   facet normal 2.176471e-002 -8.664373e-001 4.988113e-001
      outer loop
         vertex -6.526310e-004 7.200000e-002 9.504277e-002
         vertex 0.000000e+000 7.200000e-002 9.500000e-002
         vertex 0.000000e+000 7.488675e-002 1.000000e-001
      endloop
   endfacet
endsolid nozzle
