solid nozzle
   facet normal 0.000000e+000 -1.000000e+000 0.000000e+000
      outer loop
         vertex 0.000000e+000 3.000000e-002 1.200000e-001
         vertex 6.266662e-004 3.000000e-002 1.200394e-001
         vertex 0.000000e+000 3.000000e-002 1.250000e-001
      endloop
   endfacet
   facet normal 0.000000e+000 -1.000000e+000 0.000000e+000
      outer loop
         vertex 0.000000e+000 3.000000e-002 1.200000e-001
         vertex 0.000000e+000 3.000000e-002 1.250000e-001
         vertex -6.266662e-004 3.000000e-002 1.200394e-001
      endloop
   endfacet
   facet normal 0.000000e+000 -1.000000e+000 0.000000e+000
      outer loop
         vertex -2.408768e-003 3.000000e-002 1.206185e-001
         vertex -1.840623e-003 3.000000e-002 1.203511e-001
         vertex 0.000000e+000 3.000000e-002 1.250000e-001
      endloop
   endfacet
   facet normal 0.000000e+000 -1.000000e+000 0.000000e+000
      outer loop
         vertex 0.000000e+000 3.000000e-002 1.250000e-001
         vertex -1.840623e-003 3.000000e-002 1.203511e-001
         vertex -1.243449e-003 3.000000e-002 1.201571e-001
      endloop
   endfacet
   facet normal 0.000000e+000 -1.000000e+000 0.000000e+000
      outer loop
         vertex 0.000000e+000 3.000000e-002 1.250000e-001
         vertex -1.243449e-003 3.000000e-002 1.201571e-001
         vertex -6.266662e-004 3.000000e-002 1.200394e-001
      endloop
   endfacet
   facet normal 0.000000e+000 -1.000000e+000 0.000000e+000
      outer loop
         vertex -3.852566e-003 3.000000e-002 1.218129e-001
         vertex -3.422735e-003 3.000000e-002 1.213552e-001
         vertex 0.000000e+000 3.000000e-002 1.250000e-001
      endloop
   endfacet
   facet normal 0.000000e+000 -1.000000e+000 0.000000e+000
      outer loop
         vertex 0.000000e+000 3.000000e-002 1.250000e-001
         vertex -3.422735e-003 3.000000e-002 1.213552e-001
         vertex -2.938926e-003 3.000000e-002 1.209549e-001
      endloop
   endfacet
   facet normal 0.000000e+000 -1.000000e+000 0.000000e+000
      outer loop
         vertex 0.000000e+000 3.000000e-002 1.250000e-001
         vertex -2.938926e-003 3.000000e-002 1.209549e-001
         vertex -2.408768e-003 3.000000e-002 1.206185e-001
      endloop
   endfacet
   facet normal 0.000000e+000 -1.000000e+000 0.000000e+000
      outer loop
         vertex -4.755283e-003 3.000000e-002 1.234549e-001
         vertex -4.524135e-003 3.000000e-002 1.228711e-001
         vertex 0.000000e+000 3.000000e-002 1.250000e-001
      endloop
   endfacet
   facet normal 0.000000e+000 -1.000000e+000 0.000000e+000
      outer loop
         vertex 0.000000e+000 3.000000e-002 1.250000e-001
         vertex -4.524135e-003 3.000000e-002 1.228711e-001
         vertex -4.221640e-003 3.000000e-002 1.223209e-001
      endloop
   endfacet
   facet normal 0.000000e+000 -1.000000e+000 0.000000e+000
      outer loop
         vertex 0.000000e+000 3.000000e-002 1.250000e-001
         vertex -4.221640e-003 3.000000e-002 1.223209e-001
         vertex -3.852566e-003 3.000000e-002 1.218129e-001
      endloop
   endfacet
   facet normal 0.000000e+000 -1.000000e+000 0.000000e+000
      outer loop
         vertex -4.990133e-003 3.000000e-002 1.253140e-001
         vertex -4.990133e-003 3.000000e-002 1.246860e-001
         vertex 0.000000e+000 3.000000e-002 1.250000e-001
      endloop
   endfacet
   facet normal 0.000000e+000 -1.000000e+000 0.000000e+000
      outer loop
         vertex 0.000000e+000 3.000000e-002 1.250000e-001
         vertex -4.990133e-003 3.000000e-002 1.246860e-001
         vertex -4.911436e-003 3.000000e-002 1.240631e-001
      endloop
   endfacet
   facet normal 0.000000e+000 -1.000000e+000 0.000000e+000
      outer loop
         vertex 0.000000e+000 3.000000e-002 1.250000e-001
         vertex -4.911436e-003 3.000000e-002 1.240631e-001
         vertex -4.755283e-003 3.000000e-002 1.234549e-001
      endloop
   endfacet
   facet normal 0.000000e+000 -1.000000e+000 0.000000e+000
      outer loop
         vertex -4.524135e-003 3.000000e-002 1.271289e-001
         vertex -4.755283e-003 3.000000e-002 1.265451e-001
         vertex 0.000000e+000 3.000000e-002 1.250000e-001
      endloop
   endfacet
   facet normal 0.000000e+000 -1.000000e+000 0.000000e+000
      outer loop
         vertex 0.000000e+000 3.000000e-002 1.250000e-001
         vertex -4.755283e-003 3.000000e-002 1.265451e-001
         vertex -4.911436e-003 3.000000e-002 1.259369e-001
      endloop
   endfacet
   facet normal 0.000000e+000 -1.000000e+000 0.000000e+000
      outer loop
         vertex 0.000000e+000 3.000000e-002 1.250000e-001
         vertex -4.911436e-003 3.000000e-002 1.259369e-001
         vertex -4.990133e-003 3.000000e-002 1.253140e-001
      endloop
   endfacet
   facet normal 0.000000e+000 -1.000000e+000 0.000000e+000
      outer loop
         vertex -3.422735e-003 3.000000e-002 1.286448e-001
         vertex -3.852566e-003 3.000000e-002 1.281871e-001
         vertex 0.000000e+000 3.000000e-002 1.250000e-001
      endloop
   endfacet
   facet normal 0.000000e+000 -1.000000e+000 0.000000e+000
      outer loop
         vertex 0.000000e+000 3.000000e-002 1.250000e-001
         vertex -3.852566e-003 3.000000e-002 1.281871e-001
         vertex -4.221640e-003 3.000000e-002 1.276791e-001
      endloop
   endfacet
   facet normal 0.000000e+000 -1.000000e+000 0.000000e+000
      outer loop
         vertex 0.000000e+000 3.000000e-002 1.250000e-001
         vertex -4.221640e-003 3.000000e-002 1.276791e-001
         vertex -4.524135e-003 3.000000e-002 1.271289e-001
      endloop
   endfacet
   facet normal 0.000000e+000 -1.000000e+000 0.000000e+000
      outer loop
         vertex -1.840623e-003 3.000000e-002 1.296489e-001
         vertex -2.408768e-003 3.000000e-002 1.293815e-001
         vertex 0.000000e+000 3.000000e-002 1.250000e-001
      endloop
   endfacet
   facet normal 0.000000e+000 -1.000000e+000 0.000000e+000
      outer loop
         vertex 0.000000e+000 3.000000e-002 1.250000e-001
         vertex -2.408768e-003 3.000000e-002 1.293815e-001
         vertex -2.938926e-003 3.000000e-002 1.290451e-001
      endloop
   endfacet
   facet normal 0.000000e+000 -1.000000e+000 0.000000e+000
      outer loop
         vertex 0.000000e+000 3.000000e-002 1.250000e-001
         vertex -2.938926e-003 3.000000e-002 1.290451e-001
         vertex -3.422735e-003 3.000000e-002 1.286448e-001
      endloop
   endfacet
   facet normal 0.000000e+000 -1.000000e+000 0.000000e+000
      outer loop
         vertex -1.526557e-018 3.000000e-002 1.300000e-001
         vertex -6.266662e-004 3.000000e-002 1.299606e-001
         vertex 0.000000e+000 3.000000e-002 1.250000e-001
      endloop
   endfacet
   facet normal 0.000000e+000 -1.000000e+000 0.000000e+000
      outer loop
         vertex 0.000000e+000 3.000000e-002 1.250000e-001
         vertex -6.266662e-004 3.000000e-002 1.299606e-001
         vertex -1.243449e-003 3.000000e-002 1.298429e-001
      endloop
   endfacet
   facet normal 0.000000e+000 -1.000000e+000 0.000000e+000
      outer loop
         vertex 0.000000e+000 3.000000e-002 1.250000e-001
         vertex -1.243449e-003 3.000000e-002 1.298429e-001
         vertex -1.840623e-003 3.000000e-002 1.296489e-001
      endloop
   endfacet
   facet normal 0.000000e+000 -1.000000e+000 0.000000e+000
      outer loop
         vertex 1.840623e-003 3.000000e-002 1.296489e-001
         vertex 1.243449e-003 3.000000e-002 1.298429e-001
         vertex 0.000000e+000 3.000000e-002 1.250000e-001
      endloop
   endfacet
   facet normal 0.000000e+000 -1.000000e+000 0.000000e+000
      outer loop
         vertex 0.000000e+000 3.000000e-002 1.250000e-001
         vertex 1.243449e-003 3.000000e-002 1.298429e-001
         vertex 6.266662e-004 3.000000e-002 1.299606e-001
      endloop
   endfacet
   facet normal 0.000000e+000 -1.000000e+000 0.000000e+000
      outer loop
         vertex 0.000000e+000 3.000000e-002 1.250000e-001
         vertex 6.266662e-004 3.000000e-002 1.299606e-001
         vertex -1.526557e-018 3.000000e-002 1.300000e-001
      endloop
   endfacet
   facet normal 0.000000e+000 -1.000000e+000 0.000000e+000
      outer loop
         vertex 3.422735e-003 3.000000e-002 1.286448e-001
         vertex 2.938926e-003 3.000000e-002 1.290451e-001
         vertex 0.000000e+000 3.000000e-002 1.250000e-001
      endloop
   endfacet
   facet normal 0.000000e+000 -1.000000e+000 0.000000e+000
      outer loop
         vertex 0.000000e+000 3.000000e-002 1.250000e-001
         vertex 2.938926e-003 3.000000e-002 1.290451e-001
         vertex 2.408768e-003 3.000000e-002 1.293815e-001
      endloop
   endfacet
   facet normal 0.000000e+000 -1.000000e+000 0.000000e+000
      outer loop
         vertex 0.000000e+000 3.000000e-002 1.250000e-001
         vertex 2.408768e-003 3.000000e-002 1.293815e-001
         vertex 1.840623e-003 3.000000e-002 1.296489e-001
      endloop
   endfacet
   facet normal 0.000000e+000 -1.000000e+000 0.000000e+000
      outer loop
         vertex 4.524135e-003 3.000000e-002 1.271289e-001
         vertex 4.221640e-003 3.000000e-002 1.276791e-001
         vertex 0.000000e+000 3.000000e-002 1.250000e-001
      endloop
   endfacet
   facet normal 0.000000e+000 -1.000000e+000 0.000000e+000
      outer loop
         vertex 0.000000e+000 3.000000e-002 1.250000e-001
         vertex 4.221640e-003 3.000000e-002 1.276791e-001
         vertex 3.852566e-003 3.000000e-002 1.281871e-001
      endloop
   endfacet
   facet normal 0.000000e+000 -1.000000e+000 0.000000e+000
      outer loop
         vertex 0.000000e+000 3.000000e-002 1.250000e-001
         vertex 3.852566e-003 3.000000e-002 1.281871e-001
         vertex 3.422735e-003 3.000000e-002 1.286448e-001
      endloop
   endfacet
   facet normal 0.000000e+000 -1.000000e+000 0.000000e+000
      outer loop
         vertex 4.990133e-003 3.000000e-002 1.253140e-001
         vertex 4.911436e-003 3.000000e-002 1.259369e-001
         vertex 0.000000e+000 3.000000e-002 1.250000e-001
      endloop
   endfacet
   facet normal 0.000000e+000 -1.000000e+000 0.000000e+000
      outer loop
         vertex 0.000000e+000 3.000000e-002 1.250000e-001
         vertex 4.911436e-003 3.000000e-002 1.259369e-001
         vertex 4.755283e-003 3.000000e-002 1.265451e-001
      endloop
   endfacet
   facet normal 0.000000e+000 -1.000000e+000 0.000000e+000
      outer loop
         vertex 0.000000e+000 3.000000e-002 1.250000e-001
         vertex 4.755283e-003 3.000000e-002 1.265451e-001
         vertex 4.524135e-003 3.000000e-002 1.271289e-001
      endloop
   endfacet
   facet normal 0.000000e+000 -1.000000e+000 0.000000e+000
      outer loop
         vertex 4.755283e-003 3.000000e-002 1.234549e-001
         vertex 4.911436e-003 3.000000e-002 1.240631e-001
         vertex 0.000000e+000 3.000000e-002 1.250000e-001
      endloop
   endfacet
   facet normal 0.000000e+000 -1.000000e+000 0.000000e+000
      outer loop
         vertex 0.000000e+000 3.000000e-002 1.250000e-001
         vertex 4.911436e-003 3.000000e-002 1.240631e-001
         vertex 4.990133e-003 3.000000e-002 1.246860e-001
      endloop
   endfacet
   facet normal 0.000000e+000 -1.000000e+000 0.000000e+000
      outer loop
         vertex 0.000000e+000 3.000000e-002 1.250000e-001
         vertex 4.990133e-003 3.000000e-002 1.246860e-001
         vertex 4.990133e-003 3.000000e-002 1.253140e-001
      endloop
   endfacet
   facet normal 0.000000e+000 -1.000000e+000 0.000000e+000
      outer loop
         vertex 3.852566e-003 3.000000e-002 1.218129e-001
         vertex 4.221640e-003 3.000000e-002 1.223209e-001
         vertex 0.000000e+000 3.000000e-002 1.250000e-001
      endloop
   endfacet
   facet normal 0.000000e+000 -1.000000e+000 0.000000e+000
      outer loop
         vertex 0.000000e+000 3.000000e-002 1.250000e-001
         vertex 4.221640e-003 3.000000e-002 1.223209e-001
         vertex 4.524135e-003 3.000000e-002 1.228711e-001
      endloop
   endfacet
   facet normal 0.000000e+000 -1.000000e+000 0.000000e+000
      outer loop
         vertex 0.000000e+000 3.000000e-002 1.250000e-001
         vertex 4.524135e-003 3.000000e-002 1.228711e-001
         vertex 4.755283e-003 3.000000e-002 1.234549e-001
      endloop
   endfacet
   facet normal 0.000000e+000 -1.000000e+000 0.000000e+000
      outer loop
         vertex 2.408768e-003 3.000000e-002 1.206185e-001
         vertex 2.938926e-003 3.000000e-002 1.209549e-001
         vertex 0.000000e+000 3.000000e-002 1.250000e-001
      endloop
   endfacet
   facet normal 0.000000e+000 -1.000000e+000 0.000000e+000
      outer loop
         vertex 0.000000e+000 3.000000e-002 1.250000e-001
         vertex 2.938926e-003 3.000000e-002 1.209549e-001
         vertex 3.422735e-003 3.000000e-002 1.213552e-001
      endloop
   endfacet
   facet normal 0.000000e+000 -1.000000e+000 0.000000e+000
      outer loop
         vertex 0.000000e+000 3.000000e-002 1.250000e-001
         vertex 3.422735e-003 3.000000e-002 1.213552e-001
         vertex 3.852566e-003 3.000000e-002 1.218129e-001
      endloop
   endfacet
   facet normal 0.000000e+000 -1.000000e+000 0.000000e+000
      outer loop
         vertex 6.266662e-004 3.000000e-002 1.200394e-001
         vertex 1.243449e-003 3.000000e-002 1.201571e-001
         vertex 0.000000e+000 3.000000e-002 1.250000e-001
      endloop
   endfacet
   facet normal 0.000000e+000 -1.000000e+000 0.000000e+000
      outer loop
         vertex 0.000000e+000 3.000000e-002 1.250000e-001
         vertex 1.243449e-003 3.000000e-002 1.201571e-001
         vertex 1.840623e-003 3.000000e-002 1.203511e-001
      endloop
   endfacet
   facet normal 0.000000e+000 -1.000000e+000 0.000000e+000
      outer loop
         vertex 0.000000e+000 3.000000e-002 1.250000e-001
         vertex 1.840623e-003 3.000000e-002 1.203511e-001
         vertex 2.408768e-003 3.000000e-002 1.206185e-001
      endloop
   endfacet
   facet normal 0.000000e+000 -1.000000e+000 0.000000e+000
      outer loop
         vertex 0.000000e+000 3.000000e-002 3.700000e-001
         vertex 6.266662e-004 3.000000e-002 3.700394e-001
         vertex 0.000000e+000 3.000000e-002 3.750000e-001
      endloop
   endfacet
   facet normal 0.000000e+000 -1.000000e+000 0.000000e+000
      outer loop
         vertex 0.000000e+000 3.000000e-002 3.700000e-001
         vertex 0.000000e+000 3.000000e-002 3.750000e-001
         vertex -6.266662e-004 3.000000e-002 3.700394e-001
      endloop
   endfacet
   facet normal 0.000000e+000 -1.000000e+000 0.000000e+000
      outer loop
         vertex -2.408768e-003 3.000000e-002 3.706185e-001
         vertex -1.840623e-003 3.000000e-002 3.703511e-001
         vertex 0.000000e+000 3.000000e-002 3.750000e-001
      endloop
   endfacet
   facet normal 0.000000e+000 -1.000000e+000 0.000000e+000
      outer loop
         vertex 0.000000e+000 3.000000e-002 3.750000e-001
         vertex -1.840623e-003 3.000000e-002 3.703511e-001
         vertex -1.243449e-003 3.000000e-002 3.701571e-001
      endloop
   endfacet
   facet normal 0.000000e+000 -1.000000e+000 0.000000e+000
      outer loop
         vertex 0.000000e+000 3.000000e-002 3.750000e-001
         vertex -1.243449e-003 3.000000e-002 3.701571e-001
         vertex -6.266662e-004 3.000000e-002 3.700394e-001
      endloop
   endfacet
   facet normal 0.000000e+000 -1.000000e+000 0.000000e+000
      outer loop
         vertex -3.852566e-003 3.000000e-002 3.718129e-001
         vertex -3.422735e-003 3.000000e-002 3.713551e-001
         vertex 0.000000e+000 3.000000e-002 3.750000e-001
      endloop
   endfacet
   facet normal 0.000000e+000 -1.000000e+000 0.000000e+000
      outer loop
         vertex 0.000000e+000 3.000000e-002 3.750000e-001
         vertex -3.422735e-003 3.000000e-002 3.713551e-001
         vertex -2.938926e-003 3.000000e-002 3.709549e-001
      endloop
   endfacet
   facet normal 0.000000e+000 -1.000000e+000 0.000000e+000
      outer loop
         vertex 0.000000e+000 3.000000e-002 3.750000e-001
         vertex -2.938926e-003 3.000000e-002 3.709549e-001
         vertex -2.408768e-003 3.000000e-002 3.706185e-001
      endloop
   endfacet
   facet normal 0.000000e+000 -1.000000e+000 0.000000e+000
      outer loop
         vertex -4.755283e-003 3.000000e-002 3.734549e-001
         vertex -4.524135e-003 3.000000e-002 3.728711e-001
         vertex 0.000000e+000 3.000000e-002 3.750000e-001
      endloop
   endfacet
   facet normal 0.000000e+000 -1.000000e+000 0.000000e+000
      outer loop
         vertex 0.000000e+000 3.000000e-002 3.750000e-001
         vertex -4.524135e-003 3.000000e-002 3.728711e-001
         vertex -4.221640e-003 3.000000e-002 3.723209e-001
      endloop
   endfacet
   facet normal 0.000000e+000 -1.000000e+000 0.000000e+000
      outer loop
         vertex 0.000000e+000 3.000000e-002 3.750000e-001
         vertex -4.221640e-003 3.000000e-002 3.723209e-001
         vertex -3.852566e-003 3.000000e-002 3.718129e-001
      endloop
   endfacet
   facet normal 0.000000e+000 -1.000000e+000 0.000000e+000
      outer loop
         vertex -4.990133e-003 3.000000e-002 3.753140e-001
         vertex -4.990133e-003 3.000000e-002 3.746860e-001
         vertex 0.000000e+000 3.000000e-002 3.750000e-001
      endloop
   endfacet
   facet normal 0.000000e+000 -1.000000e+000 0.000000e+000
      outer loop
         vertex 0.000000e+000 3.000000e-002 3.750000e-001
         vertex -4.990133e-003 3.000000e-002 3.746860e-001
         vertex -4.911436e-003 3.000000e-002 3.740631e-001
      endloop
   endfacet
   facet normal 0.000000e+000 -1.000000e+000 0.000000e+000
      outer loop
         vertex 0.000000e+000 3.000000e-002 3.750000e-001
         vertex -4.911436e-003 3.000000e-002 3.740631e-001
         vertex -4.755283e-003 3.000000e-002 3.734549e-001
      endloop
   endfacet
   facet normal 0.000000e+000 -1.000000e+000 0.000000e+000
      outer loop
         vertex -4.524135e-003 3.000000e-002 3.771289e-001
         vertex -4.755283e-003 3.000000e-002 3.765451e-001
         vertex 0.000000e+000 3.000000e-002 3.750000e-001
      endloop
   endfacet
   facet normal 0.000000e+000 -1.000000e+000 0.000000e+000
      outer loop
         vertex 0.000000e+000 3.000000e-002 3.750000e-001
         vertex -4.755283e-003 3.000000e-002 3.765451e-001
         vertex -4.911436e-003 3.000000e-002 3.759369e-001
      endloop
   endfacet
   facet normal 0.000000e+000 -1.000000e+000 0.000000e+000
      outer loop
         vertex 0.000000e+000 3.000000e-002 3.750000e-001
         vertex -4.911436e-003 3.000000e-002 3.759369e-001
         vertex -4.990133e-003 3.000000e-002 3.753140e-001
      endloop
   endfacet
   facet normal 0.000000e+000 -1.000000e+000 0.000000e+000
      outer loop
         vertex -3.422735e-003 3.000000e-002 3.786449e-001
         vertex -3.852566e-003 3.000000e-002 3.781871e-001
         vertex 0.000000e+000 3.000000e-002 3.750000e-001
      endloop
   endfacet
   facet normal 0.000000e+000 -1.000000e+000 0.000000e+000
      outer loop
         vertex 0.000000e+000 3.000000e-002 3.750000e-001
         vertex -3.852566e-003 3.000000e-002 3.781871e-001
         vertex -4.221640e-003 3.000000e-002 3.776791e-001
      endloop
   endfacet
   facet normal 0.000000e+000 -1.000000e+000 0.000000e+000
      outer loop
         vertex 0.000000e+000 3.000000e-002 3.750000e-001
         vertex -4.221640e-003 3.000000e-002 3.776791e-001
         vertex -4.524135e-003 3.000000e-002 3.771289e-001
      endloop
   endfacet
   facet normal 0.000000e+000 -1.000000e+000 0.000000e+000
      outer loop
         vertex -1.840623e-003 3.000000e-002 3.796489e-001
         vertex -2.408768e-003 3.000000e-002 3.793815e-001
         vertex 0.000000e+000 3.000000e-002 3.750000e-001
      endloop
   endfacet
   facet normal 0.000000e+000 -1.000000e+000 0.000000e+000
      outer loop
         vertex 0.000000e+000 3.000000e-002 3.750000e-001
         vertex -2.408768e-003 3.000000e-002 3.793815e-001
         vertex -2.938926e-003 3.000000e-002 3.790451e-001
      endloop
   endfacet
   facet normal 0.000000e+000 -1.000000e+000 0.000000e+000
      outer loop
         vertex 0.000000e+000 3.000000e-002 3.750000e-001
         vertex -2.938926e-003 3.000000e-002 3.790451e-001
         vertex -3.422735e-003 3.000000e-002 3.786449e-001
      endloop
   endfacet
   facet normal 0.000000e+000 -1.000000e+000 0.000000e+000
      outer loop
         vertex -1.526557e-018 3.000000e-002 3.800000e-001
         vertex -6.266662e-004 3.000000e-002 3.799606e-001
         vertex 0.000000e+000 3.000000e-002 3.750000e-001
      endloop
   endfacet
   facet normal 0.000000e+000 -1.000000e+000 0.000000e+000
      outer loop
         vertex 0.000000e+000 3.000000e-002 3.750000e-001
         vertex -6.266662e-004 3.000000e-002 3.799606e-001
         vertex -1.243449e-003 3.000000e-002 3.798429e-001
      endloop
   endfacet
   facet normal 0.000000e+000 -1.000000e+000 0.000000e+000
      outer loop
         vertex 0.000000e+000 3.000000e-002 3.750000e-001
         vertex -1.243449e-003 3.000000e-002 3.798429e-001
         vertex -1.840623e-003 3.000000e-002 3.796489e-001
      endloop
   endfacet
   facet normal 0.000000e+000 -1.000000e+000 0.000000e+000
      outer loop
         vertex 1.840623e-003 3.000000e-002 3.796489e-001
         vertex 1.243449e-003 3.000000e-002 3.798429e-001
         vertex 0.000000e+000 3.000000e-002 3.750000e-001
      endloop
   endfacet
   facet normal 0.000000e+000 -1.000000e+000 0.000000e+000
      outer loop
         vertex 0.000000e+000 3.000000e-002 3.750000e-001
         vertex 1.243449e-003 3.000000e-002 3.798429e-001
         vertex 6.266662e-004 3.000000e-002 3.799606e-001
      endloop
   endfacet
   facet normal 0.000000e+000 -1.000000e+000 0.000000e+000
      outer loop
         vertex 0.000000e+000 3.000000e-002 3.750000e-001
         vertex 6.266662e-004 3.000000e-002 3.799606e-001
         vertex -1.526557e-018 3.000000e-002 3.800000e-001
      endloop
   endfacet
   facet normal 0.000000e+000 -1.000000e+000 0.000000e+000
      outer loop
         vertex 3.422735e-003 3.000000e-002 3.786449e-001
         vertex 2.938926e-003 3.000000e-002 3.790451e-001
         vertex 0.000000e+000 3.000000e-002 3.750000e-001
      endloop
   endfacet
   facet normal 0.000000e+000 -1.000000e+000 0.000000e+000
      outer loop
         vertex 0.000000e+000 3.000000e-002 3.750000e-001
         vertex 2.938926e-003 3.000000e-002 3.790451e-001
         vertex 2.408768e-003 3.000000e-002 3.793815e-001
      endloop
   endfacet
   facet normal 0.000000e+000 -1.000000e+000 0.000000e+000
      outer loop
         vertex 0.000000e+000 3.000000e-002 3.750000e-001
         vertex 2.408768e-003 3.000000e-002 3.793815e-001
         vertex 1.840623e-003 3.000000e-002 3.796489e-001
      endloop
   endfacet
   facet normal 0.000000e+000 -1.000000e+000 0.000000e+000
      outer loop
         vertex 4.524135e-003 3.000000e-002 3.771289e-001
         vertex 4.221640e-003 3.000000e-002 3.776791e-001
         vertex 0.000000e+000 3.000000e-002 3.750000e-001
      endloop
   endfacet
   facet normal 0.000000e+000 -1.000000e+000 0.000000e+000
      outer loop
         vertex 0.000000e+000 3.000000e-002 3.750000e-001
         vertex 4.221640e-003 3.000000e-002 3.776791e-001
         vertex 3.852566e-003 3.000000e-002 3.781871e-001
      endloop
   endfacet
   facet normal 0.000000e+000 -1.000000e+000 0.000000e+000
      outer loop
         vertex 0.000000e+000 3.000000e-002 3.750000e-001
         vertex 3.852566e-003 3.000000e-002 3.781871e-001
         vertex 3.422735e-003 3.000000e-002 3.786449e-001
      endloop
   endfacet
   facet normal 0.000000e+000 -1.000000e+000 0.000000e+000
      outer loop
         vertex 4.990133e-003 3.000000e-002 3.753140e-001
         vertex 4.911436e-003 3.000000e-002 3.759369e-001
         vertex 0.000000e+000 3.000000e-002 3.750000e-001
      endloop
   endfacet
   facet normal 0.000000e+000 -1.000000e+000 0.000000e+000
      outer loop
         vertex 0.000000e+000 3.000000e-002 3.750000e-001
         vertex 4.911436e-003 3.000000e-002 3.759369e-001
         vertex 4.755283e-003 3.000000e-002 3.765451e-001
      endloop
   endfacet
   facet normal 0.000000e+000 -1.000000e+000 0.000000e+000
      outer loop
         vertex 0.000000e+000 3.000000e-002 3.750000e-001
         vertex 4.755283e-003 3.000000e-002 3.765451e-001
         vertex 4.524135e-003 3.000000e-002 3.771289e-001
      endloop
   endfacet
   facet normal 0.000000e+000 -1.000000e+000 0.000000e+000
      outer loop
         vertex 4.755283e-003 3.000000e-002 3.734549e-001
         vertex 4.911436e-003 3.000000e-002 3.740631e-001
         vertex 0.000000e+000 3.000000e-002 3.750000e-001
      endloop
   endfacet
   facet normal 0.000000e+000 -1.000000e+000 0.000000e+000
      outer loop
         vertex 0.000000e+000 3.000000e-002 3.750000e-001
         vertex 4.911436e-003 3.000000e-002 3.740631e-001
         vertex 4.990133e-003 3.000000e-002 3.746860e-001
      endloop
   endfacet
   facet normal 0.000000e+000 -1.000000e+000 0.000000e+000
      outer loop
         vertex 0.000000e+000 3.000000e-002 3.750000e-001
         vertex 4.990133e-003 3.000000e-002 3.746860e-001
         vertex 4.990133e-003 3.000000e-002 3.753140e-001
      endloop
   endfacet
   facet normal 0.000000e+000 -1.000000e+000 0.000000e+000
      outer loop
         vertex 3.852566e-003 3.000000e-002 3.718129e-001
         vertex 4.221640e-003 3.000000e-002 3.723209e-001
         vertex 0.000000e+000 3.000000e-002 3.750000e-001
      endloop
   endfacet
   facet normal 0.000000e+000 -1.000000e+000 0.000000e+000
      outer loop
         vertex 0.000000e+000 3.000000e-002 3.750000e-001
         vertex 4.221640e-003 3.000000e-002 3.723209e-001
         vertex 4.524135e-003 3.000000e-002 3.728711e-001
      endloop
   endfacet
   facet normal 0.000000e+000 -1.000000e+000 0.000000e+000
      outer loop
         vertex 0.000000e+000 3.000000e-002 3.750000e-001
         vertex 4.524135e-003 3.000000e-002 3.728711e-001
         vertex 4.755283e-003 3.000000e-002 3.734549e-001
      endloop
   endfacet
   facet normal 0.000000e+000 -1.000000e+000 0.000000e+000
      outer loop
         vertex 2.408768e-003 3.000000e-002 3.706185e-001
         vertex 2.938926e-003 3.000000e-002 3.709549e-001
         vertex 0.000000e+000 3.000000e-002 3.750000e-001
      endloop
   endfacet
   facet normal 0.000000e+000 -1.000000e+000 0.000000e+000
      outer loop
         vertex 0.000000e+000 3.000000e-002 3.750000e-001
         vertex 2.938926e-003 3.000000e-002 3.709549e-001
         vertex 3.422735e-003 3.000000e-002 3.713551e-001
      endloop
   endfacet
   facet normal 0.000000e+000 -1.000000e+000 0.000000e+000
      outer loop
         vertex 0.000000e+000 3.000000e-002 3.750000e-001
         vertex 3.422735e-003 3.000000e-002 3.713551e-001
         vertex 3.852566e-003 3.000000e-002 3.718129e-001
      endloop
   endfacet
   facet normal 0.000000e+000 -1.000000e+000 0.000000e+000
      outer loop
         vertex 6.266662e-004 3.000000e-002 3.700394e-001
         vertex 1.243449e-003 3.000000e-002 3.701571e-001
         vertex 0.000000e+000 3.000000e-002 3.750000e-001
      endloop
   endfacet
   facet normal 0.000000e+000 -1.000000e+000 0.000000e+000
      outer loop
         vertex 0.000000e+000 3.000000e-002 3.750000e-001
         vertex 1.243449e-003 3.000000e-002 3.701571e-001
         vertex 1.840623e-003 3.000000e-002 3.703511e-001
      endloop
   endfacet
   facet normal 0.000000e+000 -1.000000e+000 0.000000e+000
      outer loop
         vertex 0.000000e+000 3.000000e-002 3.750000e-001
         vertex 1.840623e-003 3.000000e-002 3.703511e-001
         vertex 2.408768e-003 3.000000e-002 3.706185e-001
      endloop
   endfacet
endsolid nozzle
