solid solid
  facet normal  1.86167e-05 -0.00000e+00  0.00000e+00
     outer loop
       vertex  5.00000e-03  0.00000e+00  1.25000e-03
       vertex  5.00000e-03  0.00000e+00 -1.25000e-03
       vertex  5.00000e-03  1.48934e-02  1.25000e-03
     endloop
  endfacet
  facet normal  1.86167e-05  0.00000e+00  0.00000e+00
     outer loop
       vertex  5.00000e-03  0.00000e+00 -1.25000e-03
       vertex  5.00000e-03  1.48934e-02 -1.25000e-03
       vertex  5.00000e-03  1.48934e-02  1.25000e-03
     endloop
  endfacet
  facet normal  1.86167e-05  1.08420e-21  0.00000e+00
     outer loop
       vertex  5.00000e-03  1.48934e-02 -1.25000e-03
       vertex  5.00000e-03  2.97868e-02 -1.25000e-03
       vertex  5.00000e-03  2.97868e-02  1.25000e-03
     endloop
  endfacet
  facet normal  1.86167e-05 -2.16840e-21  0.00000e+00
     outer loop
       vertex  5.00000e-03  1.48934e-01 -1.25000e-03
       vertex  5.00000e-03  1.48934e-01  1.25000e-03
       vertex  5.00000e-03  1.34041e-01 -1.25000e-03
     endloop
  endfacet
  facet normal  1.86167e-05  0.00000e+00  0.00000e+00
     outer loop
       vertex  5.00000e-03  2.97868e-02 -1.25000e-03
       vertex  5.00000e-03  4.46802e-02 -1.25000e-03
       vertex  5.00000e-03  4.46802e-02  1.25000e-03
     endloop
  endfacet
  facet normal  1.86167e-05  0.00000e+00  0.00000e+00
     outer loop
       vertex  5.00000e-03  4.46802e-02 -1.25000e-03
       vertex  5.00000e-03  5.95736e-02 -1.25000e-03
       vertex  5.00000e-03  5.95736e-02  1.25000e-03
     endloop
  endfacet
  facet normal  1.86167e-05  1.08420e-21 -0.00000e+00
     outer loop
       vertex  5.00000e-03  1.48934e-02 -1.25000e-03
       vertex  5.00000e-03  2.97868e-02  1.25000e-03
       vertex  5.00000e-03  1.48934e-02  1.25000e-03
     endloop
  endfacet
  facet normal  1.86167e-05  1.08420e-21  0.00000e+00
     outer loop
       vertex  5.00000e-03  5.95736e-02 -1.25000e-03
       vertex  5.00000e-03  7.44670e-02 -1.25000e-03
       vertex  5.00000e-03  7.44670e-02  1.25000e-03
     endloop
  endfacet
  facet normal  1.86167e-05  0.00000e+00  0.00000e+00
     outer loop
       vertex  5.00000e-03  2.97868e-02 -1.25000e-03
       vertex  5.00000e-03  4.46802e-02  1.25000e-03
       vertex  5.00000e-03  2.97868e-02  1.25000e-03
     endloop
  endfacet
  facet normal  1.86167e-05  0.00000e+00  0.00000e+00
     outer loop
       vertex  5.00000e-03  7.44670e-02 -1.25000e-03
       vertex  5.00000e-03  8.93604e-02 -1.25000e-03
       vertex  5.00000e-03  8.93604e-02  1.25000e-03
     endloop
  endfacet
  facet normal  1.86167e-05  0.00000e+00  0.00000e+00
     outer loop
       vertex  5.00000e-03  4.46802e-02 -1.25000e-03
       vertex  5.00000e-03  5.95736e-02  1.25000e-03
       vertex  5.00000e-03  4.46802e-02  1.25000e-03
     endloop
  endfacet
  facet normal  1.86167e-05  0.00000e+00  0.00000e+00
     outer loop
       vertex  5.00000e-03  8.93604e-02 -1.25000e-03
       vertex  5.00000e-03  1.04254e-01 -1.25000e-03
       vertex  5.00000e-03  1.04254e-01  1.25000e-03
     endloop
  endfacet
  facet normal  1.86167e-05  1.08420e-21 -0.00000e+00
     outer loop
       vertex  5.00000e-03  5.95736e-02 -1.25000e-03
       vertex  5.00000e-03  7.44670e-02  1.25000e-03
       vertex  5.00000e-03  5.95736e-02  1.25000e-03
     endloop
  endfacet
  facet normal  1.86167e-05  0.00000e+00  0.00000e+00
     outer loop
       vertex  5.00000e-03  1.04254e-01 -1.25000e-03
       vertex  5.00000e-03  1.19147e-01 -1.25000e-03
       vertex  5.00000e-03  1.19147e-01  1.25000e-03
     endloop
  endfacet
  facet normal  1.86167e-05  0.00000e+00  0.00000e+00
     outer loop
       vertex  5.00000e-03  7.44670e-02 -1.25000e-03
       vertex  5.00000e-03  8.93604e-02  1.25000e-03
       vertex  5.00000e-03  7.44670e-02  1.25000e-03
     endloop
  endfacet
  facet normal  1.86167e-05  0.00000e+00  0.00000e+00
     outer loop
       vertex  5.00000e-03  1.19147e-01 -1.25000e-03
       vertex  5.00000e-03  1.34041e-01 -1.25000e-03
       vertex  5.00000e-03  1.34041e-01  1.25000e-03
     endloop
  endfacet
  facet normal  1.86167e-05  0.00000e+00  0.00000e+00
     outer loop
       vertex  5.00000e-03  8.93604e-02 -1.25000e-03
       vertex  5.00000e-03  1.04254e-01  1.25000e-03
       vertex  5.00000e-03  8.93604e-02  1.25000e-03
     endloop
  endfacet
  facet normal  1.86167e-05 -2.16840e-21  0.00000e+00
     outer loop
       vertex  5.00000e-03  1.34041e-01 -1.25000e-03
       vertex  5.00000e-03  1.48934e-01  1.25000e-03
       vertex  5.00000e-03  1.34041e-01  1.25000e-03
     endloop
  endfacet
  facet normal  1.86167e-05  0.00000e+00  0.00000e+00
     outer loop
       vertex  5.00000e-03  1.04254e-01 -1.25000e-03
       vertex  5.00000e-03  1.19147e-01  1.25000e-03
       vertex  5.00000e-03  1.04254e-01  1.25000e-03
     endloop
  endfacet
  facet normal  1.86167e-05  0.00000e+00  0.00000e+00
     outer loop
       vertex  5.00000e-03  1.19147e-01 -1.25000e-03
       vertex  5.00000e-03  1.34041e-01  1.25000e-03
       vertex  5.00000e-03  1.19147e-01  1.25000e-03
     endloop
  endfacet
  facet normal  1.25000e-05 -1.25000e-05  0.00000e+00
     outer loop
       vertex  5.00000e-03  1.48934e-01 -1.25000e-03
       vertex  1.50000e-02  1.58934e-01  1.25000e-03
       vertex  5.00000e-03  1.48934e-01  1.25000e-03
     endloop
  endfacet
  facet normal  1.25000e-05 -1.25000e-05  0.00000e+00
     outer loop
       vertex  1.50000e-02  1.58934e-01 -1.25000e-03
       vertex  1.50000e-02  1.58934e-01  1.25000e-03
       vertex  5.00000e-03  1.48934e-01 -1.25000e-03
     endloop
  endfacet
  facet normal  1.25000e-05 -1.25000e-05  0.00000e+00
     outer loop
       vertex  7.50000e-02  2.18934e-01 -1.25000e-03
       vertex  7.50000e-02  2.18934e-01  1.25000e-03
       vertex  6.50000e-02  2.08934e-01 -1.25000e-03
     endloop
  endfacet
  facet normal  1.25000e-05 -1.25000e-05  0.00000e+00
     outer loop
       vertex  2.50000e-02  1.68934e-01 -1.25000e-03
       vertex  2.50000e-02  1.68934e-01  1.25000e-03
       vertex  1.50000e-02  1.58934e-01 -1.25000e-03
     endloop
  endfacet
  facet normal  1.25000e-05 -1.25000e-05  0.00000e+00
     outer loop
       vertex  3.50000e-02  1.78934e-01 -1.25000e-03
       vertex  3.50000e-02  1.78934e-01  1.25000e-03
       vertex  2.50000e-02  1.68934e-01 -1.25000e-03
     endloop
  endfacet
  facet normal  1.25000e-05 -1.25000e-05  0.00000e+00
     outer loop
       vertex  1.50000e-02  1.58934e-01 -1.25000e-03
       vertex  2.50000e-02  1.68934e-01  1.25000e-03
       vertex  1.50000e-02  1.58934e-01  1.25000e-03
     endloop
  endfacet
  facet normal  1.25000e-05 -1.25000e-05  0.00000e+00
     outer loop
       vertex  4.50000e-02  1.88934e-01 -1.25000e-03
       vertex  4.50000e-02  1.88934e-01  1.25000e-03
       vertex  3.50000e-02  1.78934e-01 -1.25000e-03
     endloop
  endfacet
  facet normal  1.25000e-05 -1.25000e-05  0.00000e+00
     outer loop
       vertex  2.50000e-02  1.68934e-01 -1.25000e-03
       vertex  3.50000e-02  1.78934e-01  1.25000e-03
       vertex  2.50000e-02  1.68934e-01  1.25000e-03
     endloop
  endfacet
  facet normal  1.25000e-05 -1.25000e-05  0.00000e+00
     outer loop
       vertex  5.50000e-02  1.98934e-01 -1.25000e-03
       vertex  5.50000e-02  1.98934e-01  1.25000e-03
       vertex  4.50000e-02  1.88934e-01 -1.25000e-03
     endloop
  endfacet
  facet normal  0.00000e+00 -1.25000e-05 -0.00000e+00
     outer loop
       vertex  5.00000e-03  0.00000e+00  1.25000e-03
       vertex -5.00000e-03  0.00000e+00 -1.25000e-03
       vertex  5.00000e-03  0.00000e+00 -1.25000e-03
     endloop
  endfacet
  facet normal  1.25000e-05 -1.25000e-05  0.00000e+00
     outer loop
       vertex  3.50000e-02  1.78934e-01 -1.25000e-03
       vertex  4.50000e-02  1.88934e-01  1.25000e-03
       vertex  3.50000e-02  1.78934e-01  1.25000e-03
     endloop
  endfacet
  facet normal -0.00000e+00  0.00000e+00 -9.79640e-05
     outer loop
       vertex  7.50000e-02  2.18934e-01 -1.25000e-03
       vertex  6.50000e-02  2.08934e-01 -1.25000e-03
       vertex  6.45610e-02  2.28088e-01 -1.25000e-03
     endloop
  endfacet
  facet normal  1.25000e-05 -1.25000e-05  0.00000e+00
     outer loop
       vertex  6.50000e-02  2.08934e-01 -1.25000e-03
       vertex  6.50000e-02  2.08934e-01  1.25000e-03
       vertex  5.50000e-02  1.98934e-01 -1.25000e-03
     endloop
  endfacet
  facet normal  1.25000e-05 -1.25000e-05  0.00000e+00
     outer loop
       vertex  4.50000e-02  1.88934e-01 -1.25000e-03
       vertex  5.50000e-02  1.98934e-01  1.25000e-03
       vertex  4.50000e-02  1.88934e-01  1.25000e-03
     endloop
  endfacet
  facet normal  1.25000e-05 -1.25000e-05  0.00000e+00
     outer loop
       vertex  6.50000e-02  2.08934e-01 -1.25000e-03
       vertex  7.50000e-02  2.18934e-01  1.25000e-03
       vertex  6.50000e-02  2.08934e-01  1.25000e-03
     endloop
  endfacet
  facet normal  1.25000e-05 -1.25000e-05  0.00000e+00
     outer loop
       vertex  5.50000e-02  1.98934e-01 -1.25000e-03
       vertex  6.50000e-02  2.08934e-01  1.25000e-03
       vertex  5.50000e-02  1.98934e-01  1.25000e-03
     endloop
  endfacet
  facet normal  1.14423e-05  1.30487e-05  0.00000e+00
     outer loop
       vertex  7.50000e-02  2.18934e-01  1.25000e-03
       vertex  7.50000e-02  2.18934e-01 -1.25000e-03
       vertex  6.45610e-02  2.28088e-01  1.25000e-03
     endloop
  endfacet
  facet normal  0.00000e+00  0.00000e+00  7.44670e-05
     outer loop
       vertex  5.00000e-03  1.48934e-02  1.25000e-03
       vertex -5.00000e-03  1.48934e-02  1.25000e-03
       vertex  5.00000e-03  0.00000e+00  1.25000e-03
     endloop
  endfacet
  facet normal  1.14423e-05  1.30487e-05  0.00000e+00
     outer loop
       vertex  6.45610e-02  2.28088e-01  1.25000e-03
       vertex  7.50000e-02  2.18934e-01 -1.25000e-03
       vertex  6.45610e-02  2.28088e-01 -1.25000e-03
     endloop
  endfacet
  facet normal  0.00000e+00  0.00000e+00  7.44670e-05
     outer loop
       vertex  5.00000e-03  1.48934e-01  1.25000e-03
       vertex -5.00000e-03  1.48934e-01  1.25000e-03
       vertex  5.00000e-03  1.34041e-01  1.25000e-03
     endloop
  endfacet
  facet normal  0.00000e+00  0.00000e+00 -7.44670e-05
     outer loop
       vertex  5.00000e-03  0.00000e+00 -1.25000e-03
       vertex -5.00000e-03  1.48934e-02 -1.25000e-03
       vertex  5.00000e-03  1.48934e-02 -1.25000e-03
     endloop
  endfacet
  facet normal  0.00000e+00  0.00000e+00  9.79640e-05
     outer loop
       vertex  7.50000e-02  2.18934e-01  1.25000e-03
       vertex  6.45610e-02  2.28088e-01  1.25000e-03
       vertex  6.50000e-02  2.08934e-01  1.25000e-03
     endloop
  endfacet
  facet normal  0.00000e+00  0.00000e+00 -7.44670e-05
     outer loop
       vertex  5.00000e-03  1.48934e-02 -1.25000e-03
       vertex -5.00000e-03  2.97868e-02 -1.25000e-03
       vertex  5.00000e-03  2.97868e-02 -1.25000e-03
     endloop
  endfacet
  facet normal  0.00000e+00  0.00000e+00  7.44670e-05
     outer loop
       vertex  5.00000e-03  2.97868e-02  1.25000e-03
       vertex -5.00000e-03  2.97868e-02  1.25000e-03
       vertex  5.00000e-03  1.48934e-02  1.25000e-03
     endloop
  endfacet
  facet normal  0.00000e+00  0.00000e+00 -7.44670e-05
     outer loop
       vertex  5.00000e-03  1.34041e-01 -1.25000e-03
       vertex -5.00000e-03  1.48934e-01 -1.25000e-03
       vertex  5.00000e-03  1.48934e-01 -1.25000e-03
     endloop
  endfacet
  facet normal  0.00000e+00  0.00000e+00 -7.44670e-05
     outer loop
       vertex  5.00000e-03  2.97868e-02 -1.25000e-03
       vertex -5.00000e-03  4.46802e-02 -1.25000e-03
       vertex  5.00000e-03  4.46802e-02 -1.25000e-03
     endloop
  endfacet
  facet normal  0.00000e+00  0.00000e+00  7.44670e-05
     outer loop
       vertex  5.00000e-03  4.46802e-02  1.25000e-03
       vertex -5.00000e-03  4.46802e-02  1.25000e-03
       vertex  5.00000e-03  2.97868e-02  1.25000e-03
     endloop
  endfacet
  facet normal  9.63988e-06  1.44315e-05  0.00000e+00
     outer loop
       vertex  5.30159e-02  2.35800e-01 -1.25000e-03
       vertex  6.45610e-02  2.28088e-01  1.25000e-03
       vertex  6.45610e-02  2.28088e-01 -1.25000e-03
     endloop
  endfacet
  facet normal  0.00000e+00  0.00000e+00 -7.44670e-05
     outer loop
       vertex  5.00000e-03  4.46802e-02 -1.25000e-03
       vertex -5.00000e-03  5.95736e-02 -1.25000e-03
       vertex  5.00000e-03  5.95736e-02 -1.25000e-03
     endloop
  endfacet
  facet normal  0.00000e+00  0.00000e+00  7.44670e-05
     outer loop
       vertex  5.00000e-03  5.95736e-02  1.25000e-03
       vertex -5.00000e-03  5.95736e-02  1.25000e-03
       vertex  5.00000e-03  4.46802e-02  1.25000e-03
     endloop
  endfacet
  facet normal  7.67227e-06  1.55670e-05 -0.00000e+00
     outer loop
       vertex  5.30159e-02  2.35800e-01 -1.25000e-03
       vertex  4.05623e-02  2.41938e-01 -1.25000e-03
       vertex  5.30159e-02  2.35800e-01  1.25000e-03
     endloop
  endfacet
  facet normal  0.00000e+00  0.00000e+00 -7.44670e-05
     outer loop
       vertex  5.00000e-03  5.95736e-02 -1.25000e-03
       vertex -5.00000e-03  7.44670e-02 -1.25000e-03
       vertex  5.00000e-03  7.44670e-02 -1.25000e-03
     endloop
  endfacet
  facet normal  0.00000e+00  0.00000e+00  7.44670e-05
     outer loop
       vertex  5.00000e-03  7.44670e-02  1.25000e-03
       vertex -5.00000e-03  7.44670e-02  1.25000e-03
       vertex  5.00000e-03  5.95736e-02  1.25000e-03
     endloop
  endfacet
  facet normal -0.00000e+00 -1.25000e-05  0.00000e+00
     outer loop
       vertex  5.00000e-03  0.00000e+00  1.25000e-03
       vertex -5.00000e-03  0.00000e+00  1.25000e-03
       vertex -5.00000e-03  0.00000e+00 -1.25000e-03
     endloop
  endfacet
  facet normal  0.00000e+00  0.00000e+00 -7.44670e-05
     outer loop
       vertex  5.00000e-03  7.44670e-02 -1.25000e-03
       vertex -5.00000e-03  8.93604e-02 -1.25000e-03
       vertex  5.00000e-03  8.93604e-02 -1.25000e-03
     endloop
  endfacet
  facet normal  5.57320e-06  1.64358e-05  0.00000e+00
     outer loop
       vertex  2.74137e-02  2.46396e-01  1.25000e-03
       vertex  4.05623e-02  2.41938e-01 -1.25000e-03
       vertex  2.74137e-02  2.46396e-01 -1.25000e-03
     endloop
  endfacet
  facet normal  0.00000e+00  0.00000e+00  7.44670e-05
     outer loop
       vertex  5.00000e-03  8.93604e-02  1.25000e-03
       vertex -5.00000e-03  8.93604e-02  1.25000e-03
       vertex  5.00000e-03  7.44670e-02  1.25000e-03
     endloop
  endfacet
  facet normal  0.00000e+00  0.00000e+00 -7.44670e-05
     outer loop
       vertex  5.00000e-03  8.93604e-02 -1.25000e-03
       vertex -5.00000e-03  1.04254e-01 -1.25000e-03
       vertex  5.00000e-03  1.04254e-01 -1.25000e-03
     endloop
  endfacet
  facet normal  9.63988e-06  1.44315e-05  0.00000e+00
     outer loop
       vertex  5.30159e-02  2.35800e-01  1.25000e-03
       vertex  6.45610e-02  2.28088e-01  1.25000e-03
       vertex  5.30159e-02  2.35800e-01 -1.25000e-03
     endloop
  endfacet
  facet normal  3.37864e-06  1.70229e-05 -0.00000e+00
     outer loop
       vertex  1.37953e-02  2.49099e-01 -1.25000e-03
       vertex  1.37953e-02  2.49099e-01  1.25000e-03
       vertex  2.74137e-02  2.46396e-01 -1.25000e-03
     endloop
  endfacet
  facet normal  0.00000e+00  0.00000e+00  7.44670e-05
     outer loop
       vertex  5.00000e-03  1.04254e-01  1.25000e-03
       vertex -5.00000e-03  1.04254e-01  1.25000e-03
       vertex  5.00000e-03  8.93604e-02  1.25000e-03
     endloop
  endfacet
  facet normal  0.00000e+00  0.00000e+00 -7.44670e-05
     outer loop
       vertex  5.00000e-03  1.04254e-01 -1.25000e-03
       vertex -5.00000e-03  1.19147e-01 -1.25000e-03
       vertex  5.00000e-03  1.19147e-01 -1.25000e-03
     endloop
  endfacet
  facet normal  1.12618e-06  1.73184e-05 -0.00000e+00
     outer loop
       vertex -5.93792e-05  2.50000e-01 -1.25000e-03
       vertex -5.93792e-05  2.50000e-01  1.25000e-03
       vertex  1.37953e-02  2.49099e-01 -1.25000e-03
     endloop
  endfacet
  facet normal  7.67227e-06  1.55670e-05  0.00000e+00
     outer loop
       vertex  4.05623e-02  2.41938e-01  1.25000e-03
       vertex  5.30159e-02  2.35800e-01  1.25000e-03
       vertex  4.05623e-02  2.41938e-01 -1.25000e-03
     endloop
  endfacet
  facet normal  0.00000e+00  0.00000e+00  7.44670e-05
     outer loop
       vertex  5.00000e-03  1.19147e-01  1.25000e-03
       vertex -5.00000e-03  1.19147e-01  1.25000e-03
       vertex  5.00000e-03  1.04254e-01  1.25000e-03
     endloop
  endfacet
  facet normal  5.57320e-06  1.64358e-05  0.00000e+00
     outer loop
       vertex  4.05623e-02  2.41938e-01  1.25000e-03
       vertex  4.05623e-02  2.41938e-01 -1.25000e-03
       vertex  2.74137e-02  2.46396e-01  1.25000e-03
     endloop
  endfacet
  facet normal  0.00000e+00  0.00000e+00 -7.44670e-05
     outer loop
       vertex  5.00000e-03  1.19147e-01 -1.25000e-03
       vertex -5.00000e-03  1.34041e-01 -1.25000e-03
       vertex  5.00000e-03  1.34041e-01 -1.25000e-03
     endloop
  endfacet
  facet normal -1.14557e-06  1.73171e-05  0.00000e+00
     outer loop
       vertex -1.39131e-02  2.49084e-01 -1.25000e-03
       vertex -1.39131e-02  2.49084e-01  1.25000e-03
       vertex -5.93792e-05  2.50000e-01 -1.25000e-03
     endloop
  endfacet
  facet normal  0.00000e+00  0.00000e+00  7.44670e-05
     outer loop
       vertex  5.00000e-03  1.34041e-01  1.25000e-03
       vertex -5.00000e-03  1.34041e-01  1.25000e-03
       vertex  5.00000e-03  1.19147e-01  1.25000e-03
     endloop
  endfacet
  facet normal  3.37864e-06  1.70229e-05  0.00000e+00
     outer loop
       vertex  2.74137e-02  2.46396e-01  1.25000e-03
       vertex  2.74137e-02  2.46396e-01 -1.25000e-03
       vertex  1.37953e-02  2.49099e-01  1.25000e-03
     endloop
  endfacet
  facet normal  0.00000e+00  0.00000e+00  7.44670e-05
     outer loop
       vertex  5.00000e-03  0.00000e+00  1.25000e-03
       vertex -5.00000e-03  1.48934e-02  1.25000e-03
       vertex -5.00000e-03  0.00000e+00  1.25000e-03
     endloop
  endfacet
  facet normal -3.39770e-06  1.70191e-05  0.00000e+00
     outer loop
       vertex -2.75284e-02  2.46365e-01 -1.25000e-03
       vertex -2.75284e-02  2.46365e-01  1.25000e-03
       vertex -1.39131e-02  2.49084e-01 -1.25000e-03
     endloop
  endfacet
  facet normal -1.13519e-05  1.29310e-05  0.00000e+00
     outer loop
       vertex -7.50000e-02  2.18934e-01 -1.25000e-03
       vertex -6.46552e-02  2.28015e-01  1.25000e-03
       vertex -6.46552e-02  2.28015e-01 -1.25000e-03
     endloop
  endfacet
  facet normal -1.13519e-05  1.29310e-05  0.00000e+00
     outer loop
       vertex -7.50000e-02  2.18934e-01  1.25000e-03
       vertex -6.46552e-02  2.28015e-01  1.25000e-03
       vertex -7.50000e-02  2.18934e-01 -1.25000e-03
     endloop
  endfacet
  facet normal  1.12618e-06  1.73184e-05  0.00000e+00
     outer loop
       vertex -5.93792e-05  2.50000e-01  1.25000e-03
       vertex  1.37953e-02  2.49099e-01  1.25000e-03
       vertex  1.37953e-02  2.49099e-01 -1.25000e-03
     endloop
  endfacet
  facet normal -5.59160e-06  1.64295e-05  0.00000e+00
     outer loop
       vertex -4.06720e-02  2.41892e-01  1.25000e-03
       vertex -2.75284e-02  2.46365e-01 -1.25000e-03
       vertex -4.06720e-02  2.41892e-01 -1.25000e-03
     endloop
  endfacet
  facet normal -1.14557e-06  1.73171e-05  0.00000e+00
     outer loop
       vertex -1.39131e-02  2.49084e-01  1.25000e-03
       vertex -5.93792e-05  2.50000e-01  1.25000e-03
       vertex -5.93792e-05  2.50000e-01 -1.25000e-03
     endloop
  endfacet
  facet normal -7.68970e-06  1.55584e-05  0.00000e+00
     outer loop
       vertex -5.31187e-02  2.35740e-01 -1.25000e-03
       vertex -5.31187e-02  2.35740e-01  1.25000e-03
       vertex -4.06720e-02  2.41892e-01 -1.25000e-03
     endloop
  endfacet
  facet normal -9.65604e-06  1.44207e-05  0.00000e+00
     outer loop
       vertex -6.46552e-02  2.28015e-01 -1.25000e-03
       vertex -5.31187e-02  2.35740e-01  1.25000e-03
       vertex -5.31187e-02  2.35740e-01 -1.25000e-03
     endloop
  endfacet
  facet normal -3.39770e-06  1.70191e-05  0.00000e+00
     outer loop
       vertex -1.39131e-02  2.49084e-01 -1.25000e-03
       vertex -2.75284e-02  2.46365e-01  1.25000e-03
       vertex -1.39131e-02  2.49084e-01  1.25000e-03
     endloop
  endfacet
  facet normal -5.59160e-06  1.64295e-05  0.00000e+00
     outer loop
       vertex -2.75284e-02  2.46365e-01  1.25000e-03
       vertex -2.75284e-02  2.46365e-01 -1.25000e-03
       vertex -4.06720e-02  2.41892e-01  1.25000e-03
     endloop
  endfacet
  facet normal -7.68970e-06  1.55584e-05  0.00000e+00
     outer loop
       vertex -4.06720e-02  2.41892e-01 -1.25000e-03
       vertex -5.31187e-02  2.35740e-01  1.25000e-03
       vertex -4.06720e-02  2.41892e-01  1.25000e-03
     endloop
  endfacet
  facet normal  0.00000e+00  0.00000e+00 -7.44670e-05
     outer loop
       vertex -5.00000e-03  0.00000e+00 -1.25000e-03
       vertex -5.00000e-03  1.48934e-02 -1.25000e-03
       vertex  5.00000e-03  0.00000e+00 -1.25000e-03
     endloop
  endfacet
  facet normal -1.25000e-05 -1.25000e-05 -0.00000e+00
     outer loop
       vertex -7.50000e-02  2.18934e-01  1.25000e-03
       vertex -7.50000e-02  2.18934e-01 -1.25000e-03
       vertex -6.50000e-02  2.08934e-01  1.25000e-03
     endloop
  endfacet
  facet normal  0.00000e+00  0.00000e+00  7.44670e-05
     outer loop
       vertex  5.00000e-03  1.48934e-02  1.25000e-03
       vertex -5.00000e-03  2.97868e-02  1.25000e-03
       vertex -5.00000e-03  1.48934e-02  1.25000e-03
     endloop
  endfacet
  facet normal -9.65604e-06  1.44207e-05  0.00000e+00
     outer loop
       vertex -6.46552e-02  2.28015e-01  1.25000e-03
       vertex -5.31187e-02  2.35740e-01  1.25000e-03
       vertex -6.46552e-02  2.28015e-01 -1.25000e-03
     endloop
  endfacet
  facet normal  0.00000e+00  0.00000e+00  7.44670e-05
     outer loop
       vertex  5.00000e-03  2.97868e-02  1.25000e-03
       vertex -5.00000e-03  4.46802e-02  1.25000e-03
       vertex -5.00000e-03  2.97868e-02  1.25000e-03
     endloop
  endfacet
  facet normal  0.00000e+00  0.00000e+00  7.44670e-05
     outer loop
       vertex  5.00000e-03  4.46802e-02  1.25000e-03
       vertex -5.00000e-03  5.95736e-02  1.25000e-03
       vertex -5.00000e-03  4.46802e-02  1.25000e-03
     endloop
  endfacet
  facet normal  0.00000e+00  0.00000e+00  7.44670e-05
     outer loop
       vertex  5.00000e-03  5.95736e-02  1.25000e-03
       vertex -5.00000e-03  7.44670e-02  1.25000e-03
       vertex -5.00000e-03  5.95736e-02  1.25000e-03
     endloop
  endfacet
  facet normal  0.00000e+00  0.00000e+00  7.44670e-05
     outer loop
       vertex  5.00000e-03  1.34041e-01  1.25000e-03
       vertex -5.00000e-03  1.48934e-01  1.25000e-03
       vertex -5.00000e-03  1.34041e-01  1.25000e-03
     endloop
  endfacet
  facet normal  0.00000e+00  0.00000e+00  7.44670e-05
     outer loop
       vertex  5.00000e-03  7.44670e-02  1.25000e-03
       vertex -5.00000e-03  8.93604e-02  1.25000e-03
       vertex -5.00000e-03  7.44670e-02  1.25000e-03
     endloop
  endfacet
  facet normal  0.00000e+00  0.00000e+00 -9.20157e-05
     outer loop
       vertex  1.50000e-02  1.58934e-01 -1.25000e-03
       vertex  7.45584e-03  1.69793e-01 -1.25000e-03
       vertex  2.50000e-02  1.68934e-01 -1.25000e-03
     endloop
  endfacet
  facet normal  0.00000e+00  0.00000e+00 -7.44670e-05
     outer loop
       vertex -5.00000e-03  1.48934e-02 -1.25000e-03
       vertex -5.00000e-03  2.97868e-02 -1.25000e-03
       vertex  5.00000e-03  1.48934e-02 -1.25000e-03
     endloop
  endfacet
  facet normal  0.00000e+00  0.00000e+00  7.44670e-05
     outer loop
       vertex  5.00000e-03  8.93604e-02  1.25000e-03
       vertex -5.00000e-03  1.04254e-01  1.25000e-03
       vertex -5.00000e-03  8.93604e-02  1.25000e-03
     endloop
  endfacet
  facet normal -0.00000e+00  0.00000e+00  9.71314e-05
     outer loop
       vertex -7.50000e-02  2.18934e-01  1.25000e-03
       vertex -6.50000e-02  2.08934e-01  1.25000e-03
       vertex -6.46552e-02  2.28015e-01  1.25000e-03
     endloop
  endfacet
  facet normal  0.00000e+00  0.00000e+00 -7.44670e-05
     outer loop
       vertex -5.00000e-03  2.97868e-02 -1.25000e-03
       vertex -5.00000e-03  4.46802e-02 -1.25000e-03
       vertex  5.00000e-03  2.97868e-02 -1.25000e-03
     endloop
  endfacet
  facet normal  0.00000e+00  0.00000e+00  7.44670e-05
     outer loop
       vertex  5.00000e-03  1.04254e-01  1.25000e-03
       vertex -5.00000e-03  1.19147e-01  1.25000e-03
       vertex -5.00000e-03  1.04254e-01  1.25000e-03
     endloop
  endfacet
  facet normal  0.00000e+00  0.00000e+00 -7.44670e-05
     outer loop
       vertex -5.00000e-03  4.46802e-02 -1.25000e-03
       vertex -5.00000e-03  5.95736e-02 -1.25000e-03
       vertex  5.00000e-03  4.46802e-02 -1.25000e-03
     endloop
  endfacet
  facet normal  0.00000e+00  0.00000e+00  7.44670e-05
     outer loop
       vertex  5.00000e-03  1.19147e-01  1.25000e-03
       vertex -5.00000e-03  1.34041e-01  1.25000e-03
       vertex -5.00000e-03  1.19147e-01  1.25000e-03
     endloop
  endfacet
  facet normal  0.00000e+00  0.00000e+00 -7.44670e-05
     outer loop
       vertex -5.00000e-03  5.95736e-02 -1.25000e-03
       vertex -5.00000e-03  7.44670e-02 -1.25000e-03
       vertex  5.00000e-03  5.95736e-02 -1.25000e-03
     endloop
  endfacet
  facet normal  0.00000e+00  0.00000e+00 -8.08120e-05
     outer loop
       vertex  5.00000e-03  1.48934e-01 -1.25000e-03
       vertex -6.68429e-04  1.59428e-01 -1.25000e-03
       vertex  1.50000e-02  1.58934e-01 -1.25000e-03
     endloop
  endfacet
  facet normal  0.00000e+00  0.00000e+00 -7.44670e-05
     outer loop
       vertex -5.00000e-03  7.44670e-02 -1.25000e-03
       vertex -5.00000e-03  8.93604e-02 -1.25000e-03
       vertex  5.00000e-03  7.44670e-02 -1.25000e-03
     endloop
  endfacet
  facet normal  0.00000e+00  0.00000e+00 -7.44670e-05
     outer loop
       vertex -5.00000e-03  8.93604e-02 -1.25000e-03
       vertex -5.00000e-03  1.04254e-01 -1.25000e-03
       vertex  5.00000e-03  8.93604e-02 -1.25000e-03
     endloop
  endfacet
  facet normal  0.00000e+00  0.00000e+00 -7.44670e-05
     outer loop
       vertex -5.00000e-03  1.34041e-01 -1.25000e-03
       vertex -5.00000e-03  1.48934e-01 -1.25000e-03
       vertex  5.00000e-03  1.34041e-01 -1.25000e-03
     endloop
  endfacet
  facet normal  0.00000e+00  0.00000e+00 -7.44670e-05
     outer loop
       vertex -5.00000e-03  1.04254e-01 -1.25000e-03
       vertex -5.00000e-03  1.19147e-01 -1.25000e-03
       vertex  5.00000e-03  1.04254e-01 -1.25000e-03
     endloop
  endfacet
  facet normal  0.00000e+00  0.00000e+00 -9.71314e-05
     outer loop
       vertex -7.50000e-02  2.18934e-01 -1.25000e-03
       vertex -6.46552e-02  2.28015e-01 -1.25000e-03
       vertex -6.50000e-02  2.08934e-01 -1.25000e-03
     endloop
  endfacet
  facet normal  0.00000e+00  0.00000e+00 -1.20672e-04
     outer loop
       vertex  5.50000e-02  1.98934e-01 -1.25000e-03
       vertex  5.11904e-02  2.19259e-01 -1.25000e-03
       vertex  6.50000e-02  2.08934e-01 -1.25000e-03
     endloop
  endfacet
  facet normal  0.00000e+00  0.00000e+00 -7.44670e-05
     outer loop
       vertex -5.00000e-03  1.19147e-01 -1.25000e-03
       vertex -5.00000e-03  1.34041e-01 -1.25000e-03
       vertex  5.00000e-03  1.19147e-01 -1.25000e-03
     endloop
  endfacet
  facet normal  0.00000e+00  0.00000e+00 -9.79597e-05
     outer loop
       vertex  2.50000e-02  1.68934e-01 -1.25000e-03
       vertex  1.67509e-02  1.80277e-01 -1.25000e-03
       vertex  3.50000e-02  1.78934e-01 -1.25000e-03
     endloop
  endfacet
  facet normal -0.00000e+00  0.00000e+00 -9.86798e-05
     outer loop
       vertex  1.37953e-02  2.49099e-01 -1.25000e-03
       vertex -2.44889e-04  2.35767e-01 -1.25000e-03
       vertex -5.93792e-05  2.50000e-01 -1.25000e-03
     endloop
  endfacet
  facet normal  0.00000e+00  0.00000e+00 -9.85039e-05
     outer loop
       vertex -5.93792e-05  2.50000e-01 -1.25000e-03
       vertex -2.44889e-04  2.35767e-01 -1.25000e-03
       vertex -1.39131e-02  2.49084e-01 -1.25000e-03
     endloop
  endfacet
  facet normal  0.00000e+00  0.00000e+00 -1.29988e-04
     outer loop
       vertex  6.50000e-02  2.08934e-01 -1.25000e-03
       vertex  5.11904e-02  2.19259e-01 -1.25000e-03
       vertex  6.45610e-02  2.28088e-01 -1.25000e-03
     endloop
  endfacet
  facet normal -1.86167e-05  0.00000e+00  0.00000e+00
     outer loop
       vertex -5.00000e-03  0.00000e+00  1.25000e-03
       vertex -5.00000e-03  1.48934e-02 -1.25000e-03
       vertex -5.00000e-03  0.00000e+00 -1.25000e-03
     endloop
  endfacet
  facet normal  0.00000e+00  0.00000e+00 -1.06320e-04
     outer loop
       vertex  3.50000e-02  1.78934e-01 -1.25000e-03
       vertex  2.60151e-02  1.91213e-01 -1.25000e-03
       vertex  4.50000e-02  1.88934e-01 -1.25000e-03
     endloop
  endfacet
  facet normal  0.00000e+00  0.00000e+00 -1.09353e-04
     outer loop
       vertex  4.50000e-02  1.88934e-01 -1.25000e-03
       vertex  4.14768e-02  2.07281e-01 -1.25000e-03
       vertex  5.50000e-02  1.98934e-01 -1.25000e-03
     endloop
  endfacet
  facet normal -1.86167e-05  0.00000e+00  0.00000e+00
     outer loop
       vertex -5.00000e-03  0.00000e+00  1.25000e-03
       vertex -5.00000e-03  1.48934e-02  1.25000e-03
       vertex -5.00000e-03  1.48934e-02 -1.25000e-03
     endloop
  endfacet
  facet normal -0.00000e+00  0.00000e+00 -1.02523e-04
     outer loop
       vertex  6.45610e-02  2.28088e-01 -1.25000e-03
       vertex  5.11904e-02  2.19259e-01 -1.25000e-03
       vertex  5.30159e-02  2.35800e-01 -1.25000e-03
     endloop
  endfacet
  facet normal -1.25000e-05 -1.25000e-05 -0.00000e+00
     outer loop
       vertex -6.50000e-02  2.08934e-01  1.25000e-03
       vertex -7.50000e-02  2.18934e-01 -1.25000e-03
       vertex -6.50000e-02  2.08934e-01 -1.25000e-03
     endloop
  endfacet
  facet normal -0.00000e+00  0.00000e+00 -1.13818e-04
     outer loop
       vertex  2.74137e-02  2.46396e-01 -1.25000e-03
       vertex  1.72904e-02  2.31690e-01 -1.25000e-03
       vertex  1.37953e-02  2.49099e-01 -1.25000e-03
     endloop
  endfacet
  facet normal -1.86167e-05 -2.16840e-21 -0.00000e+00
     outer loop
       vertex -5.00000e-03  1.48934e-01  1.25000e-03
       vertex -5.00000e-03  1.48934e-01 -1.25000e-03
       vertex -5.00000e-03  1.34041e-01  1.25000e-03
     endloop
  endfacet
  facet normal  0.00000e+00  0.00000e+00 -1.02521e-04
     outer loop
       vertex -5.31187e-02  2.35740e-01 -1.25000e-03
       vertex -5.40593e-02  2.17337e-01 -1.25000e-03
       vertex -6.46552e-02  2.28015e-01 -1.25000e-03
     endloop
  endfacet
  facet normal  0.00000e+00 -0.00000e+00 -1.11300e-04
     outer loop
       vertex -4.06720e-02  2.41892e-01 -1.25000e-03
       vertex -3.97695e-02  2.24454e-01 -1.25000e-03
       vertex -5.31187e-02  2.35740e-01 -1.25000e-03
     endloop
  endfacet
  facet normal -1.86167e-05  1.08420e-21  0.00000e+00
     outer loop
       vertex -5.00000e-03  1.48934e-02  1.25000e-03
       vertex -5.00000e-03  2.97868e-02  1.25000e-03
       vertex -5.00000e-03  2.97868e-02 -1.25000e-03
     endloop
  endfacet
  facet normal -1.25000e-05 -1.25000e-05 -0.00000e+00
     outer loop
       vertex -1.50000e-02  1.58934e-01  1.25000e-03
       vertex -1.50000e-02  1.58934e-01 -1.25000e-03
       vertex -5.00000e-03  1.48934e-01  1.25000e-03
     endloop
  endfacet
  facet normal -1.86167e-05  0.00000e+00  0.00000e+00
     outer loop
       vertex -5.00000e-03  2.97868e-02  1.25000e-03
       vertex -5.00000e-03  4.46802e-02  1.25000e-03
       vertex -5.00000e-03  4.46802e-02 -1.25000e-03
     endloop
  endfacet
  facet normal -1.25000e-05 -1.25000e-05 -0.00000e+00
     outer loop
       vertex -2.50000e-02  1.68934e-01  1.25000e-03
       vertex -2.50000e-02  1.68934e-01 -1.25000e-03
       vertex -1.50000e-02  1.58934e-01  1.25000e-03
     endloop
  endfacet
  facet normal -1.86167e-05  0.00000e+00  0.00000e+00
     outer loop
       vertex -5.00000e-03  4.46802e-02  1.25000e-03
       vertex -5.00000e-03  5.95736e-02  1.25000e-03
       vertex -5.00000e-03  5.95736e-02 -1.25000e-03
     endloop
  endfacet
  facet normal -1.86167e-05  1.08420e-21  0.00000e+00
     outer loop
       vertex -5.00000e-03  1.48934e-02  1.25000e-03
       vertex -5.00000e-03  2.97868e-02 -1.25000e-03
       vertex -5.00000e-03  1.48934e-02 -1.25000e-03
     endloop
  endfacet
  facet normal  0.00000e+00  0.00000e+00 -9.27243e-05
     outer loop
       vertex -2.75284e-02  2.46365e-01 -1.25000e-03
       vertex -2.98800e-02  2.31456e-01 -1.25000e-03
       vertex -4.06720e-02  2.41892e-01 -1.25000e-03
     endloop
  endfacet
  facet normal -1.25000e-05 -1.25000e-05 -0.00000e+00
     outer loop
       vertex -3.50000e-02  1.78934e-01  1.25000e-03
       vertex -3.50000e-02  1.78934e-01 -1.25000e-03
       vertex -2.50000e-02  1.68934e-01  1.25000e-03
     endloop
  endfacet
  facet normal  0.00000e+00  0.00000e+00 -5.24698e-05
     outer loop
       vertex  5.00000e-03  1.48934e-01 -1.25000e-03
       vertex -5.00000e-03  1.48934e-01 -1.25000e-03
       vertex -6.68429e-04  1.59428e-01 -1.25000e-03
     endloop
  endfacet
  facet normal -1.86167e-05  1.08420e-21  0.00000e+00
     outer loop
       vertex -5.00000e-03  5.95736e-02  1.25000e-03
       vertex -5.00000e-03  7.44670e-02  1.25000e-03
       vertex -5.00000e-03  7.44670e-02 -1.25000e-03
     endloop
  endfacet
  facet normal -1.86167e-05  0.00000e+00  0.00000e+00
     outer loop
       vertex -5.00000e-03  2.97868e-02  1.25000e-03
       vertex -5.00000e-03  4.46802e-02 -1.25000e-03
       vertex -5.00000e-03  2.97868e-02 -1.25000e-03
     endloop
  endfacet
  facet normal -1.25000e-05 -1.25000e-05 -0.00000e+00
     outer loop
       vertex -4.50000e-02  1.88934e-01  1.25000e-03
       vertex -4.50000e-02  1.88934e-01 -1.25000e-03
       vertex -3.50000e-02  1.78934e-01  1.25000e-03
     endloop
  endfacet
  facet normal -1.86167e-05  0.00000e+00  0.00000e+00
     outer loop
       vertex -5.00000e-03  7.44670e-02  1.25000e-03
       vertex -5.00000e-03  8.93604e-02  1.25000e-03
       vertex -5.00000e-03  8.93604e-02 -1.25000e-03
     endloop
  endfacet
  facet normal -1.86167e-05  0.00000e+00  0.00000e+00
     outer loop
       vertex -5.00000e-03  4.46802e-02  1.25000e-03
       vertex -5.00000e-03  5.95736e-02 -1.25000e-03
       vertex -5.00000e-03  4.46802e-02 -1.25000e-03
     endloop
  endfacet
  facet normal -1.25000e-05 -1.25000e-05 -0.00000e+00
     outer loop
       vertex -5.00000e-03  1.48934e-01  1.25000e-03
       vertex -1.50000e-02  1.58934e-01 -1.25000e-03
       vertex -5.00000e-03  1.48934e-01 -1.25000e-03
     endloop
  endfacet
  facet normal  0.00000e+00 -0.00000e+00  9.20157e-05
     outer loop
       vertex  1.50000e-02  1.58934e-01  1.25000e-03
       vertex  2.50000e-02  1.68934e-01  1.25000e-03
       vertex  7.45584e-03  1.69793e-01  1.25000e-03
     endloop
  endfacet
  facet normal -1.25000e-05 -1.25000e-05 -0.00000e+00
     outer loop
       vertex -5.50000e-02  1.98934e-01  1.25000e-03
       vertex -5.50000e-02  1.98934e-01 -1.25000e-03
       vertex -4.50000e-02  1.88934e-01  1.25000e-03
     endloop
  endfacet
  facet normal  0.00000e+00  0.00000e+00 -1.13381e-04
     outer loop
       vertex -1.39131e-02  2.49084e-01 -1.25000e-03
       vertex -1.71421e-02  2.31784e-01 -1.25000e-03
       vertex -2.75284e-02  2.46365e-01 -1.25000e-03
     endloop
  endfacet
  facet normal -1.86167e-05  0.00000e+00  0.00000e+00
     outer loop
       vertex -5.00000e-03  8.93604e-02  1.25000e-03
       vertex -5.00000e-03  1.04254e-01  1.25000e-03
       vertex -5.00000e-03  1.04254e-01 -1.25000e-03
     endloop
  endfacet
  facet normal -1.86167e-05  1.08420e-21  0.00000e+00
     outer loop
       vertex -5.00000e-03  5.95736e-02  1.25000e-03
       vertex -5.00000e-03  7.44670e-02 -1.25000e-03
       vertex -5.00000e-03  5.95736e-02 -1.25000e-03
     endloop
  endfacet
  facet normal -0.00000e+00  0.00000e+00 -8.33781e-05
     outer loop
       vertex  4.05623e-02  2.41938e-01 -1.25000e-03
       vertex  3.14764e-02  2.32336e-01 -1.25000e-03
       vertex  2.74137e-02  2.46396e-01 -1.25000e-03
     endloop
  endfacet
  facet normal -1.25000e-05 -1.25000e-05 -0.00000e+00
     outer loop
       vertex -6.50000e-02  2.08934e-01  1.25000e-03
       vertex -6.50000e-02  2.08934e-01 -1.25000e-03
       vertex -5.50000e-02  1.98934e-01  1.25000e-03
     endloop
  endfacet
  facet normal -1.86167e-05  0.00000e+00  0.00000e+00
     outer loop
       vertex -5.00000e-03  1.04254e-01  1.25000e-03
       vertex -5.00000e-03  1.19147e-01  1.25000e-03
       vertex -5.00000e-03  1.19147e-01 -1.25000e-03
     endloop
  endfacet
  facet normal -1.86167e-05  0.00000e+00  0.00000e+00
     outer loop
       vertex -5.00000e-03  7.44670e-02  1.25000e-03
       vertex -5.00000e-03  8.93604e-02 -1.25000e-03
       vertex -5.00000e-03  7.44670e-02 -1.25000e-03
     endloop
  endfacet
  facet normal -0.00000e+00  0.00000e+00 -6.35845e-05
     outer loop
       vertex  5.30159e-02  2.35800e-01 -1.25000e-03
       vertex  4.24538e-02  2.30794e-01 -1.25000e-03
       vertex  4.05623e-02  2.41938e-01 -1.25000e-03
     endloop
  endfacet
  facet normal -1.86167e-05  0.00000e+00  0.00000e+00
     outer loop
       vertex -5.00000e-03  1.19147e-01  1.25000e-03
       vertex -5.00000e-03  1.34041e-01  1.25000e-03
       vertex -5.00000e-03  1.34041e-01 -1.25000e-03
     endloop
  endfacet
  facet normal -1.86167e-05  0.00000e+00  0.00000e+00
     outer loop
       vertex -5.00000e-03  8.93604e-02  1.25000e-03
       vertex -5.00000e-03  1.04254e-01 -1.25000e-03
       vertex -5.00000e-03  8.93604e-02 -1.25000e-03
     endloop
  endfacet
  facet normal -1.86167e-05 -2.16840e-21 -0.00000e+00
     outer loop
       vertex -5.00000e-03  1.34041e-01  1.25000e-03
       vertex -5.00000e-03  1.48934e-01 -1.25000e-03
       vertex -5.00000e-03  1.34041e-01 -1.25000e-03
     endloop
  endfacet
  facet normal -1.25000e-05 -1.25000e-05 -0.00000e+00
     outer loop
       vertex -1.50000e-02  1.58934e-01  1.25000e-03
       vertex -2.50000e-02  1.68934e-01 -1.25000e-03
       vertex -1.50000e-02  1.58934e-01 -1.25000e-03
     endloop
  endfacet
  facet normal -1.86167e-05  0.00000e+00  0.00000e+00
     outer loop
       vertex -5.00000e-03  1.04254e-01  1.25000e-03
       vertex -5.00000e-03  1.19147e-01 -1.25000e-03
       vertex -5.00000e-03  1.04254e-01 -1.25000e-03
     endloop
  endfacet
  facet normal -1.25000e-05 -1.25000e-05 -0.00000e+00
     outer loop
       vertex -2.50000e-02  1.68934e-01  1.25000e-03
       vertex -3.50000e-02  1.78934e-01 -1.25000e-03
       vertex -2.50000e-02  1.68934e-01 -1.25000e-03
     endloop
  endfacet
  facet normal -1.86167e-05  0.00000e+00  0.00000e+00
     outer loop
       vertex -5.00000e-03  1.19147e-01  1.25000e-03
       vertex -5.00000e-03  1.34041e-01 -1.25000e-03
       vertex -5.00000e-03  1.19147e-01 -1.25000e-03
     endloop
  endfacet
  facet normal  0.00000e+00 -0.00000e+00  8.08120e-05
     outer loop
       vertex  5.00000e-03  1.48934e-01  1.25000e-03
       vertex  1.50000e-02  1.58934e-01  1.25000e-03
       vertex -6.68429e-04  1.59428e-01  1.25000e-03
     endloop
  endfacet
  facet normal -1.25000e-05 -1.25000e-05 -0.00000e+00
     outer loop
       vertex -3.50000e-02  1.78934e-01  1.25000e-03
       vertex -4.50000e-02  1.88934e-01 -1.25000e-03
       vertex -3.50000e-02  1.78934e-01 -1.25000e-03
     endloop
  endfacet
  facet normal -1.25000e-05 -1.25000e-05 -0.00000e+00
     outer loop
       vertex -4.50000e-02  1.88934e-01  1.25000e-03
       vertex -5.50000e-02  1.98934e-01 -1.25000e-03
       vertex -4.50000e-02  1.88934e-01 -1.25000e-03
     endloop
  endfacet
  facet normal  0.00000e+00 -0.00000e+00 -1.02934e-04
     outer loop
       vertex -6.46552e-02  2.28015e-01 -1.25000e-03
       vertex -5.40593e-02  2.17337e-01 -1.25000e-03
       vertex -6.50000e-02  2.08934e-01 -1.25000e-03
     endloop
  endfacet
  facet normal  0.00000e+00  0.00000e+00 -9.59576e-05
     outer loop
       vertex  2.50000e-02  1.68934e-01 -1.25000e-03
       vertex  7.45584e-03  1.69793e-01 -1.25000e-03
       vertex  1.67509e-02  1.80277e-01 -1.25000e-03
     endloop
  endfacet
  facet normal -1.25000e-05 -1.25000e-05 -0.00000e+00
     outer loop
       vertex -5.50000e-02  1.98934e-01  1.25000e-03
       vertex -6.50000e-02  2.08934e-01 -1.25000e-03
       vertex -5.50000e-02  1.98934e-01 -1.25000e-03
     endloop
  endfacet
  facet normal  0.00000e+00 -0.00000e+00  1.20672e-04
     outer loop
       vertex  5.50000e-02  1.98934e-01  1.25000e-03
       vertex  6.50000e-02  2.08934e-01  1.25000e-03
       vertex  5.11904e-02  2.19259e-01  1.25000e-03
     endloop
  endfacet
  facet normal  0.00000e+00 -0.00000e+00 -1.45512e-04
     outer loop
       vertex  1.37953e-02  2.49099e-01 -1.25000e-03
       vertex  1.72904e-02  2.31690e-01 -1.25000e-03
       vertex -2.44889e-04  2.35767e-01 -1.25000e-03
     endloop
  endfacet
  facet normal  0.00000e+00  0.00000e+00 -8.32083e-05
     outer loop
       vertex  1.50000e-02  1.58934e-01 -1.25000e-03
       vertex -6.68429e-04  1.59428e-01 -1.25000e-03
       vertex  7.45584e-03  1.69793e-01 -1.25000e-03
     endloop
  endfacet
  facet normal  0.00000e+00 -0.00000e+00  9.79597e-05
     outer loop
       vertex  2.50000e-02  1.68934e-01  1.25000e-03
       vertex  3.50000e-02  1.78934e-01  1.25000e-03
       vertex  1.67509e-02  1.80277e-01  1.25000e-03
     endloop
  endfacet
  facet normal  0.00000e+00 -0.00000e+00 -1.28142e-04
     outer loop
       vertex -5.31187e-02  2.35740e-01 -1.25000e-03
       vertex -3.97695e-02  2.24454e-01 -1.25000e-03
       vertex -5.40593e-02  2.17337e-01 -1.25000e-03
     endloop
  endfacet
  facet normal  0.00000e+00  0.00000e+00 -9.09784e-05
     outer loop
       vertex  4.50000e-02  1.88934e-01 -1.25000e-03
       vertex  3.27959e-02  2.00843e-01 -1.25000e-03
       vertex  4.14768e-02  2.07281e-01 -1.25000e-03
     endloop
  endfacet
  facet normal  0.00000e+00  0.00000e+00  1.29988e-04
     outer loop
       vertex  6.50000e-02  2.08934e-01  1.25000e-03
       vertex  6.45610e-02  2.28088e-01  1.25000e-03
       vertex  5.11904e-02  2.19259e-01  1.25000e-03
     endloop
  endfacet
  facet normal  0.00000e+00  0.00000e+00 -9.91367e-05
     outer loop
       vertex  4.50000e-02  1.88934e-01 -1.25000e-03
       vertex  2.60151e-02  1.91213e-01 -1.25000e-03
       vertex  3.27959e-02  2.00843e-01 -1.25000e-03
     endloop
  endfacet
  facet normal  0.00000e+00 -0.00000e+00  1.06320e-04
     outer loop
       vertex  3.50000e-02  1.78934e-01  1.25000e-03
       vertex  4.50000e-02  1.88934e-01  1.25000e-03
       vertex  2.60151e-02  1.91213e-01  1.25000e-03
     endloop
  endfacet
  facet normal  0.00000e+00  0.00000e+00  9.86798e-05
     outer loop
       vertex  1.37953e-02  2.49099e-01  1.25000e-03
       vertex -5.93792e-05  2.50000e-01  1.25000e-03
       vertex -2.44889e-04  2.35767e-01  1.25000e-03
     endloop
  endfacet
  facet normal  0.00000e+00 -0.00000e+00  1.09353e-04
     outer loop
       vertex  4.50000e-02  1.88934e-01  1.25000e-03
       vertex  5.50000e-02  1.98934e-01  1.25000e-03
       vertex  4.14768e-02  2.07281e-01  1.25000e-03
     endloop
  endfacet
  facet normal  0.00000e+00  0.00000e+00  9.85039e-05
     outer loop
       vertex -5.93792e-05  2.50000e-01  1.25000e-03
       vertex -1.39131e-02  2.49084e-01  1.25000e-03
       vertex -2.44889e-04  2.35767e-01  1.25000e-03
     endloop
  endfacet
  facet normal  0.00000e+00  0.00000e+00 -1.21528e-04
     outer loop
       vertex  5.50000e-02  1.98934e-01 -1.25000e-03
       vertex  4.14768e-02  2.07281e-01 -1.25000e-03
       vertex  5.11904e-02  2.19259e-01 -1.25000e-03
     endloop
  endfacet
  facet normal  0.00000e+00  0.00000e+00  5.24698e-05
     outer loop
       vertex  5.00000e-03  1.48934e-01  1.25000e-03
       vertex -6.68429e-04  1.59428e-01  1.25000e-03
       vertex -5.00000e-03  1.48934e-01  1.25000e-03
     endloop
  endfacet
  facet normal  0.00000e+00  0.00000e+00 -8.93861e-05
     outer loop
       vertex -4.06720e-02  2.41892e-01 -1.25000e-03
       vertex -2.98800e-02  2.31456e-01 -1.25000e-03
       vertex -3.97695e-02  2.24454e-01 -1.25000e-03
     endloop
  endfacet
  facet normal  0.00000e+00 -0.00000e+00 -1.39726e-04
     outer loop
       vertex -1.39131e-02  2.49084e-01 -1.25000e-03
       vertex -2.44889e-04  2.35767e-01 -1.25000e-03
       vertex -1.71421e-02  2.31784e-01 -1.25000e-03
     endloop
  endfacet
  facet normal  0.00000e+00  0.00000e+00 -1.06009e-04
     outer loop
       vertex  3.50000e-02  1.78934e-01 -1.25000e-03
       vertex  1.67509e-02  1.80277e-01 -1.25000e-03
       vertex  2.60151e-02  1.91213e-01 -1.25000e-03
     endloop
  endfacet
  facet normal  0.00000e+00  0.00000e+00  1.02523e-04
     outer loop
       vertex  6.45610e-02  2.28088e-01  1.25000e-03
       vertex  5.30159e-02  2.35800e-01  1.25000e-03
       vertex  5.11904e-02  2.19259e-01  1.25000e-03
     endloop
  endfacet
  facet normal  0.00000e+00  0.00000e+00  1.13818e-04
     outer loop
       vertex  2.74137e-02  2.46396e-01  1.25000e-03
       vertex  1.37953e-02  2.49099e-01  1.25000e-03
       vertex  1.72904e-02  2.31690e-01  1.25000e-03
     endloop
  endfacet
  facet normal  0.00000e+00  0.00000e+00  1.02521e-04
     outer loop
       vertex -5.31187e-02  2.35740e-01  1.25000e-03
       vertex -6.46552e-02  2.28015e-01  1.25000e-03
       vertex -5.40593e-02  2.17337e-01  1.25000e-03
     endloop
  endfacet
  facet normal  0.00000e+00 -0.00000e+00 -9.45739e-05
     outer loop
       vertex -2.75284e-02  2.46365e-01 -1.25000e-03
       vertex -1.71421e-02  2.31784e-01 -1.25000e-03
       vertex -2.98800e-02  2.31456e-01 -1.25000e-03
     endloop
  endfacet
  facet normal  0.00000e+00 -0.00000e+00 -1.01041e-04
     outer loop
       vertex  2.74137e-02  2.46396e-01 -1.25000e-03
       vertex  3.14764e-02  2.32336e-01 -1.25000e-03
       vertex  1.72904e-02  2.31690e-01 -1.25000e-03
     endloop
  endfacet
  facet normal  0.00000e+00  0.00000e+00  1.11300e-04
     outer loop
       vertex -4.06720e-02  2.41892e-01  1.25000e-03
       vertex -5.31187e-02  2.35740e-01  1.25000e-03
       vertex -3.97695e-02  2.24454e-01  1.25000e-03
     endloop
  endfacet
  facet normal  0.00000e+00  0.00000e+00 -9.67191e-05
     outer loop
       vertex -5.50000e-02  1.98934e-01 -1.25000e-03
       vertex -6.50000e-02  2.08934e-01 -1.25000e-03
       vertex -5.40593e-02  2.17337e-01 -1.25000e-03
     endloop
  endfacet
  facet normal  0.00000e+00  0.00000e+00 -1.09693e-04
     outer loop
       vertex -4.50000e-02  1.88934e-01 -1.25000e-03
       vertex -5.50000e-02  1.98934e-01 -1.25000e-03
       vertex -4.09479e-02  2.06821e-01 -1.25000e-03
     endloop
  endfacet
  facet normal  0.00000e+00  0.00000e+00 -1.08083e-04
     outer loop
       vertex -2.50000e-02  1.68934e-01 -1.25000e-03
       vertex -3.50000e-02  1.78934e-01 -1.25000e-03
       vertex -1.78556e-02  1.83406e-01 -1.25000e-03
     endloop
  endfacet
  facet normal  0.00000e+00  0.00000e+00 -8.27847e-05
     outer loop
       vertex  5.30159e-02  2.35800e-01 -1.25000e-03
       vertex  5.11904e-02  2.19259e-01 -1.25000e-03
       vertex  4.24538e-02  2.30794e-01 -1.25000e-03
     endloop
  endfacet
  facet normal  0.00000e+00  0.00000e+00  1.02934e-04
     outer loop
       vertex -6.46552e-02  2.28015e-01  1.25000e-03
       vertex -6.50000e-02  2.08934e-01  1.25000e-03
       vertex -5.40593e-02  2.17337e-01  1.25000e-03
     endloop
  endfacet
  facet normal  0.00000e+00  0.00000e+00 -7.41277e-05
     outer loop
       vertex -5.00000e-03  1.48934e-01 -1.25000e-03
       vertex -1.50000e-02  1.58934e-01 -1.25000e-03
       vertex -6.68429e-04  1.59428e-01 -1.25000e-03
     endloop
  endfacet
  facet normal  0.00000e+00  0.00000e+00  9.27243e-05
     outer loop
       vertex -2.75284e-02  2.46365e-01  1.25000e-03
       vertex -4.06720e-02  2.41892e-01  1.25000e-03
       vertex -2.98800e-02  2.31456e-01  1.25000e-03
     endloop
  endfacet
  facet normal  0.00000e+00  0.00000e+00 -1.25592e-04
     outer loop
       vertex -5.50000e-02  1.98934e-01 -1.25000e-03
       vertex -5.40593e-02  2.17337e-01 -1.25000e-03
       vertex -4.09479e-02  2.06821e-01 -1.25000e-03
     endloop
  endfacet
  facet normal  0.00000e+00  0.00000e+00 -1.15539e-04
     outer loop
       vertex -3.50000e-02  1.78934e-01 -1.25000e-03
       vertex -4.50000e-02  1.88934e-01 -1.25000e-03
       vertex -2.91247e-02  1.96167e-01 -1.25000e-03
     endloop
  endfacet
  facet normal  0.00000e+00 -0.00000e+00  9.67191e-05
     outer loop
       vertex -5.50000e-02  1.98934e-01  1.25000e-03
       vertex -5.40593e-02  2.17337e-01  1.25000e-03
       vertex -6.50000e-02  2.08934e-01  1.25000e-03
     endloop
  endfacet
  facet normal  0.00000e+00 -0.00000e+00  1.09693e-04
     outer loop
       vertex -4.50000e-02  1.88934e-01  1.25000e-03
       vertex -4.09479e-02  2.06821e-01  1.25000e-03
       vertex -5.50000e-02  1.98934e-01  1.25000e-03
     endloop
  endfacet
  facet normal  0.00000e+00 -0.00000e+00  1.08083e-04
     outer loop
       vertex -2.50000e-02  1.68934e-01  1.25000e-03
       vertex -1.78556e-02  1.83406e-01  1.25000e-03
       vertex -3.50000e-02  1.78934e-01  1.25000e-03
     endloop
  endfacet
  facet normal  0.00000e+00  0.00000e+00  1.13381e-04
     outer loop
       vertex -1.39131e-02  2.49084e-01  1.25000e-03
       vertex -2.75284e-02  2.46365e-01  1.25000e-03
       vertex -1.71421e-02  2.31784e-01  1.25000e-03
     endloop
  endfacet
  facet normal -0.00000e+00  0.00000e+00 -1.33897e-04
     outer loop
       vertex -2.52026e-02  2.15178e-01 -1.25000e-03
       vertex -4.09479e-02  2.06821e-01 -1.25000e-03
       vertex -3.97695e-02  2.24454e-01 -1.25000e-03
     endloop
  endfacet
  facet normal  0.00000e+00  0.00000e+00  8.33781e-05
     outer loop
       vertex  4.05623e-02  2.41938e-01  1.25000e-03
       vertex  2.74137e-02  2.46396e-01  1.25000e-03
       vertex  3.14764e-02  2.32336e-01  1.25000e-03
     endloop
  endfacet
  facet normal  0.00000e+00 -0.00000e+00 -5.97053e-05
     outer loop
       vertex  4.05623e-02  2.41938e-01 -1.25000e-03
       vertex  4.24538e-02  2.30794e-01 -1.25000e-03
       vertex  3.14764e-02  2.32336e-01 -1.25000e-03
     endloop
  endfacet
  facet normal  0.00000e+00  0.00000e+00 -1.21796e-04
     outer loop
       vertex -5.40593e-02  2.17337e-01 -1.25000e-03
       vertex -3.97695e-02  2.24454e-01 -1.25000e-03
       vertex -4.09479e-02  2.06821e-01 -1.25000e-03
     endloop
  endfacet
  facet normal -0.00000e+00  0.00000e+00 -1.35158e-04
     outer loop
       vertex -1.37648e-02  2.01700e-01 -1.25000e-03
       vertex -2.91247e-02  1.96167e-01 -1.25000e-03
       vertex -2.52026e-02  2.15178e-01 -1.25000e-03
     endloop
  endfacet
  facet normal  0.00000e+00  0.00000e+00  6.35845e-05
     outer loop
       vertex  5.30159e-02  2.35800e-01  1.25000e-03
       vertex  4.05623e-02  2.41938e-01  1.25000e-03
       vertex  4.24538e-02  2.30794e-01  1.25000e-03
     endloop
  endfacet
  facet normal  0.00000e+00  0.00000e+00 -1.27324e-04
     outer loop
       vertex -4.50000e-02  1.88934e-01 -1.25000e-03
       vertex -4.09479e-02  2.06821e-01 -1.25000e-03
       vertex -2.91247e-02  1.96167e-01 -1.25000e-03
     endloop
  endfacet
  facet normal  0.00000e+00 -0.00000e+00  1.15539e-04
     outer loop
       vertex -3.50000e-02  1.78934e-01  1.25000e-03
       vertex -2.91247e-02  1.96167e-01  1.25000e-03
       vertex -4.50000e-02  1.88934e-01  1.25000e-03
     endloop
  endfacet
  facet normal  0.00000e+00  0.00000e+00 -1.34583e-04
     outer loop
       vertex -3.50000e-02  1.78934e-01 -1.25000e-03
       vertex -2.91247e-02  1.96167e-01 -1.25000e-03
       vertex -1.78556e-02  1.83406e-01 -1.25000e-03
     endloop
  endfacet
  facet normal  0.00000e+00 -0.00000e+00 -1.05178e-04
     outer loop
       vertex -1.37648e-02  2.01700e-01 -1.25000e-03
       vertex -4.23676e-03  1.92889e-01 -1.25000e-03
       vertex -1.78556e-02  1.83406e-01 -1.25000e-03
     endloop
  endfacet
  facet normal  0.00000e+00 -0.00000e+00  7.41277e-05
     outer loop
       vertex -5.00000e-03  1.48934e-01  1.25000e-03
       vertex -6.68429e-04  1.59428e-01  1.25000e-03
       vertex -1.50000e-02  1.58934e-01  1.25000e-03
     endloop
  endfacet
  facet normal  0.00000e+00  0.00000e+00 -9.89560e-05
     outer loop
       vertex -1.37648e-02  2.01700e-01 -1.25000e-03
       vertex  3.07352e-03  2.06900e-01 -1.25000e-03
       vertex -4.23676e-03  1.92889e-01 -1.25000e-03
     endloop
  endfacet
  facet normal  0.00000e+00  0.00000e+00 -8.58296e-05
     outer loop
       vertex -1.50000e-02  1.58934e-01 -1.25000e-03
       vertex -2.50000e-02  1.68934e-01 -1.25000e-03
       vertex -9.23293e-03  1.70333e-01 -1.25000e-03
     endloop
  endfacet
  facet normal  0.00000e+00  0.00000e+00 -9.68607e-05
     outer loop
       vertex -2.52026e-02  2.15178e-01 -1.25000e-03
       vertex -3.97695e-02  2.24454e-01 -1.25000e-03
       vertex -2.98800e-02  2.31456e-01 -1.25000e-03
     endloop
  endfacet
  facet normal  0.00000e+00  0.00000e+00 -1.29179e-04
     outer loop
       vertex -1.37648e-02  2.01700e-01 -1.25000e-03
       vertex -1.78556e-02  1.83406e-01 -1.25000e-03
       vertex -2.91247e-02  1.96167e-01 -1.25000e-03
     endloop
  endfacet
  facet normal  0.00000e+00  0.00000e+00 -1.33284e-04
     outer loop
       vertex -2.52026e-02  2.15178e-01 -1.25000e-03
       vertex -2.91247e-02  1.96167e-01 -1.25000e-03
       vertex -4.09479e-02  2.06821e-01 -1.25000e-03
     endloop
  endfacet
  facet normal -0.00000e+00  0.00000e+00 -1.03520e-04
     outer loop
       vertex  1.06187e-02  1.93039e-01 -1.25000e-03
       vertex -4.23676e-03  1.92889e-01 -1.25000e-03
       vertex  3.07352e-03  2.06900e-01 -1.25000e-03
     endloop
  endfacet
  facet normal  0.00000e+00  0.00000e+00 -8.41652e-05
     outer loop
       vertex  1.63222e-02  2.16099e-01 -1.25000e-03
       vertex  5.84551e-03  2.21254e-01 -1.25000e-03
       vertex  1.72904e-02  2.31690e-01 -1.25000e-03
     endloop
  endfacet
  facet normal  0.00000e+00  0.00000e+00 -1.14828e-04
     outer loop
       vertex -2.44889e-04  2.35767e-01 -1.25000e-03
       vertex  1.72904e-02  2.31690e-01 -1.25000e-03
       vertex  5.84551e-03  2.21254e-01 -1.25000e-03
     endloop
  endfacet
  facet normal -0.00000e+00  0.00000e+00 -8.23383e-05
     outer loop
       vertex  1.63222e-02  2.16099e-01 -1.25000e-03
       vertex  3.07352e-03  2.06900e-01 -1.25000e-03
       vertex  5.84551e-03  2.21254e-01 -1.25000e-03
     endloop
  endfacet
  facet normal  0.00000e+00  0.00000e+00 -1.32131e-04
     outer loop
       vertex -1.37648e-02  2.01700e-01 -1.25000e-03
       vertex -2.52026e-02  2.15178e-01 -1.25000e-03
       vertex -7.53096e-03  2.17459e-01 -1.25000e-03
     endloop
  endfacet
  facet normal  0.00000e+00  0.00000e+00 -9.06915e-05
     outer loop
       vertex  1.06187e-02  1.93039e-01 -1.25000e-03
       vertex -1.45174e-03  1.80707e-01 -1.25000e-03
       vertex -4.23676e-03  1.92889e-01 -1.25000e-03
     endloop
  endfacet
  facet normal  0.00000e+00  0.00000e+00 -9.74177e-05
     outer loop
       vertex  7.45584e-03  1.69793e-01 -1.25000e-03
       vertex -1.45174e-03  1.80707e-01 -1.25000e-03
       vertex  1.67509e-02  1.80277e-01 -1.25000e-03
     endloop
  endfacet
  facet normal  0.00000e+00 -0.00000e+00  8.58296e-05
     outer loop
       vertex -1.50000e-02  1.58934e-01  1.25000e-03
       vertex -9.23293e-03  1.70333e-01  1.25000e-03
       vertex -2.50000e-02  1.68934e-01  1.25000e-03
     endloop
  endfacet
  facet normal  0.00000e+00 -0.00000e+00 -1.14834e-04
     outer loop
       vertex  1.06187e-02  1.93039e-01 -1.25000e-03
       vertex  1.67509e-02  1.80277e-01 -1.25000e-03
       vertex -1.45174e-03  1.80707e-01 -1.25000e-03
     endloop
  endfacet
  facet normal  0.00000e+00  0.00000e+00 -1.09096e-04
     outer loop
       vertex -2.50000e-02  1.68934e-01 -1.25000e-03
       vertex -1.78556e-02  1.83406e-01 -1.25000e-03
       vertex -9.23293e-03  1.70333e-01 -1.25000e-03
     endloop
  endfacet
  facet normal  0.00000e+00  0.00000e+00 -1.04437e-04
     outer loop
       vertex -2.52026e-02  2.15178e-01 -1.25000e-03
       vertex -2.98800e-02  2.31456e-01 -1.25000e-03
       vertex -1.71421e-02  2.31784e-01 -1.25000e-03
     endloop
  endfacet
  facet normal  0.00000e+00  0.00000e+00 -9.79563e-05
     outer loop
       vertex  3.66717e-02  2.21525e-01 -1.25000e-03
       vertex  5.11904e-02  2.19259e-01 -1.25000e-03
       vertex  4.14768e-02  2.07281e-01 -1.25000e-03
     endloop
  endfacet
  facet normal  0.00000e+00  0.00000e+00 -9.61550e-05
     outer loop
       vertex -1.78556e-02  1.83406e-01 -1.25000e-03
       vertex -4.23676e-03  1.92889e-01 -1.25000e-03
       vertex -1.45174e-03  1.80707e-01 -1.25000e-03
     endloop
  endfacet
  facet normal  0.00000e+00  0.00000e+00 -1.16467e-04
     outer loop
       vertex -1.37648e-02  2.01700e-01 -1.25000e-03
       vertex -7.53096e-03  2.17459e-01 -1.25000e-03
       vertex  3.07352e-03  2.06900e-01 -1.25000e-03
     endloop
  endfacet
  facet normal  0.00000e+00  0.00000e+00 -9.26479e-05
     outer loop
       vertex  1.06187e-02  1.93039e-01 -1.25000e-03
       vertex  2.60151e-02  1.91213e-01 -1.25000e-03
       vertex  1.67509e-02  1.80277e-01 -1.25000e-03
     endloop
  endfacet
  facet normal  0.00000e+00  0.00000e+00 -7.35422e-05
     outer loop
       vertex  1.63222e-02  2.16099e-01 -1.25000e-03
       vertex  1.72904e-02  2.31690e-01 -1.25000e-03
       vertex  2.61670e-02  2.22714e-01 -1.25000e-03
     endloop
  endfacet
  facet normal  0.00000e+00  0.00000e+00 -8.02574e-05
     outer loop
       vertex -1.50000e-02  1.58934e-01 -1.25000e-03
       vertex -9.23293e-03  1.70333e-01 -1.25000e-03
       vertex -6.68429e-04  1.59428e-01 -1.25000e-03
     endloop
  endfacet
  facet normal  0.00000e+00  0.00000e+00  9.59576e-05
     outer loop
       vertex  2.50000e-02  1.68934e-01  1.25000e-03
       vertex  1.67509e-02  1.80277e-01  1.25000e-03
       vertex  7.45584e-03  1.69793e-01  1.25000e-03
     endloop
  endfacet
  facet normal  0.00000e+00 -0.00000e+00 -9.47256e-05
     outer loop
       vertex  1.63222e-02  2.16099e-01 -1.25000e-03
       vertex  1.87043e-02  2.03454e-01 -1.25000e-03
       vertex  3.07352e-03  2.06900e-01 -1.25000e-03
     endloop
  endfacet
  facet normal  0.00000e+00 -0.00000e+00 -1.08623e-04
     outer loop
       vertex -2.44889e-04  2.35767e-01 -1.25000e-03
       vertex  5.84551e-03  2.21254e-01 -1.25000e-03
       vertex -7.53096e-03  2.17459e-01 -1.25000e-03
     endloop
  endfacet
  facet normal  0.00000e+00  0.00000e+00  8.32083e-05
     outer loop
       vertex  1.50000e-02  1.58934e-01  1.25000e-03
       vertex  7.45584e-03  1.69793e-01  1.25000e-03
       vertex -6.68429e-04  1.59428e-01  1.25000e-03
     endloop
  endfacet
  facet normal  0.00000e+00  0.00000e+00 -8.86685e-05
     outer loop
       vertex  7.45584e-03  1.69793e-01 -1.25000e-03
       vertex -9.23293e-03  1.70333e-01 -1.25000e-03
       vertex -1.45174e-03  1.80707e-01 -1.25000e-03
     endloop
  endfacet
  facet normal  0.00000e+00  0.00000e+00 -1.40168e-04
     outer loop
       vertex -2.44889e-04  2.35767e-01 -1.25000e-03
       vertex -7.53096e-03  2.17459e-01 -1.25000e-03
       vertex -1.71421e-02  2.31784e-01 -1.25000e-03
     endloop
  endfacet
  facet normal  0.00000e+00  0.00000e+00 -9.53258e-05
     outer loop
       vertex  1.06187e-02  1.93039e-01 -1.25000e-03
       vertex  3.07352e-03  2.06900e-01 -1.25000e-03
       vertex  1.87043e-02  2.03454e-01 -1.25000e-03
     endloop
  endfacet
  facet normal  0.00000e+00  0.00000e+00 -1.37533e-04
     outer loop
       vertex -2.52026e-02  2.15178e-01 -1.25000e-03
       vertex -1.71421e-02  2.31784e-01 -1.25000e-03
       vertex -7.53096e-03  2.17459e-01 -1.25000e-03
     endloop
  endfacet
  facet normal -0.00000e+00  0.00000e+00 -8.86827e-05
     outer loop
       vertex  7.45584e-03  1.69793e-01 -1.25000e-03
       vertex -6.68429e-04  1.59428e-01 -1.25000e-03
       vertex -9.23293e-03  1.70333e-01 -1.25000e-03
     endloop
  endfacet
  facet normal  0.00000e+00 -0.00000e+00 -7.71933e-05
     outer loop
       vertex  3.66717e-02  2.21525e-01 -1.25000e-03
       vertex  4.14768e-02  2.07281e-01 -1.25000e-03
       vertex  2.90743e-02  2.11917e-01 -1.25000e-03
     endloop
  endfacet
  facet normal  0.00000e+00  0.00000e+00 -6.00478e-05
     outer loop
       vertex  3.27959e-02  2.00843e-01 -1.25000e-03
       vertex  2.90743e-02  2.11917e-01 -1.25000e-03
       vertex  4.14768e-02  2.07281e-01 -1.25000e-03
     endloop
  endfacet
  facet normal  0.00000e+00  0.00000e+00  1.45512e-04
     outer loop
       vertex  1.37953e-02  2.49099e-01  1.25000e-03
       vertex -2.44889e-04  2.35767e-01  1.25000e-03
       vertex  1.72904e-02  2.31690e-01  1.25000e-03
     endloop
  endfacet
  facet normal  0.00000e+00  0.00000e+00 -7.38358e-05
     outer loop
       vertex  3.66717e-02  2.21525e-01 -1.25000e-03
       vertex  4.24538e-02  2.30794e-01 -1.25000e-03
       vertex  5.11904e-02  2.19259e-01 -1.25000e-03
     endloop
  endfacet
  facet normal  0.00000e+00  0.00000e+00 -7.56479e-05
     outer loop
       vertex  1.63222e-02  2.16099e-01 -1.25000e-03
       vertex  2.90743e-02  2.11917e-01 -1.25000e-03
       vertex  1.87043e-02  2.03454e-01 -1.25000e-03
     endloop
  endfacet
  facet normal  0.00000e+00  0.00000e+00 -6.27601e-05
     outer loop
       vertex  1.63222e-02  2.16099e-01 -1.25000e-03
       vertex  2.61670e-02  2.22714e-01 -1.25000e-03
       vertex  2.90743e-02  2.11917e-01 -1.25000e-03
     endloop
  endfacet
  facet normal  0.00000e+00  0.00000e+00 -9.07458e-05
     outer loop
       vertex  3.07352e-03  2.06900e-01 -1.25000e-03
       vertex -7.53096e-03  2.17459e-01 -1.25000e-03
       vertex  5.84551e-03  2.21254e-01 -1.25000e-03
     endloop
  endfacet
  facet normal  0.00000e+00  0.00000e+00 -9.55912e-05
     outer loop
       vertex -1.78556e-02  1.83406e-01 -1.25000e-03
       vertex -1.45174e-03  1.80707e-01 -1.25000e-03
       vertex -9.23293e-03  1.70333e-01 -1.25000e-03
     endloop
  endfacet
  facet normal  0.00000e+00  0.00000e+00 -8.75551e-05
     outer loop
       vertex  1.06187e-02  1.93039e-01 -1.25000e-03
       vertex  1.87043e-02  2.03454e-01 -1.25000e-03
       vertex  2.60151e-02  1.91213e-01 -1.25000e-03
     endloop
  endfacet
  facet normal  0.00000e+00  0.00000e+00  1.28142e-04
     outer loop
       vertex -5.31187e-02  2.35740e-01  1.25000e-03
       vertex -5.40593e-02  2.17337e-01  1.25000e-03
       vertex -3.97695e-02  2.24454e-01  1.25000e-03
     endloop
  endfacet
  facet normal  0.00000e+00  0.00000e+00  9.09784e-05
     outer loop
       vertex  4.50000e-02  1.88934e-01  1.25000e-03
       vertex  4.14768e-02  2.07281e-01  1.25000e-03
       vertex  3.27959e-02  2.00843e-01  1.25000e-03
     endloop
  endfacet
  facet normal -0.00000e+00  0.00000e+00 -7.67004e-05
     outer loop
       vertex  3.27959e-02  2.00843e-01 -1.25000e-03
       vertex  2.60151e-02  1.91213e-01 -1.25000e-03
       vertex  1.87043e-02  2.03454e-01 -1.25000e-03
     endloop
  endfacet
  facet normal  0.00000e+00  0.00000e+00 -7.31681e-05
     outer loop
       vertex  3.27959e-02  2.00843e-01 -1.25000e-03
       vertex  1.87043e-02  2.03454e-01 -1.25000e-03
       vertex  2.90743e-02  2.11917e-01 -1.25000e-03
     endloop
  endfacet
  facet normal  0.00000e+00  0.00000e+00  9.91367e-05
     outer loop
       vertex  4.50000e-02  1.88934e-01  1.25000e-03
       vertex  3.27959e-02  2.00843e-01  1.25000e-03
       vertex  2.60151e-02  1.91213e-01  1.25000e-03
     endloop
  endfacet
  facet normal -0.00000e+00  0.00000e+00 -5.49799e-05
     outer loop
       vertex  3.66717e-02  2.21525e-01 -1.25000e-03
       vertex  2.90743e-02  2.11917e-01 -1.25000e-03
       vertex  2.61670e-02  2.22714e-01 -1.25000e-03
     endloop
  endfacet
  facet normal  0.00000e+00  0.00000e+00 -5.36948e-05
     outer loop
       vertex  3.66717e-02  2.21525e-01 -1.25000e-03
       vertex  2.61670e-02  2.22714e-01 -1.25000e-03
       vertex  3.14764e-02  2.32336e-01 -1.25000e-03
     endloop
  endfacet
  facet normal  0.00000e+00  0.00000e+00 -5.53298e-05
     outer loop
       vertex  3.66717e-02  2.21525e-01 -1.25000e-03
       vertex  3.14764e-02  2.32336e-01 -1.25000e-03
       vertex  4.24538e-02  2.30794e-01 -1.25000e-03
     endloop
  endfacet
  facet normal  0.00000e+00  0.00000e+00  1.25592e-04
     outer loop
       vertex -5.50000e-02  1.98934e-01  1.25000e-03
       vertex -4.09479e-02  2.06821e-01  1.25000e-03
       vertex -5.40593e-02  2.17337e-01  1.25000e-03
     endloop
  endfacet
  facet normal  0.00000e+00  0.00000e+00  1.21528e-04
     outer loop
       vertex  5.50000e-02  1.98934e-01  1.25000e-03
       vertex  5.11904e-02  2.19259e-01  1.25000e-03
       vertex  4.14768e-02  2.07281e-01  1.25000e-03
     endloop
  endfacet
  facet normal  0.00000e+00  0.00000e+00 -6.65375e-05
     outer loop
       vertex  1.72904e-02  2.31690e-01 -1.25000e-03
       vertex  3.14764e-02  2.32336e-01 -1.25000e-03
       vertex  2.61670e-02  2.22714e-01 -1.25000e-03
     endloop
  endfacet
  facet normal  0.00000e+00  0.00000e+00  1.06009e-04
     outer loop
       vertex  3.50000e-02  1.78934e-01  1.25000e-03
       vertex  2.60151e-02  1.91213e-01  1.25000e-03
       vertex  1.67509e-02  1.80277e-01  1.25000e-03
     endloop
  endfacet
  facet normal  0.00000e+00  0.00000e+00  8.93861e-05
     outer loop
       vertex -4.06720e-02  2.41892e-01  1.25000e-03
       vertex -3.97695e-02  2.24454e-01  1.25000e-03
       vertex -2.98800e-02  2.31456e-01  1.25000e-03
     endloop
  endfacet
  facet normal  0.00000e+00  0.00000e+00  1.39726e-04
     outer loop
       vertex -1.39131e-02  2.49084e-01  1.25000e-03
       vertex -1.71421e-02  2.31784e-01  1.25000e-03
       vertex -2.44889e-04  2.35767e-01  1.25000e-03
     endloop
  endfacet
  facet normal  0.00000e+00  0.00000e+00  1.27324e-04
     outer loop
       vertex -4.50000e-02  1.88934e-01  1.25000e-03
       vertex -2.91247e-02  1.96167e-01  1.25000e-03
       vertex -4.09479e-02  2.06821e-01  1.25000e-03
     endloop
  endfacet
  facet normal  0.00000e+00  0.00000e+00  1.34583e-04
     outer loop
       vertex -3.50000e-02  1.78934e-01  1.25000e-03
       vertex -1.78556e-02  1.83406e-01  1.25000e-03
       vertex -2.91247e-02  1.96167e-01  1.25000e-03
     endloop
  endfacet
  facet normal  0.00000e+00  0.00000e+00  9.45739e-05
     outer loop
       vertex -2.75284e-02  2.46365e-01  1.25000e-03
       vertex -2.98800e-02  2.31456e-01  1.25000e-03
       vertex -1.71421e-02  2.31784e-01  1.25000e-03
     endloop
  endfacet
  facet normal  0.00000e+00  0.00000e+00  1.01041e-04
     outer loop
       vertex  2.74137e-02  2.46396e-01  1.25000e-03
       vertex  1.72904e-02  2.31690e-01  1.25000e-03
       vertex  3.14764e-02  2.32336e-01  1.25000e-03
     endloop
  endfacet
  facet normal  0.00000e+00  0.00000e+00  8.27847e-05
     outer loop
       vertex  5.30159e-02  2.35800e-01  1.25000e-03
       vertex  4.24538e-02  2.30794e-01  1.25000e-03
       vertex  5.11904e-02  2.19259e-01  1.25000e-03
     endloop
  endfacet
  facet normal  0.00000e+00  0.00000e+00  1.09096e-04
     outer loop
       vertex -2.50000e-02  1.68934e-01  1.25000e-03
       vertex -9.23293e-03  1.70333e-01  1.25000e-03
       vertex -1.78556e-02  1.83406e-01  1.25000e-03
     endloop
  endfacet
  facet normal  0.00000e+00  0.00000e+00  8.02574e-05
     outer loop
       vertex -1.50000e-02  1.58934e-01  1.25000e-03
       vertex -6.68429e-04  1.59428e-01  1.25000e-03
       vertex -9.23293e-03  1.70333e-01  1.25000e-03
     endloop
  endfacet
  facet normal  0.00000e+00  0.00000e+00  5.97053e-05
     outer loop
       vertex  4.05623e-02  2.41938e-01  1.25000e-03
       vertex  3.14764e-02  2.32336e-01  1.25000e-03
       vertex  4.24538e-02  2.30794e-01  1.25000e-03
     endloop
  endfacet
  facet normal  0.00000e+00  0.00000e+00  1.33897e-04
     outer loop
       vertex -2.52026e-02  2.15178e-01  1.25000e-03
       vertex -3.97695e-02  2.24454e-01  1.25000e-03
       vertex -4.09479e-02  2.06821e-01  1.25000e-03
     endloop
  endfacet
  facet normal -0.00000e+00  0.00000e+00  1.21796e-04
     outer loop
       vertex -5.40593e-02  2.17337e-01  1.25000e-03
       vertex -4.09479e-02  2.06821e-01  1.25000e-03
       vertex -3.97695e-02  2.24454e-01  1.25000e-03
     endloop
  endfacet
  facet normal  0.00000e+00  0.00000e+00  1.35158e-04
     outer loop
       vertex -1.37648e-02  2.01700e-01  1.25000e-03
       vertex -2.52026e-02  2.15178e-01  1.25000e-03
       vertex -2.91247e-02  1.96167e-01  1.25000e-03
     endloop
  endfacet
  facet normal  0.00000e+00  0.00000e+00  1.05178e-04
     outer loop
       vertex -1.37648e-02  2.01700e-01  1.25000e-03
       vertex -1.78556e-02  1.83406e-01  1.25000e-03
       vertex -4.23676e-03  1.92889e-01  1.25000e-03
     endloop
  endfacet
  facet normal -0.00000e+00  0.00000e+00  9.89560e-05
     outer loop
       vertex -1.37648e-02  2.01700e-01  1.25000e-03
       vertex -4.23676e-03  1.92889e-01  1.25000e-03
       vertex  3.07352e-03  2.06900e-01  1.25000e-03
     endloop
  endfacet
  facet normal  0.00000e+00  0.00000e+00  9.68607e-05
     outer loop
       vertex -2.52026e-02  2.15178e-01  1.25000e-03
       vertex -2.98800e-02  2.31456e-01  1.25000e-03
       vertex -3.97695e-02  2.24454e-01  1.25000e-03
     endloop
  endfacet
  facet normal  0.00000e+00  0.00000e+00  1.33284e-04
     outer loop
       vertex -2.52026e-02  2.15178e-01  1.25000e-03
       vertex -4.09479e-02  2.06821e-01  1.25000e-03
       vertex -2.91247e-02  1.96167e-01  1.25000e-03
     endloop
  endfacet
  facet normal  0.00000e+00  0.00000e+00  1.29179e-04
     outer loop
       vertex -1.37648e-02  2.01700e-01  1.25000e-03
       vertex -2.91247e-02  1.96167e-01  1.25000e-03
       vertex -1.78556e-02  1.83406e-01  1.25000e-03
     endloop
  endfacet
  facet normal  0.00000e+00  0.00000e+00  1.03520e-04
     outer loop
       vertex  1.06187e-02  1.93039e-01  1.25000e-03
       vertex  3.07352e-03  2.06900e-01  1.25000e-03
       vertex -4.23676e-03  1.92889e-01  1.25000e-03
     endloop
  endfacet
  facet normal  0.00000e+00 -0.00000e+00  8.41652e-05
     outer loop
       vertex  1.63222e-02  2.16099e-01  1.25000e-03
       vertex  1.72904e-02  2.31690e-01  1.25000e-03
       vertex  5.84551e-03  2.21254e-01  1.25000e-03
     endloop
  endfacet
  facet normal  0.00000e+00  0.00000e+00  8.23383e-05
     outer loop
       vertex  1.63222e-02  2.16099e-01  1.25000e-03
       vertex  5.84551e-03  2.21254e-01  1.25000e-03
       vertex  3.07352e-03  2.06900e-01  1.25000e-03
     endloop
  endfacet
  facet normal  0.00000e+00  0.00000e+00  1.14828e-04
     outer loop
       vertex -2.44889e-04  2.35767e-01  1.25000e-03
       vertex  5.84551e-03  2.21254e-01  1.25000e-03
       vertex  1.72904e-02  2.31690e-01  1.25000e-03
     endloop
  endfacet
  facet normal  0.00000e+00 -0.00000e+00  1.32131e-04
     outer loop
       vertex -1.37648e-02  2.01700e-01  1.25000e-03
       vertex -7.53096e-03  2.17459e-01  1.25000e-03
       vertex -2.52026e-02  2.15178e-01  1.25000e-03
     endloop
  endfacet
  facet normal  0.00000e+00  0.00000e+00  9.06915e-05
     outer loop
       vertex  1.06187e-02  1.93039e-01  1.25000e-03
       vertex -4.23676e-03  1.92889e-01  1.25000e-03
       vertex -1.45174e-03  1.80707e-01  1.25000e-03
     endloop
  endfacet
  facet normal  0.00000e+00 -0.00000e+00  9.74177e-05
     outer loop
       vertex  7.45584e-03  1.69793e-01  1.25000e-03
       vertex  1.67509e-02  1.80277e-01  1.25000e-03
       vertex -1.45174e-03  1.80707e-01  1.25000e-03
     endloop
  endfacet
  facet normal  0.00000e+00  0.00000e+00  1.14834e-04
     outer loop
       vertex  1.06187e-02  1.93039e-01  1.25000e-03
       vertex -1.45174e-03  1.80707e-01  1.25000e-03
       vertex  1.67509e-02  1.80277e-01  1.25000e-03
     endloop
  endfacet
  facet normal  0.00000e+00 -0.00000e+00  1.04437e-04
     outer loop
       vertex -2.52026e-02  2.15178e-01  1.25000e-03
       vertex -1.71421e-02  2.31784e-01  1.25000e-03
       vertex -2.98800e-02  2.31456e-01  1.25000e-03
     endloop
  endfacet
  facet normal -0.00000e+00  0.00000e+00  9.61550e-05
     outer loop
       vertex -1.78556e-02  1.83406e-01  1.25000e-03
       vertex -1.45174e-03  1.80707e-01  1.25000e-03
       vertex -4.23676e-03  1.92889e-01  1.25000e-03
     endloop
  endfacet
  facet normal  0.00000e+00  0.00000e+00  9.79563e-05
     outer loop
       vertex  3.66717e-02  2.21525e-01  1.25000e-03
       vertex  4.14768e-02  2.07281e-01  1.25000e-03
       vertex  5.11904e-02  2.19259e-01  1.25000e-03
     endloop
  endfacet
  facet normal  0.00000e+00  0.00000e+00  1.16467e-04
     outer loop
       vertex -1.37648e-02  2.01700e-01  1.25000e-03
       vertex  3.07352e-03  2.06900e-01  1.25000e-03
       vertex -7.53096e-03  2.17459e-01  1.25000e-03
     endloop
  endfacet
  facet normal  0.00000e+00  0.00000e+00  9.26479e-05
     outer loop
       vertex  1.06187e-02  1.93039e-01  1.25000e-03
       vertex  1.67509e-02  1.80277e-01  1.25000e-03
       vertex  2.60151e-02  1.91213e-01  1.25000e-03
     endloop
  endfacet
  facet normal  0.00000e+00  0.00000e+00  7.35422e-05
     outer loop
       vertex  1.63222e-02  2.16099e-01  1.25000e-03
       vertex  2.61670e-02  2.22714e-01  1.25000e-03
       vertex  1.72904e-02  2.31690e-01  1.25000e-03
     endloop
  endfacet
  facet normal  0.00000e+00  0.00000e+00  9.47256e-05
     outer loop
       vertex  1.63222e-02  2.16099e-01  1.25000e-03
       vertex  3.07352e-03  2.06900e-01  1.25000e-03
       vertex  1.87043e-02  2.03454e-01  1.25000e-03
     endloop
  endfacet
  facet normal  0.00000e+00  0.00000e+00  1.08623e-04
     outer loop
       vertex -2.44889e-04  2.35767e-01  1.25000e-03
       vertex -7.53096e-03  2.17459e-01  1.25000e-03
       vertex  5.84551e-03  2.21254e-01  1.25000e-03
     endloop
  endfacet
  facet normal  0.00000e+00  0.00000e+00  8.86685e-05
     outer loop
       vertex  7.45584e-03  1.69793e-01  1.25000e-03
       vertex -1.45174e-03  1.80707e-01  1.25000e-03
       vertex -9.23293e-03  1.70333e-01  1.25000e-03
     endloop
  endfacet
  facet normal  0.00000e+00  0.00000e+00  1.40168e-04
     outer loop
       vertex -2.44889e-04  2.35767e-01  1.25000e-03
       vertex -1.71421e-02  2.31784e-01  1.25000e-03
       vertex -7.53096e-03  2.17459e-01  1.25000e-03
     endloop
  endfacet
  facet normal  0.00000e+00 -0.00000e+00  9.53258e-05
     outer loop
       vertex  1.06187e-02  1.93039e-01  1.25000e-03
       vertex  1.87043e-02  2.03454e-01  1.25000e-03
       vertex  3.07352e-03  2.06900e-01  1.25000e-03
     endloop
  endfacet
  facet normal  0.00000e+00  0.00000e+00  1.37533e-04
     outer loop
       vertex -2.52026e-02  2.15178e-01  1.25000e-03
       vertex -7.53096e-03  2.17459e-01  1.25000e-03
       vertex -1.71421e-02  2.31784e-01  1.25000e-03
     endloop
  endfacet
  facet normal  0.00000e+00  0.00000e+00  8.86827e-05
     outer loop
       vertex  7.45584e-03  1.69793e-01  1.25000e-03
       vertex -9.23293e-03  1.70333e-01  1.25000e-03
       vertex -6.68429e-04  1.59428e-01  1.25000e-03
     endloop
  endfacet
  facet normal  0.00000e+00  0.00000e+00  7.71933e-05
     outer loop
       vertex  3.66717e-02  2.21525e-01  1.25000e-03
       vertex  2.90743e-02  2.11917e-01  1.25000e-03
       vertex  4.14768e-02  2.07281e-01  1.25000e-03
     endloop
  endfacet
  facet normal  0.00000e+00 -0.00000e+00  6.00478e-05
     outer loop
       vertex  3.27959e-02  2.00843e-01  1.25000e-03
       vertex  4.14768e-02  2.07281e-01  1.25000e-03
       vertex  2.90743e-02  2.11917e-01  1.25000e-03
     endloop
  endfacet
  facet normal -0.00000e+00  0.00000e+00  7.38358e-05
     outer loop
       vertex  3.66717e-02  2.21525e-01  1.25000e-03
       vertex  5.11904e-02  2.19259e-01  1.25000e-03
       vertex  4.24538e-02  2.30794e-01  1.25000e-03
     endloop
  endfacet
  facet normal  0.00000e+00  0.00000e+00  7.56479e-05
     outer loop
       vertex  1.63222e-02  2.16099e-01  1.25000e-03
       vertex  1.87043e-02  2.03454e-01  1.25000e-03
       vertex  2.90743e-02  2.11917e-01  1.25000e-03
     endloop
  endfacet
  facet normal -0.00000e+00  0.00000e+00  6.27601e-05
     outer loop
       vertex  1.63222e-02  2.16099e-01  1.25000e-03
       vertex  2.90743e-02  2.11917e-01  1.25000e-03
       vertex  2.61670e-02  2.22714e-01  1.25000e-03
     endloop
  endfacet
  facet normal  0.00000e+00 -0.00000e+00  9.07458e-05
     outer loop
       vertex  3.07352e-03  2.06900e-01  1.25000e-03
       vertex  5.84551e-03  2.21254e-01  1.25000e-03
       vertex -7.53096e-03  2.17459e-01  1.25000e-03
     endloop
  endfacet
  facet normal  0.00000e+00  0.00000e+00  9.55912e-05
     outer loop
       vertex -1.78556e-02  1.83406e-01  1.25000e-03
       vertex -9.23293e-03  1.70333e-01  1.25000e-03
       vertex -1.45174e-03  1.80707e-01  1.25000e-03
     endloop
  endfacet
  facet normal -0.00000e+00  0.00000e+00  8.75551e-05
     outer loop
       vertex  1.06187e-02  1.93039e-01  1.25000e-03
       vertex  2.60151e-02  1.91213e-01  1.25000e-03
       vertex  1.87043e-02  2.03454e-01  1.25000e-03
     endloop
  endfacet
  facet normal  0.00000e+00  0.00000e+00  7.67004e-05
     outer loop
       vertex  3.27959e-02  2.00843e-01  1.25000e-03
       vertex  1.87043e-02  2.03454e-01  1.25000e-03
       vertex  2.60151e-02  1.91213e-01  1.25000e-03
     endloop
  endfacet
  facet normal  0.00000e+00  0.00000e+00  7.31681e-05
     outer loop
       vertex  3.27959e-02  2.00843e-01  1.25000e-03
       vertex  2.90743e-02  2.11917e-01  1.25000e-03
       vertex  1.87043e-02  2.03454e-01  1.25000e-03
     endloop
  endfacet
  facet normal  0.00000e+00  0.00000e+00  5.49799e-05
     outer loop
       vertex  3.66717e-02  2.21525e-01  1.25000e-03
       vertex  2.61670e-02  2.22714e-01  1.25000e-03
       vertex  2.90743e-02  2.11917e-01  1.25000e-03
     endloop
  endfacet
  facet normal  0.00000e+00  0.00000e+00  5.36948e-05
     outer loop
       vertex  3.66717e-02  2.21525e-01  1.25000e-03
       vertex  3.14764e-02  2.32336e-01  1.25000e-03
       vertex  2.61670e-02  2.22714e-01  1.25000e-03
     endloop
  endfacet
  facet normal  0.00000e+00 -0.00000e+00  5.53298e-05
     outer loop
       vertex  3.66717e-02  2.21525e-01  1.25000e-03
       vertex  4.24538e-02  2.30794e-01  1.25000e-03
       vertex  3.14764e-02  2.32336e-01  1.25000e-03
     endloop
  endfacet
  facet normal -0.00000e+00  0.00000e+00  6.65375e-05
     outer loop
       vertex  1.72904e-02  2.31690e-01  1.25000e-03
       vertex  2.61670e-02  2.22714e-01  1.25000e-03
       vertex  3.14764e-02  2.32336e-01  1.25000e-03
     endloop
  endfacet
endsolid solid
