solid nozzle
   facet normal 0.000000e+000 -1.000000e+000 0.000000e+000
      outer loop
         vertex -2.588190e-003 3.000000e-002 1.153407e-001
         vertex -1.305262e-003 3.000000e-002 1.150855e-001
         vertex 0.000000e+000 3.000000e-002 1.250000e-001
      endloop
   endfacet
   facet normal 0.000000e+000 -1.000000e+000 0.000000e+000
      outer loop
         vertex 0.000000e+000 3.000000e-002 1.250000e-001
         vertex -1.305262e-003 3.000000e-002 1.150855e-001
         vertex 0.000000e+000 3.000000e-002 1.150000e-001
      endloop
   endfacet
   facet normal 0.000000e+000 -1.000000e+000 0.000000e+000
      outer loop
         vertex 0.000000e+000 3.000000e-002 1.250000e-001
         vertex 0.000000e+000 3.000000e-002 1.150000e-001
         vertex 1.305262e-003 3.000000e-002 1.150855e-001
      endloop
   endfacet
   facet normal 0.000000e+000 -1.000000e+000 0.000000e+000
      outer loop
         vertex -6.087614e-003 3.000000e-002 1.170665e-001
         vertex -5.000000e-003 3.000000e-002 1.163397e-001
         vertex 0.000000e+000 3.000000e-002 1.250000e-001
      endloop
   endfacet
   facet normal 0.000000e+000 -1.000000e+000 0.000000e+000
      outer loop
         vertex 0.000000e+000 3.000000e-002 1.250000e-001
         vertex -5.000000e-003 3.000000e-002 1.163397e-001
         vertex -3.826834e-003 3.000000e-002 1.157612e-001
      endloop
   endfacet
   facet normal 0.000000e+000 -1.000000e+000 0.000000e+000
      outer loop
         vertex 0.000000e+000 3.000000e-002 1.250000e-001
         vertex -3.826834e-003 3.000000e-002 1.157612e-001
         vertex -2.588190e-003 3.000000e-002 1.153407e-001
      endloop
   endfacet
   facet normal 0.000000e+000 -1.000000e+000 0.000000e+000
      outer loop
         vertex -8.660254e-003 3.000000e-002 1.200000e-001
         vertex -7.933534e-003 3.000000e-002 1.189124e-001
         vertex 0.000000e+000 3.000000e-002 1.250000e-001
      endloop
   endfacet
   facet normal 0.000000e+000 -1.000000e+000 0.000000e+000
      outer loop
         vertex 0.000000e+000 3.000000e-002 1.250000e-001
         vertex -7.933534e-003 3.000000e-002 1.189124e-001
         vertex -7.071068e-003 3.000000e-002 1.179289e-001
      endloop
   endfacet
   facet normal 0.000000e+000 -1.000000e+000 0.000000e+000
      outer loop
         vertex 0.000000e+000 3.000000e-002 1.250000e-001
         vertex -7.071068e-003 3.000000e-002 1.179289e-001
         vertex -6.087614e-003 3.000000e-002 1.170665e-001
      endloop
   endfacet
   facet normal 0.000000e+000 -1.000000e+000 0.000000e+000
      outer loop
         vertex -9.914448e-003 3.000000e-002 1.236947e-001
         vertex -9.659259e-003 3.000000e-002 1.224118e-001
         vertex 0.000000e+000 3.000000e-002 1.250000e-001
      endloop
   endfacet
   facet normal 0.000000e+000 -1.000000e+000 0.000000e+000
      outer loop
         vertex 0.000000e+000 3.000000e-002 1.250000e-001
         vertex -9.659259e-003 3.000000e-002 1.224118e-001
         vertex -9.238795e-003 3.000000e-002 1.211732e-001
      endloop
   endfacet
   facet normal 0.000000e+000 -1.000000e+000 0.000000e+000
      outer loop
         vertex 0.000000e+000 3.000000e-002 1.250000e-001
         vertex -9.238795e-003 3.000000e-002 1.211732e-001
         vertex -8.660254e-003 3.000000e-002 1.200000e-001
      endloop
   endfacet
   facet normal 0.000000e+000 -1.000000e+000 0.000000e+000
      outer loop
         vertex -9.659259e-003 3.000000e-002 1.275882e-001
         vertex -9.914448e-003 3.000000e-002 1.263053e-001
         vertex 0.000000e+000 3.000000e-002 1.250000e-001
      endloop
   endfacet
   facet normal 0.000000e+000 -1.000000e+000 0.000000e+000
      outer loop
         vertex 0.000000e+000 3.000000e-002 1.250000e-001
         vertex -9.914448e-003 3.000000e-002 1.263053e-001
         vertex -1.000000e-002 3.000000e-002 1.250000e-001
      endloop
   endfacet
   facet normal 0.000000e+000 -1.000000e+000 0.000000e+000
      outer loop
         vertex 0.000000e+000 3.000000e-002 1.250000e-001
         vertex -1.000000e-002 3.000000e-002 1.250000e-001
         vertex -9.914448e-003 3.000000e-002 1.236947e-001
      endloop
   endfacet
   facet normal 0.000000e+000 -1.000000e+000 0.000000e+000
      outer loop
         vertex -7.933534e-003 3.000000e-002 1.310876e-001
         vertex -8.660254e-003 3.000000e-002 1.300000e-001
         vertex 0.000000e+000 3.000000e-002 1.250000e-001
      endloop
   endfacet
   facet normal 0.000000e+000 -1.000000e+000 0.000000e+000
      outer loop
         vertex 0.000000e+000 3.000000e-002 1.250000e-001
         vertex -8.660254e-003 3.000000e-002 1.300000e-001
         vertex -9.238795e-003 3.000000e-002 1.288268e-001
      endloop
   endfacet
   facet normal 0.000000e+000 -1.000000e+000 0.000000e+000
      outer loop
         vertex 0.000000e+000 3.000000e-002 1.250000e-001
         vertex -9.238795e-003 3.000000e-002 1.288268e-001
         vertex -9.659259e-003 3.000000e-002 1.275882e-001
      endloop
   endfacet
   facet normal 0.000000e+000 -1.000000e+000 0.000000e+000
      outer loop
         vertex -5.000000e-003 3.000000e-002 1.336603e-001
         vertex -6.087614e-003 3.000000e-002 1.329335e-001
         vertex 0.000000e+000 3.000000e-002 1.250000e-001
      endloop
   endfacet
   facet normal 0.000000e+000 -1.000000e+000 0.000000e+000
      outer loop
         vertex 0.000000e+000 3.000000e-002 1.250000e-001
         vertex -6.087614e-003 3.000000e-002 1.329335e-001
         vertex -7.071068e-003 3.000000e-002 1.320711e-001
      endloop
   endfacet
   facet normal 0.000000e+000 -1.000000e+000 0.000000e+000
      outer loop
         vertex 0.000000e+000 3.000000e-002 1.250000e-001
         vertex -7.071068e-003 3.000000e-002 1.320711e-001
         vertex -7.933534e-003 3.000000e-002 1.310876e-001
      endloop
   endfacet
   facet normal 0.000000e+000 -1.000000e+000 0.000000e+000
      outer loop
         vertex -1.305262e-003 3.000000e-002 1.349144e-001
         vertex -2.588190e-003 3.000000e-002 1.346593e-001
         vertex 0.000000e+000 3.000000e-002 1.250000e-001
      endloop
   endfacet
   facet normal 0.000000e+000 -1.000000e+000 0.000000e+000
      outer loop
         vertex 0.000000e+000 3.000000e-002 1.250000e-001
         vertex -2.588190e-003 3.000000e-002 1.346593e-001
         vertex -3.826834e-003 3.000000e-002 1.342388e-001
      endloop
   endfacet
   facet normal 0.000000e+000 -1.000000e+000 0.000000e+000
      outer loop
         vertex 0.000000e+000 3.000000e-002 1.250000e-001
         vertex -3.826834e-003 3.000000e-002 1.342388e-001
         vertex -5.000000e-003 3.000000e-002 1.336603e-001
      endloop
   endfacet
   facet normal 0.000000e+000 -1.000000e+000 0.000000e+000
      outer loop
         vertex 2.588190e-003 3.000000e-002 1.346593e-001
         vertex 1.305262e-003 3.000000e-002 1.349144e-001
         vertex 0.000000e+000 3.000000e-002 1.250000e-001
      endloop
   endfacet
   facet normal 0.000000e+000 -1.000000e+000 0.000000e+000
      outer loop
         vertex 0.000000e+000 3.000000e-002 1.250000e-001
         vertex 1.305262e-003 3.000000e-002 1.349144e-001
         vertex 2.220446e-018 3.000000e-002 1.350000e-001
      endloop
   endfacet
   facet normal 0.000000e+000 -1.000000e+000 0.000000e+000
      outer loop
         vertex 0.000000e+000 3.000000e-002 1.250000e-001
         vertex 2.220446e-018 3.000000e-002 1.350000e-001
         vertex -1.305262e-003 3.000000e-002 1.349144e-001
      endloop
   endfacet
   facet normal 0.000000e+000 -1.000000e+000 0.000000e+000
      outer loop
         vertex 6.087614e-003 3.000000e-002 1.329335e-001
         vertex 5.000000e-003 3.000000e-002 1.336603e-001
         vertex 0.000000e+000 3.000000e-002 1.250000e-001
      endloop
   endfacet
   facet normal 0.000000e+000 -1.000000e+000 0.000000e+000
      outer loop
         vertex 0.000000e+000 3.000000e-002 1.250000e-001
         vertex 5.000000e-003 3.000000e-002 1.336603e-001
         vertex 3.826834e-003 3.000000e-002 1.342388e-001
      endloop
   endfacet
   facet normal 0.000000e+000 -1.000000e+000 0.000000e+000
      outer loop
         vertex 0.000000e+000 3.000000e-002 1.250000e-001
         vertex 3.826834e-003 3.000000e-002 1.342388e-001
         vertex 2.588190e-003 3.000000e-002 1.346593e-001
      endloop
   endfacet
   facet normal 0.000000e+000 -1.000000e+000 0.000000e+000
      outer loop
         vertex 8.660254e-003 3.000000e-002 1.300000e-001
         vertex 7.933534e-003 3.000000e-002 1.310876e-001
         vertex 0.000000e+000 3.000000e-002 1.250000e-001
      endloop
   endfacet
   facet normal 0.000000e+000 -1.000000e+000 0.000000e+000
      outer loop
         vertex 0.000000e+000 3.000000e-002 1.250000e-001
         vertex 7.933534e-003 3.000000e-002 1.310876e-001
         vertex 7.071068e-003 3.000000e-002 1.320711e-001
      endloop
   endfacet
   facet normal 0.000000e+000 -1.000000e+000 0.000000e+000
      outer loop
         vertex 0.000000e+000 3.000000e-002 1.250000e-001
         vertex 7.071068e-003 3.000000e-002 1.320711e-001
         vertex 6.087614e-003 3.000000e-002 1.329335e-001
      endloop
   endfacet
   facet normal 0.000000e+000 -1.000000e+000 0.000000e+000
      outer loop
         vertex 9.914448e-003 3.000000e-002 1.263053e-001
         vertex 9.659259e-003 3.000000e-002 1.275882e-001
         vertex 0.000000e+000 3.000000e-002 1.250000e-001
      endloop
   endfacet
   facet normal 0.000000e+000 -1.000000e+000 0.000000e+000
      outer loop
         vertex 0.000000e+000 3.000000e-002 1.250000e-001
         vertex 9.659259e-003 3.000000e-002 1.275882e-001
         vertex 9.238795e-003 3.000000e-002 1.288268e-001
      endloop
   endfacet
   facet normal 0.000000e+000 -1.000000e+000 0.000000e+000
      outer loop
         vertex 0.000000e+000 3.000000e-002 1.250000e-001
         vertex 9.238795e-003 3.000000e-002 1.288268e-001
         vertex 8.660254e-003 3.000000e-002 1.300000e-001
      endloop
   endfacet
   facet normal 0.000000e+000 -1.000000e+000 0.000000e+000
      outer loop
         vertex 9.659259e-003 3.000000e-002 1.224118e-001
         vertex 9.914448e-003 3.000000e-002 1.236947e-001
         vertex 0.000000e+000 3.000000e-002 1.250000e-001
      endloop
   endfacet
   facet normal 0.000000e+000 -1.000000e+000 0.000000e+000
      outer loop
         vertex 0.000000e+000 3.000000e-002 1.250000e-001
         vertex 9.914448e-003 3.000000e-002 1.236947e-001
         vertex 1.000000e-002 3.000000e-002 1.250000e-001
      endloop
   endfacet
   facet normal 0.000000e+000 -1.000000e+000 0.000000e+000
      outer loop
         vertex 0.000000e+000 3.000000e-002 1.250000e-001
         vertex 1.000000e-002 3.000000e-002 1.250000e-001
         vertex 9.914448e-003 3.000000e-002 1.263053e-001
      endloop
   endfacet
   facet normal 0.000000e+000 -1.000000e+000 0.000000e+000
      outer loop
         vertex 7.933534e-003 3.000000e-002 1.189124e-001
         vertex 8.660254e-003 3.000000e-002 1.200000e-001
         vertex 0.000000e+000 3.000000e-002 1.250000e-001
      endloop
   endfacet
   facet normal 0.000000e+000 -1.000000e+000 0.000000e+000
      outer loop
         vertex 0.000000e+000 3.000000e-002 1.250000e-001
         vertex 8.660254e-003 3.000000e-002 1.200000e-001
         vertex 9.238795e-003 3.000000e-002 1.211732e-001
      endloop
   endfacet
   facet normal 0.000000e+000 -1.000000e+000 0.000000e+000
      outer loop
         vertex 0.000000e+000 3.000000e-002 1.250000e-001
         vertex 9.238795e-003 3.000000e-002 1.211732e-001
         vertex 9.659259e-003 3.000000e-002 1.224118e-001
      endloop
   endfacet
   facet normal 0.000000e+000 -1.000000e+000 0.000000e+000
      outer loop
         vertex 5.000000e-003 3.000000e-002 1.163397e-001
         vertex 6.087614e-003 3.000000e-002 1.170665e-001
         vertex 0.000000e+000 3.000000e-002 1.250000e-001
      endloop
   endfacet
   facet normal 0.000000e+000 -1.000000e+000 0.000000e+000
      outer loop
         vertex 0.000000e+000 3.000000e-002 1.250000e-001
         vertex 6.087614e-003 3.000000e-002 1.170665e-001
         vertex 7.071068e-003 3.000000e-002 1.179289e-001
      endloop
   endfacet
   facet normal 0.000000e+000 -1.000000e+000 0.000000e+000
      outer loop
         vertex 0.000000e+000 3.000000e-002 1.250000e-001
         vertex 7.071068e-003 3.000000e-002 1.179289e-001
         vertex 7.933534e-003 3.000000e-002 1.189124e-001
      endloop
   endfacet
   facet normal 0.000000e+000 -1.000000e+000 0.000000e+000
      outer loop
         vertex 1.305262e-003 3.000000e-002 1.150855e-001
         vertex 2.588190e-003 3.000000e-002 1.153407e-001
         vertex 0.000000e+000 3.000000e-002 1.250000e-001
      endloop
   endfacet
   facet normal 0.000000e+000 -1.000000e+000 0.000000e+000
      outer loop
         vertex 0.000000e+000 3.000000e-002 1.250000e-001
         vertex 2.588190e-003 3.000000e-002 1.153407e-001
         vertex 3.826834e-003 3.000000e-002 1.157612e-001
      endloop
   endfacet
   facet normal 0.000000e+000 -1.000000e+000 0.000000e+000
      outer loop
         vertex 0.000000e+000 3.000000e-002 1.250000e-001
         vertex 3.826834e-003 3.000000e-002 1.157612e-001
         vertex 5.000000e-003 3.000000e-002 1.163397e-001
      endloop
   endfacet
   facet normal 0.000000e+000 -1.000000e+000 0.000000e+000
      outer loop
         vertex -2.588190e-003 3.000000e-002 3.653407e-001
         vertex -1.305262e-003 3.000000e-002 3.650855e-001
         vertex 0.000000e+000 3.000000e-002 3.750000e-001
      endloop
   endfacet
   facet normal 0.000000e+000 -1.000000e+000 0.000000e+000
      outer loop
         vertex 0.000000e+000 3.000000e-002 3.750000e-001
         vertex -1.305262e-003 3.000000e-002 3.650855e-001
         vertex 0.000000e+000 3.000000e-002 3.650000e-001
      endloop
   endfacet
   facet normal 0.000000e+000 -1.000000e+000 0.000000e+000
      outer loop
         vertex 0.000000e+000 3.000000e-002 3.750000e-001
         vertex 0.000000e+000 3.000000e-002 3.650000e-001
         vertex 1.305262e-003 3.000000e-002 3.650855e-001
      endloop
   endfacet
   facet normal 0.000000e+000 -1.000000e+000 0.000000e+000
      outer loop
         vertex -6.087614e-003 3.000000e-002 3.670665e-001
         vertex -5.000000e-003 3.000000e-002 3.663397e-001
         vertex 0.000000e+000 3.000000e-002 3.750000e-001
      endloop
   endfacet
   facet normal 0.000000e+000 -1.000000e+000 0.000000e+000
      outer loop
         vertex 0.000000e+000 3.000000e-002 3.750000e-001
         vertex -5.000000e-003 3.000000e-002 3.663397e-001
         vertex -3.826834e-003 3.000000e-002 3.657612e-001
      endloop
   endfacet
   facet normal 0.000000e+000 -1.000000e+000 0.000000e+000
      outer loop
         vertex 0.000000e+000 3.000000e-002 3.750000e-001
         vertex -3.826834e-003 3.000000e-002 3.657612e-001
         vertex -2.588190e-003 3.000000e-002 3.653407e-001
      endloop
   endfacet
   facet normal 0.000000e+000 -1.000000e+000 0.000000e+000
      outer loop
         vertex -8.660254e-003 3.000000e-002 3.700000e-001
         vertex -7.933534e-003 3.000000e-002 3.689124e-001
         vertex 0.000000e+000 3.000000e-002 3.750000e-001
      endloop
   endfacet
   facet normal 0.000000e+000 -1.000000e+000 0.000000e+000
      outer loop
         vertex 0.000000e+000 3.000000e-002 3.750000e-001
         vertex -7.933534e-003 3.000000e-002 3.689124e-001
         vertex -7.071068e-003 3.000000e-002 3.679289e-001
      endloop
   endfacet
   facet normal 0.000000e+000 -1.000000e+000 0.000000e+000
      outer loop
         vertex 0.000000e+000 3.000000e-002 3.750000e-001
         vertex -7.071068e-003 3.000000e-002 3.679289e-001
         vertex -6.087614e-003 3.000000e-002 3.670665e-001
      endloop
   endfacet
   facet normal 0.000000e+000 -1.000000e+000 0.000000e+000
      outer loop
         vertex -9.914448e-003 3.000000e-002 3.736947e-001
         vertex -9.659259e-003 3.000000e-002 3.724118e-001
         vertex 0.000000e+000 3.000000e-002 3.750000e-001
      endloop
   endfacet
   facet normal 0.000000e+000 -1.000000e+000 0.000000e+000
      outer loop
         vertex 0.000000e+000 3.000000e-002 3.750000e-001
         vertex -9.659259e-003 3.000000e-002 3.724118e-001
         vertex -9.238795e-003 3.000000e-002 3.711732e-001
      endloop
   endfacet
   facet normal 0.000000e+000 -1.000000e+000 0.000000e+000
      outer loop
         vertex 0.000000e+000 3.000000e-002 3.750000e-001
         vertex -9.238795e-003 3.000000e-002 3.711732e-001
         vertex -8.660254e-003 3.000000e-002 3.700000e-001
      endloop
   endfacet
   facet normal 0.000000e+000 -1.000000e+000 0.000000e+000
      outer loop
         vertex -9.659259e-003 3.000000e-002 3.775882e-001
         vertex -9.914448e-003 3.000000e-002 3.763053e-001
         vertex 0.000000e+000 3.000000e-002 3.750000e-001
      endloop
   endfacet
   facet normal 0.000000e+000 -1.000000e+000 0.000000e+000
      outer loop
         vertex 0.000000e+000 3.000000e-002 3.750000e-001
         vertex -9.914448e-003 3.000000e-002 3.763053e-001
         vertex -1.000000e-002 3.000000e-002 3.750000e-001
      endloop
   endfacet
   facet normal 0.000000e+000 -1.000000e+000 0.000000e+000
      outer loop
         vertex 0.000000e+000 3.000000e-002 3.750000e-001
         vertex -1.000000e-002 3.000000e-002 3.750000e-001
         vertex -9.914448e-003 3.000000e-002 3.736947e-001
      endloop
   endfacet
   facet normal 0.000000e+000 -1.000000e+000 0.000000e+000
      outer loop
         vertex -7.933534e-003 3.000000e-002 3.810876e-001
         vertex -8.660254e-003 3.000000e-002 3.800000e-001
         vertex 0.000000e+000 3.000000e-002 3.750000e-001
      endloop
   endfacet
   facet normal 0.000000e+000 -1.000000e+000 0.000000e+000
      outer loop
         vertex 0.000000e+000 3.000000e-002 3.750000e-001
         vertex -8.660254e-003 3.000000e-002 3.800000e-001
         vertex -9.238795e-003 3.000000e-002 3.788268e-001
      endloop
   endfacet
   facet normal 0.000000e+000 -1.000000e+000 0.000000e+000
      outer loop
         vertex 0.000000e+000 3.000000e-002 3.750000e-001
         vertex -9.238795e-003 3.000000e-002 3.788268e-001
         vertex -9.659259e-003 3.000000e-002 3.775882e-001
      endloop
   endfacet
   facet normal 0.000000e+000 -1.000000e+000 0.000000e+000
      outer loop
         vertex -5.000000e-003 3.000000e-002 3.836603e-001
         vertex -6.087614e-003 3.000000e-002 3.829335e-001
         vertex 0.000000e+000 3.000000e-002 3.750000e-001
      endloop
   endfacet
   facet normal 0.000000e+000 -1.000000e+000 0.000000e+000
      outer loop
         vertex 0.000000e+000 3.000000e-002 3.750000e-001
         vertex -6.087614e-003 3.000000e-002 3.829335e-001
         vertex -7.071068e-003 3.000000e-002 3.820711e-001
      endloop
   endfacet
   facet normal 0.000000e+000 -1.000000e+000 0.000000e+000
      outer loop
         vertex 0.000000e+000 3.000000e-002 3.750000e-001
         vertex -7.071068e-003 3.000000e-002 3.820711e-001
         vertex -7.933534e-003 3.000000e-002 3.810876e-001
      endloop
   endfacet
   facet normal 0.000000e+000 -1.000000e+000 0.000000e+000
      outer loop
         vertex -1.305262e-003 3.000000e-002 3.849145e-001
         vertex -2.588190e-003 3.000000e-002 3.846593e-001
         vertex 0.000000e+000 3.000000e-002 3.750000e-001
      endloop
   endfacet
   facet normal 0.000000e+000 -1.000000e+000 0.000000e+000
      outer loop
         vertex 0.000000e+000 3.000000e-002 3.750000e-001
         vertex -2.588190e-003 3.000000e-002 3.846593e-001
         vertex -3.826834e-003 3.000000e-002 3.842388e-001
      endloop
   endfacet
   facet normal 0.000000e+000 -1.000000e+000 0.000000e+000
      outer loop
         vertex 0.000000e+000 3.000000e-002 3.750000e-001
         vertex -3.826834e-003 3.000000e-002 3.842388e-001
         vertex -5.000000e-003 3.000000e-002 3.836603e-001
      endloop
   endfacet
   facet normal 0.000000e+000 -1.000000e+000 0.000000e+000
      outer loop
         vertex 2.588190e-003 3.000000e-002 3.846593e-001
         vertex 1.305262e-003 3.000000e-002 3.849145e-001
         vertex 0.000000e+000 3.000000e-002 3.750000e-001
      endloop
   endfacet
   facet normal 0.000000e+000 -1.000000e+000 0.000000e+000
      outer loop
         vertex 0.000000e+000 3.000000e-002 3.750000e-001
         vertex 1.305262e-003 3.000000e-002 3.849145e-001
         vertex 2.220446e-018 3.000000e-002 3.850000e-001
      endloop
   endfacet
   facet normal 0.000000e+000 -1.000000e+000 0.000000e+000
      outer loop
         vertex 0.000000e+000 3.000000e-002 3.750000e-001
         vertex 2.220446e-018 3.000000e-002 3.850000e-001
         vertex -1.305262e-003 3.000000e-002 3.849145e-001
      endloop
   endfacet
   facet normal 0.000000e+000 -1.000000e+000 0.000000e+000
      outer loop
         vertex 6.087614e-003 3.000000e-002 3.829335e-001
         vertex 5.000000e-003 3.000000e-002 3.836603e-001
         vertex 0.000000e+000 3.000000e-002 3.750000e-001
      endloop
   endfacet
   facet normal 0.000000e+000 -1.000000e+000 0.000000e+000
      outer loop
         vertex 0.000000e+000 3.000000e-002 3.750000e-001
         vertex 5.000000e-003 3.000000e-002 3.836603e-001
         vertex 3.826834e-003 3.000000e-002 3.842388e-001
      endloop
   endfacet
   facet normal 0.000000e+000 -1.000000e+000 0.000000e+000
      outer loop
         vertex 0.000000e+000 3.000000e-002 3.750000e-001
         vertex 3.826834e-003 3.000000e-002 3.842388e-001
         vertex 2.588190e-003 3.000000e-002 3.846593e-001
      endloop
   endfacet
   facet normal 0.000000e+000 -1.000000e+000 0.000000e+000
      outer loop
         vertex 8.660254e-003 3.000000e-002 3.800000e-001
         vertex 7.933534e-003 3.000000e-002 3.810876e-001
         vertex 0.000000e+000 3.000000e-002 3.750000e-001
      endloop
   endfacet
   facet normal 0.000000e+000 -1.000000e+000 0.000000e+000
      outer loop
         vertex 0.000000e+000 3.000000e-002 3.750000e-001
         vertex 7.933534e-003 3.000000e-002 3.810876e-001
         vertex 7.071068e-003 3.000000e-002 3.820711e-001
      endloop
   endfacet
   facet normal 0.000000e+000 -1.000000e+000 0.000000e+000
      outer loop
         vertex 0.000000e+000 3.000000e-002 3.750000e-001
         vertex 7.071068e-003 3.000000e-002 3.820711e-001
         vertex 6.087614e-003 3.000000e-002 3.829335e-001
      endloop
   endfacet
   facet normal 0.000000e+000 -1.000000e+000 0.000000e+000
      outer loop
         vertex 9.914448e-003 3.000000e-002 3.763053e-001
         vertex 9.659259e-003 3.000000e-002 3.775882e-001
         vertex 0.000000e+000 3.000000e-002 3.750000e-001
      endloop
   endfacet
   facet normal 0.000000e+000 -1.000000e+000 0.000000e+000
      outer loop
         vertex 0.000000e+000 3.000000e-002 3.750000e-001
         vertex 9.659259e-003 3.000000e-002 3.775882e-001
         vertex 9.238795e-003 3.000000e-002 3.788268e-001
      endloop
   endfacet
   facet normal 0.000000e+000 -1.000000e+000 0.000000e+000
      outer loop
         vertex 0.000000e+000 3.000000e-002 3.750000e-001
         vertex 9.238795e-003 3.000000e-002 3.788268e-001
         vertex 8.660254e-003 3.000000e-002 3.800000e-001
      endloop
   endfacet
   facet normal 0.000000e+000 -1.000000e+000 0.000000e+000
      outer loop
         vertex 9.659259e-003 3.000000e-002 3.724118e-001
         vertex 9.914448e-003 3.000000e-002 3.736947e-001
         vertex 0.000000e+000 3.000000e-002 3.750000e-001
      endloop
   endfacet
   facet normal 0.000000e+000 -1.000000e+000 0.000000e+000
      outer loop
         vertex 0.000000e+000 3.000000e-002 3.750000e-001
         vertex 9.914448e-003 3.000000e-002 3.736947e-001
         vertex 1.000000e-002 3.000000e-002 3.750000e-001
      endloop
   endfacet
   facet normal 0.000000e+000 -1.000000e+000 0.000000e+000
      outer loop
         vertex 0.000000e+000 3.000000e-002 3.750000e-001
         vertex 1.000000e-002 3.000000e-002 3.750000e-001
         vertex 9.914448e-003 3.000000e-002 3.763053e-001
      endloop
   endfacet
   facet normal 0.000000e+000 -1.000000e+000 0.000000e+000
      outer loop
         vertex 7.933534e-003 3.000000e-002 3.689124e-001
         vertex 8.660254e-003 3.000000e-002 3.700000e-001
         vertex 0.000000e+000 3.000000e-002 3.750000e-001
      endloop
   endfacet
   facet normal 0.000000e+000 -1.000000e+000 0.000000e+000
      outer loop
         vertex 0.000000e+000 3.000000e-002 3.750000e-001
         vertex 8.660254e-003 3.000000e-002 3.700000e-001
         vertex 9.238795e-003 3.000000e-002 3.711732e-001
      endloop
   endfacet
   facet normal 0.000000e+000 -1.000000e+000 0.000000e+000
      outer loop
         vertex 0.000000e+000 3.000000e-002 3.750000e-001
         vertex 9.238795e-003 3.000000e-002 3.711732e-001
         vertex 9.659259e-003 3.000000e-002 3.724118e-001
      endloop
   endfacet
   facet normal 0.000000e+000 -1.000000e+000 0.000000e+000
      outer loop
         vertex 5.000000e-003 3.000000e-002 3.663397e-001
         vertex 6.087614e-003 3.000000e-002 3.670665e-001
         vertex 0.000000e+000 3.000000e-002 3.750000e-001
      endloop
   endfacet
   facet normal 0.000000e+000 -1.000000e+000 0.000000e+000
      outer loop
         vertex 0.000000e+000 3.000000e-002 3.750000e-001
         vertex 6.087614e-003 3.000000e-002 3.670665e-001
         vertex 7.071068e-003 3.000000e-002 3.679289e-001
      endloop
   endfacet
   facet normal 0.000000e+000 -1.000000e+000 0.000000e+000
      outer loop
         vertex 0.000000e+000 3.000000e-002 3.750000e-001
         vertex 7.071068e-003 3.000000e-002 3.679289e-001
         vertex 7.933534e-003 3.000000e-002 3.689124e-001
      endloop
   endfacet
   facet normal 0.000000e+000 -1.000000e+000 0.000000e+000
      outer loop
         vertex 1.305262e-003 3.000000e-002 3.650855e-001
         vertex 2.588190e-003 3.000000e-002 3.653407e-001
         vertex 0.000000e+000 3.000000e-002 3.750000e-001
      endloop
   endfacet
   facet normal 0.000000e+000 -1.000000e+000 0.000000e+000
      outer loop
         vertex 0.000000e+000 3.000000e-002 3.750000e-001
         vertex 2.588190e-003 3.000000e-002 3.653407e-001
         vertex 3.826834e-003 3.000000e-002 3.657612e-001
      endloop
   endfacet
   facet normal 0.000000e+000 -1.000000e+000 0.000000e+000
      outer loop
         vertex 0.000000e+000 3.000000e-002 3.750000e-001
         vertex 3.826834e-003 3.000000e-002 3.657612e-001
         vertex 5.000000e-003 3.000000e-002 3.663397e-001
      endloop
   endfacet
endsolid nozzle
